<?xml version="1.0" encoding="UTF-8"?>
<!DOCTYPE svg PUBLIC "-//W3C//DTD SVG 1.1//EN" "http://www.w3.org/Graphics/SVG/1.1/DTD/svg11.dtd">
<!-- Creator: CorelDRAW -->
<svg xmlns="http://www.w3.org/2000/svg" xml:space="preserve" width="1.70666in" height="1.70666in" version="1.1" style="shape-rendering:geometricPrecision; text-rendering:geometricPrecision; image-rendering:optimizeQuality; fill-rule:evenodd; clip-rule:evenodd"
viewBox="0 0 1707 1707"
 xmlns:xlink="http://www.w3.org/1999/xlink">
 <defs>
  <style type="text/css">
   <![CDATA[
    .fil0 {fill:#000002}
   ]]>
  </style>
 </defs>
 <g id="Layer_x0020_1">
  <metadata id="CorelCorpID_0Corel-Layer"/>
  <path class="fil0" d="M1303 1341c-10,0 -20,-4 -28,-11l-69 -70c-38,-37 19,-94 56,-56l41 41 120 -120c37,-37 94,20 56,57l-147 148c-8,7 -18,11 -29,11zm-117 366l-902 0c-108,0 -196,-89 -196,-197l0 -1313c0,-109 88,-197 196,-197l902 0c108,0 196,88 196,197l0 727c43,27 117,60 177,25 27,-15 60,4 60,35l0 251c0,78 -58,245 -239,306 -15,94 -97,166 -194,166zm116 -784l0 -726c0,-65 -52,-117 -116,-117l-902 0c-64,0 -116,52 -116,117l0 1313c0,64 52,117 116,117l902 0c54,0 100,-38 113,-88 -177,-63 -233,-227 -233,-304l0 -251c0,-31 33,-50 60,-35 60,35 133,2 176,-26zm-263 -551l-608 0c-53,0 -53,-80 0,-80l608 0c53,0 53,80 0,80zm116 261l-840 0c-53,0 -53,-80 0,-80l840 0c53,0 53,80 0,80zm0 260l-840 0c-53,0 -53,-80 0,-80l840 0c53,0 53,80 0,80zm-385 261l-455 0c-53,0 -53,-80 0,-80l455 0c53,0 53,80 0,80zm54 260l-509 0c-53,0 -53,-80 0,-80l509 0c52,0 52,80 0,80zm322 -180c1,13 14,181 196,235 183,-54 196,-221 197,-235l0 -193c-76,14 -151,-19 -197,-48 -45,29 -120,62 -196,48l0 193z"/>
 </g>
</svg>
