<?xml version="1.0" encoding="UTF-8" standalone="no"?> <svg id="_1-10" data-name="1-10" xmlns="http://www.w3.org/2000/svg" viewBox="0 0 32 32"><title>Analysis</title><g id="Analysis"><path d="M29,25H27V22a2,2,0,0,0-2-2H23a2,2,0,0,0-2,2v3H19V20a2,2,0,0,0-2-2H15a2,2,0,0,0-2,2v5H11V8A2,2,0,0,0,9,6H7A2,2,0,0,0,5,8V25H3a1,1,0,0,0,0,2H29a1,1,0,0,0,0-2ZM7,25V8H9V25Zm8,0V20h2v5Zm8,0V22h2v3Z"/><path d="M21,17a5.948,5.948,0,0,0,3.473-1.113l3.82,3.82a1,1,0,0,0,1.414-1.414l-3.82-3.82A5.995,5.995,0,1,0,21,17ZM18.171,8.171a4,4,0,1,1,0,5.658A3.992,3.992,0,0,1,18.171,8.171Z"/></g></svg>