<svg width="23" height="23" viewBox="0 0 23 23" fill="none" xmlns="http://www.w3.org/2000/svg">
<path d="M9.73964 22.3159C7.3131 21.9948 5.05833 20.8884 3.31966 19.1656C1.58099 17.4427 0.453988 15.1981 0.110769 12.7746C-0.232451 10.3511 0.226974 7.8819 1.41888 5.74402C2.61079 3.60614 4.46967 1.91712 6.71164 0.934906C6.95724 0.837977 7.23088 0.840167 7.4749 0.94101C7.71893 1.04185 7.91428 1.23346 8.0198 1.47549C8.12533 1.71753 8.13278 1.99107 8.04061 2.23849C7.94843 2.48592 7.7638 2.68792 7.52564 2.80191C6.15187 3.39813 4.94517 4.32194 4.01116 5.49255C3.07714 6.66317 2.44428 8.04487 2.16797 9.51672C1.89165 10.9886 1.9803 12.5057 2.42615 13.9354C2.872 15.3651 3.66147 16.6637 4.72546 17.7175C5.78945 18.7714 7.09553 19.5484 8.52939 19.9806C9.96325 20.4128 11.4812 20.4869 12.9503 20.1965C14.4195 19.9061 15.7951 19.2601 16.9567 18.3149C18.1183 17.3698 19.0306 16.1543 19.6136 14.7749C19.7189 14.5265 19.9186 14.3301 20.1687 14.229C20.4187 14.1278 20.6988 14.1301 20.9471 14.2354C21.1955 14.3407 21.3919 14.5403 21.4931 14.7904C21.5942 15.0405 21.5919 15.3205 21.4866 15.5689C20.5382 17.8252 18.875 19.7074 16.7527 20.9264C14.6304 22.1454 12.1664 22.6336 9.73964 22.3159ZM11.1876 12.2279C11.0539 12.2279 10.9215 12.2015 10.798 12.1503C10.6745 12.0991 10.5623 12.024 10.4678 11.9293C10.3733 11.8347 10.2985 11.7223 10.2475 11.5987C10.1965 11.4751 10.1704 11.3426 10.1706 11.2089V1.02289C10.1705 0.889202 10.1967 0.756799 10.2478 0.63324C10.2988 0.50968 10.3737 0.397388 10.4681 0.302765C10.5625 0.208142 10.6747 0.133037 10.7981 0.0817566C10.9216 0.030476 11.054 0.00403751 11.1876 0.00390625C14.1563 0.00788188 17.002 1.19032 19.0993 3.29138C21.1966 5.39244 22.374 8.2402 22.3726 11.2089C22.3729 11.3426 22.3468 11.4751 22.2958 11.5987C22.2448 11.7223 22.1699 11.8347 22.0755 11.9293C21.981 12.024 21.8688 12.0991 21.7453 12.1503C21.6218 12.2015 21.4894 12.2279 21.3556 12.2279H11.1876ZM12.2046 10.1899H20.2826C20.0535 8.12492 19.1291 6.19917 17.6612 4.72876C16.1934 3.25835 14.2692 2.33064 12.2046 2.0979V10.1899Z" fill="#06152B"/>
</svg>
