<svg width="58" height="58" viewBox="0 0 58 58" fill="none" xmlns="http://www.w3.org/2000/svg">
<path d="M42 0H16C7.16344 0 0 7.16344 0 16V42C0 50.8366 7.16344 58 16 58H42C50.8366 58 58 50.8366 58 42V16C58 7.16344 50.8366 0 42 0Z" fill="white"/>
<path d="M25.1582 44.3567L23.7072 42.9067C23.0782 42.2777 23.1462 42.2667 23.5072 41.6467C23.86 40.9302 23.9797 40.1213 23.8494 39.3333C23.7191 38.5454 23.3452 37.818 22.7805 37.2533C22.2158 36.6886 21.4885 36.3148 20.7006 36.1845C19.9126 36.0542 19.1036 36.1739 18.3871 36.5267C17.7671 36.8847 17.7551 36.9517 17.1261 36.3267L15.6771 34.8777C15.4148 34.6166 15.2067 34.3063 15.0647 33.9645C14.9227 33.6228 14.8496 33.2563 14.8496 32.8862C14.8496 32.5161 14.9227 32.1497 15.0647 31.8079C15.2067 31.4661 15.4148 31.1558 15.6771 30.8947L30.9211 15.6517C31.1822 15.3895 31.4924 15.1813 31.8341 15.0393C32.1758 14.8973 32.5421 14.8242 32.9121 14.8242C33.2821 14.8242 33.6486 14.8973 33.9902 15.0393C34.3319 15.1813 34.6422 15.3895 34.9032 15.6517L36.3522 17.1017C36.9822 17.7307 36.9161 17.7407 36.5521 18.3627C36.1993 19.0792 36.0796 19.8882 36.21 20.6761C36.3403 21.464 36.714 22.1914 37.2787 22.7561C37.8434 23.3208 38.5708 23.6946 39.3588 23.8249C40.1467 23.9552 40.9556 23.8355 41.6721 23.4827C42.2941 23.1227 42.3031 23.0557 42.9321 23.6827L44.3822 25.1327C44.6445 25.3938 44.8526 25.7042 44.9946 26.0459C45.1366 26.3877 45.2097 26.7541 45.2097 27.1242C45.2097 27.4943 45.1366 27.8607 44.9946 28.2025C44.8526 28.5443 44.6445 28.8546 44.3822 29.1157L29.1392 44.3597C28.878 44.6219 28.5676 44.8299 28.2258 44.9718C27.8841 45.1138 27.5178 45.1869 27.1477 45.1869C26.7776 45.1869 26.4112 45.1138 26.0695 44.9718C25.7277 44.8299 25.4173 44.6219 25.1561 44.3597L25.1582 44.3567ZM29.7782 24.5567C29.6666 24.5565 29.556 24.5782 29.4529 24.6208C29.3498 24.6634 29.2561 24.7259 29.1772 24.8048C29.0984 24.8837 29.0359 24.9774 28.9933 25.0805C28.9507 25.1836 28.9289 25.2941 28.9292 25.4057L28.9192 34.5937C28.9189 34.7049 28.9406 34.8151 28.983 34.9179C29.0254 35.0207 29.0877 35.1142 29.1663 35.1929C29.2449 35.2715 29.3383 35.3339 29.441 35.3765C29.5438 35.419 29.6539 35.4409 29.7651 35.4407H30.2871C30.5122 35.4405 30.728 35.3509 30.8872 35.1918C31.0464 35.0326 31.1358 34.8168 31.1361 34.5917L31.1461 25.4037C31.1466 25.2924 31.1252 25.1821 31.0829 25.0792C31.0406 24.9762 30.9783 24.8827 30.8997 24.804C30.821 24.7252 30.7275 24.6628 30.6246 24.6204C30.5217 24.578 30.4115 24.5563 30.3002 24.5567H29.7782ZM25.7031 27.8757C25.1406 27.8764 24.6013 28.1004 24.2039 28.4986C23.8064 28.8967 23.5833 29.4364 23.5836 29.9989C23.5839 30.5615 23.8077 31.101 24.2056 31.4986C24.6035 31.8963 25.1431 32.1197 25.7057 32.1197C26.2683 32.1197 26.8078 31.8963 27.2057 31.4986C27.6036 31.101 27.8273 30.5615 27.8276 29.9989C27.828 29.4364 27.6048 28.8967 27.2074 28.4986C26.8099 28.1004 26.2707 27.8764 25.7081 27.8757H25.7031ZM32.2372 29.9947C32.2374 30.4155 32.3622 30.8267 32.5961 31.1765C32.8299 31.5262 33.1623 31.7989 33.551 31.9598C33.9398 32.1208 34.3675 32.1629 34.7802 32.0809C35.1928 31.9988 35.5719 31.7962 35.8695 31.4988C36.1671 31.2013 36.3698 30.8223 36.452 30.4097C36.5343 29.9971 36.4925 29.5693 36.3317 29.1805C36.1709 28.7917 35.8984 28.4593 35.5487 28.2252C35.199 27.9912 34.7879 27.8661 34.3672 27.8657C34.0867 27.8644 33.8088 27.9187 33.5494 28.0255C33.2901 28.1323 33.0545 28.2895 32.8563 28.488C32.6581 28.6864 32.5012 28.9222 32.3948 29.1817C32.2883 29.4412 32.2345 29.7192 32.2362 29.9997L32.2372 29.9947ZM24.9312 30.0037C24.931 29.8513 24.976 29.7023 25.0605 29.5755C25.1451 29.4488 25.2653 29.3499 25.406 29.2915C25.5467 29.2331 25.7016 29.2178 25.8511 29.2475C26.0005 29.2771 26.1379 29.3505 26.2456 29.4582C26.3534 29.566 26.4267 29.7033 26.4564 29.8527C26.4861 30.0022 26.4708 30.1571 26.4124 30.2978C26.354 30.4386 26.2551 30.5588 26.1283 30.6434C26.0015 30.7279 25.8526 30.7729 25.7002 30.7727C25.4966 30.7719 25.3014 30.6908 25.1572 30.547C25.0131 30.4032 24.9315 30.2083 24.9302 30.0047L24.9312 30.0037ZM33.5941 29.9937C33.5936 29.8664 33.6246 29.741 33.6843 29.6286C33.7441 29.5161 33.8307 29.4203 33.9365 29.3495C34.0423 29.2788 34.1641 29.2353 34.2908 29.223C34.4175 29.2108 34.5453 29.23 34.6627 29.2792C34.7802 29.3283 34.8835 29.4057 34.9637 29.5046C35.044 29.6034 35.0985 29.7206 35.1224 29.8456C35.1463 29.9706 35.1389 30.0996 35.1008 30.2211C35.0627 30.3426 34.9952 30.4527 34.9042 30.5417C34.7593 30.6829 34.5654 30.7625 34.3632 30.7637C34.1599 30.764 33.9647 30.6838 33.8204 30.5406C33.6761 30.3974 33.5945 30.203 33.5931 29.9997L33.5941 29.9937Z" fill="#06152B"/>
</svg>
