<svg width="20" height="16" viewBox="0 0 20 16" fill="none" xmlns="http://www.w3.org/2000/svg">
<path d="M19.1825 7.80728C19.2637 7.61231 19.2637 7.38484 19.1825 7.18987C19.1419 7.08426 19.085 7.00303 19.0119 6.92179L13.3253 1.23518C13.0084 0.918352 12.4885 0.918352 12.1717 1.23518C11.8549 1.552 11.8549 2.07192 12.1717 2.38875L16.4773 6.6862H3.81237C3.36557 6.6862 3 7.05177 3 7.49857C3 7.94538 3.36557 8.31095 3.81237 8.31095H16.4773L12.1717 12.6084C12.0173 12.7628 11.9361 12.974 11.9361 13.1852C11.9361 13.3964 12.0255 13.6076 12.1717 13.762C12.326 13.9163 12.5291 13.9976 12.7485 13.9976C12.9678 13.9976 13.1709 13.9082 13.3253 13.762L19.0119 8.07536C19.085 8.00224 19.1419 7.91288 19.1825 7.80728Z" fill="black"/>
</svg>
