<svg width="18" height="19" viewBox="0 0 18 19" fill="none" xmlns="http://www.w3.org/2000/svg">
<path d="M16 0.710938H2C1.46957 0.710938 0.960859 0.921651 0.585786 1.29672C0.210714 1.6718 0 2.1805 0 2.71094V16.7109C0 17.2414 0.210714 17.7501 0.585786 18.1252C0.960859 18.5002 1.46957 18.7109 2 18.7109H16C16.5304 18.7109 17.0391 18.5002 17.4142 18.1252C17.7893 17.7501 18 17.2414 18 16.7109V2.71094C18 2.1805 17.7893 1.6718 17.4142 1.29672C17.0391 0.921651 16.5304 0.710938 16 0.710938ZM7 14.7109L2 9.71094L3.41 8.30094L7 11.8809L14.59 4.29094L16 5.71094L7 14.7109Z" fill="#3A36DB"/>
</svg>
