<svg width="267" height="289" viewBox="0 0 267 289" fill="none" xmlns="http://www.w3.org/2000/svg">
<g clip-path="url(#clip0_1_852)">
<path d="M76.9359 280.776H84.7363L88.4473 250.698L76.9345 250.698L76.9359 280.776Z" fill="#A0616A"/>
<path d="M74.9426 288.334L100.096 288.333V288.015C100.096 285.42 99.064 282.931 97.228 281.096C95.392 279.26 92.9019 278.229 90.3054 278.229H90.3048L74.9421 278.23L74.9426 288.334Z" fill="#1A1A22"/>
<path d="M16.196 277.401L23.9091 278.566L32.0762 249.381L21.9647 247.661L16.196 277.401Z" fill="#A0616A"/>
<path d="M13.0989 284.577L37.9696 288.335L38.0172 288.021C38.4051 285.454 37.7574 282.839 36.2165 280.75C34.6756 278.661 32.3677 277.269 29.8004 276.881L29.7998 276.881L14.6096 274.586L13.0989 284.577Z" fill="#1A1A22"/>
<path d="M113.578 196.291H249.203C251.235 196.286 252.882 192.919 252.885 188.762V87.9019C252.885 83.7455 251.235 80.3795 249.203 80.3726H113.578C111.546 80.3777 109.9 83.7447 109.897 87.9019V188.761C109.9 192.917 111.549 196.286 113.578 196.291Z" fill="#4261CF"/>
<path d="M113.578 196.291H249.203C251.235 196.286 252.882 192.919 252.885 188.762V87.9019C252.885 83.7455 251.235 80.3795 249.203 80.3726H113.578C111.546 80.3777 109.9 83.7447 109.897 87.9019V188.761C109.9 192.917 111.549 196.286 113.578 196.291ZM249.203 83.3841C250.423 83.3841 251.411 85.4082 251.412 87.9018V188.761C251.412 191.254 250.423 193.276 249.203 193.278H113.578C112.359 193.278 111.371 191.255 111.369 188.761V87.9019C111.369 85.4083 112.359 83.3867 113.578 83.3841L249.203 83.3841Z" fill="#E6E6E6"/>
<path d="M163.024 162.611H199.531V165.354H163.024V162.611Z" fill="white"/>
<path d="M158.476 169.738H204.42V172.481H158.476V169.738Z" fill="white"/>
<path d="M157.556 128.011C157.557 132.134 158.628 136.185 160.664 139.77C162.7 143.355 165.631 146.351 169.172 148.466C172.712 150.58 176.741 151.74 180.864 151.833C184.987 151.926 189.063 150.948 192.695 148.996L192.7 148.991C196.41 146.993 199.524 144.048 201.725 140.455C203.925 136.862 205.133 132.751 205.227 128.539C205.32 124.328 204.294 120.167 202.255 116.48C200.215 112.794 197.235 109.714 193.617 107.554C189.998 105.394 185.872 104.231 181.658 104.185C177.444 104.138 173.293 105.209 169.628 107.288C165.963 109.367 162.915 112.38 160.794 116.021C158.673 119.661 157.556 123.798 157.556 128.011Z" fill="#1A1A22"/>
<path d="M181.268 126.854C177.689 126.854 174.788 123.954 174.788 120.376C174.788 116.799 177.689 113.899 181.268 113.899C184.847 113.899 187.748 116.799 187.748 120.376C187.748 123.954 184.847 126.854 181.268 126.854Z" fill="white"/>
<path d="M170.206 140.237C177.45 142.779 185.349 142.748 192.574 140.151L192.578 140.147L187.751 130.622H174.791L170.206 140.237Z" fill="white"/>
<path d="M40.2457 131.718L48.9072 133.987L48.331 148.024L48.2596 173.582C49.113 174.172 49.767 175.007 50.1353 175.976C50.5035 176.946 50.5686 178.005 50.322 179.012C50.0753 180.019 49.5285 180.928 48.7538 181.618C47.9792 182.308 47.0132 182.747 45.9838 182.876C44.9543 183.006 43.9098 182.819 42.9885 182.342C42.0672 181.865 41.3124 181.12 40.8241 180.205C40.3358 179.29 40.1368 178.248 40.2537 177.217C40.3705 176.187 40.7976 175.216 41.4784 174.433L38.8168 148.782L40.2457 131.718Z" fill="#A0616A"/>
<path d="M37.824 140.159L50.484 135.898L50.5137 135.707C50.5325 135.587 52.3897 123.601 52.3669 115.378C52.3922 114.462 52.2174 113.551 51.8545 112.71C51.4917 111.868 50.9495 111.116 50.266 110.505C49.3149 109.638 48.1312 109.067 46.8601 108.863C45.589 108.658 44.2858 108.829 43.1106 109.355C41.8552 109.873 40.7754 110.74 40.0004 111.855C39.2253 112.97 38.7877 114.284 38.7399 115.64L37.824 140.159Z" fill="#E4E4E4"/>
<path d="M61.3727 138.983L80.7367 133.973L89.6877 164.107L90.0059 276.37L75.1982 276.278L69.0083 185.415L29.5582 269.374L13.6509 267.466L48.3288 177.464C48.3288 177.464 46.4199 161.563 52.4647 153.612L51.192 145.344L61.3727 138.983Z" fill="#1A1A22"/>
<path d="M50.6223 147.571L52.0879 147.548L81.8457 135.658L67.6093 103.962L60.8502 105.19L62.0807 100.27L47.146 96.6206L44.5476 107.01L40.7132 110.494C39.7476 111.373 39.0579 112.512 38.7278 113.775C38.3978 115.038 38.4416 116.369 38.854 117.607L47.6865 144.095C47.614 144.522 47.6355 144.96 47.7497 145.378C47.8638 145.796 48.0677 146.183 48.3472 146.514C48.6268 146.845 48.9752 147.111 49.3681 147.294C49.7611 147.476 50.1891 147.571 50.6224 147.571L50.6223 147.571Z" fill="#E4E4E4"/>
<path d="M72.9976 123.836L80.8263 119.492L90.114 130.036L107.731 148.559C108.755 148.396 109.805 148.548 110.742 148.994C111.678 149.441 112.457 150.161 112.975 151.059C113.494 151.958 113.727 152.992 113.644 154.026C113.561 155.06 113.166 156.045 112.511 156.849C111.857 157.654 110.973 158.241 109.977 158.532C108.982 158.824 107.921 158.807 106.935 158.483C105.95 158.159 105.086 157.543 104.458 156.717C103.83 155.892 103.467 154.895 103.418 153.859L83.7612 137.157L72.9976 123.836Z" fill="#A0616A"/>
<path d="M77.0864 131.611L83.291 119.785L83.1808 119.627C83.1114 119.527 76.1674 109.581 70.4662 103.653C69.8513 102.973 69.0955 102.436 68.2515 102.078C67.4075 101.721 66.4956 101.551 65.5795 101.582C64.2925 101.613 63.0424 102.018 61.9825 102.748C60.9225 103.478 60.0988 104.502 59.6124 105.694C59.0627 106.935 58.8822 108.308 59.0924 109.649C59.3027 110.99 59.8949 112.242 60.7981 113.255L77.0864 131.611Z" fill="#E4E4E4"/>
<path d="M58.1964 94.6872C51.6429 94.6872 46.3302 89.3765 46.3302 82.8255C46.3302 76.2745 51.6429 70.9639 58.1964 70.9639C64.7498 70.9639 70.0625 76.2745 70.0625 82.8255C70.0625 89.3765 64.7498 94.6872 58.1964 94.6872Z" fill="#A0616A"/>
<path d="M72.4688 75.8701C70.4733 72.2991 69.7098 70.8074 67.137 68.6359C64.8618 66.7155 62.0633 66.1515 59.806 67.9711C57.1357 66.8178 54.1645 66.5563 51.3337 67.2254C48.5029 67.8946 45.9635 69.4587 44.0928 71.6853C42.222 73.912 41.1197 76.6825 40.9496 79.5853C40.7794 82.4881 41.5505 85.3683 43.1484 87.7982C44.7462 90.228 47.0855 92.0778 49.8188 93.0728C52.552 94.0678 55.5335 94.1549 58.3202 93.3212C61.107 92.4875 63.5504 90.7775 65.2875 88.4451C67.0245 86.1127 67.9626 83.2825 67.9624 80.3747C67.9604 79.8641 67.9296 79.354 67.8703 78.8468C69.8324 78.5713 70.5067 76.1455 72.4688 75.8701Z" fill="#1A1A22"/>
<path d="M28.6493 110.96C29.1927 108.903 29.2739 106.752 28.8871 104.66C28.3137 100.621 27.024 96.7238 25.8443 92.818C24.6649 88.912 23.5831 84.9293 23.4466 80.8516C23.3105 76.7739 24.1951 72.5468 26.6273 69.2706C29.0597 65.9942 33.2066 63.8473 37.2413 64.4633C41.0962 65.0519 44.4627 68.5279 44.4826 72.3845C45.1726 73.6327 44.2812 75.3372 43.0118 76.0776C41.6805 76.8541 40.0752 76.9572 38.5986 77.3988C37.1488 77.8675 35.8116 78.6305 34.6706 79.64C33.5296 80.6494 32.6094 81.8836 31.9678 83.2651C30.7014 86.0543 30.3644 89.1763 31.0066 92.1714C31.588 95.0738 32.9262 97.7596 33.9289 100.545C34.9319 103.33 35.6025 106.388 34.7967 109.236C34.1277 111.339 32.7208 113.131 30.8351 114.279C28.9494 115.428 26.712 115.856 24.5351 115.486C25.5286 115.108 26.419 114.501 27.1338 113.715C27.8487 112.928 28.3679 111.984 28.6493 110.96Z" fill="#1A1A22"/>
<path d="M133.57 255.318C134.902 244.609 141.541 234.058 151.758 230.573C147.729 241.595 147.729 253.687 151.76 264.708C153.33 268.953 155.518 273.511 154.042 277.79C153.123 280.452 150.875 282.488 148.363 283.762C145.85 285.035 143.062 285.642 140.308 286.237L139.766 286.685C135.395 276.818 132.237 266.026 133.57 255.318Z" fill="#3A36DB"/>
<path d="M151.857 230.776C145.907 237.44 142.209 245.809 141.288 254.693C141.056 256.602 141.126 258.536 141.496 260.423C141.916 262.25 142.818 263.931 144.108 265.292C145.285 266.585 146.639 267.771 147.481 269.327C147.9 270.13 148.145 271.012 148.199 271.917C148.253 272.821 148.115 273.726 147.795 274.573C147.051 276.705 145.586 278.443 144.094 280.093C142.437 281.924 140.687 283.8 139.982 286.228C139.897 286.522 139.445 286.373 139.531 286.079C140.756 281.855 144.858 279.455 146.815 275.65C147.728 273.875 148.111 271.814 147.255 269.94C146.507 268.301 145.112 267.076 143.908 265.778C142.631 264.469 141.693 262.867 141.178 261.113C140.712 259.25 140.568 257.323 140.75 255.412C141.091 251.103 142.107 246.875 143.762 242.883C145.625 238.315 148.257 234.1 151.542 230.42C151.745 230.192 152.059 230.55 151.857 230.776H151.857Z" fill="white"/>
<path d="M141.416 251.815C139.945 251.458 138.65 250.59 137.761 249.367C136.871 248.143 136.446 246.644 136.56 245.136C136.585 244.831 137.06 244.854 137.036 245.16C136.926 246.564 137.323 247.961 138.153 249.098C138.984 250.236 140.194 251.039 141.565 251.363C141.863 251.434 141.712 251.885 141.416 251.815V251.815Z" fill="white"/>
<path d="M143.428 264.713C146.084 263.128 148.044 260.601 148.918 257.635C149.005 257.342 149.456 257.491 149.37 257.785C148.454 260.869 146.409 263.495 143.642 265.138C143.378 265.294 143.166 264.869 143.428 264.713L143.428 264.713Z" fill="white"/>
<path d="M146.066 238.765C146.607 239.021 147.202 239.14 147.799 239.109C148.396 239.079 148.977 238.901 149.488 238.591C149.75 238.431 149.962 238.857 149.702 239.016C149.135 239.355 148.494 239.551 147.835 239.586C147.175 239.621 146.517 239.494 145.917 239.216C145.859 239.195 145.81 239.152 145.782 239.096C145.754 239.04 145.748 238.976 145.766 238.916C145.786 238.856 145.829 238.807 145.885 238.778C145.941 238.75 146.007 238.745 146.066 238.765Z" fill="white"/>
<path d="M182.896 249.701C182.736 249.805 182.575 249.909 182.415 250.018C180.263 251.432 178.23 253.019 176.335 254.762C176.187 254.895 176.038 255.031 175.893 255.168C171.374 259.417 167.682 264.468 165.007 270.064C163.945 272.292 163.053 274.597 162.341 276.96C161.357 280.223 160.55 283.84 158.602 286.509C158.402 286.79 158.185 287.058 157.952 287.312H140.352C140.312 287.292 140.271 287.276 140.231 287.256L139.528 287.288C139.557 287.164 139.589 287.035 139.617 286.911C139.633 286.839 139.653 286.766 139.669 286.694C139.681 286.646 139.693 286.598 139.701 286.554C139.705 286.537 139.709 286.521 139.713 286.509C139.721 286.465 139.733 286.425 139.741 286.385C139.918 285.666 140.1 284.948 140.288 284.229C140.288 284.225 140.288 284.225 140.291 284.221C141.667 278.733 143.689 273.427 146.315 268.414C146.395 268.266 146.475 268.113 146.564 267.965C147.78 265.746 149.175 263.63 150.736 261.638C151.594 260.551 152.507 259.507 153.471 258.511C155.966 255.944 158.849 253.785 162.016 252.113C168.328 248.781 175.636 247.505 182.383 249.54C182.555 249.592 182.724 249.644 182.896 249.701Z" fill="#3A36DB"/>
<path d="M182.862 249.923C174.098 251.663 166.105 256.12 160.018 262.659C158.683 264.044 157.575 265.63 156.733 267.36C155.969 269.071 155.676 270.956 155.886 272.818C156.048 274.559 156.414 276.321 156.149 278.07C156 278.964 155.664 279.816 155.163 280.57C154.661 281.325 154.006 281.965 153.24 282.448C151.362 283.703 149.146 284.208 146.961 284.627C144.535 285.093 142.007 285.537 139.983 287.052C139.737 287.236 139.467 286.844 139.712 286.661C143.234 284.026 147.955 284.579 151.809 282.718C153.607 281.85 155.154 280.435 155.6 278.423C155.989 276.664 155.613 274.847 155.435 273.086C155.203 271.272 155.419 269.429 156.064 267.718C156.814 265.951 157.86 264.325 159.156 262.909C162.023 259.674 165.381 256.91 169.107 254.718C173.346 252.192 177.986 250.41 182.825 249.449C183.125 249.39 183.159 249.864 182.862 249.923L182.862 249.923Z" fill="white"/>
<path d="M161.853 260.438C160.894 259.268 160.382 257.796 160.409 256.284C160.436 254.772 160.999 253.318 161.999 252.183C162.202 251.954 162.568 252.259 162.364 252.488C161.431 253.543 160.906 254.897 160.884 256.305C160.862 257.714 161.344 259.083 162.244 260.167C162.439 260.403 162.047 260.672 161.853 260.438Z" fill="white"/>
<path d="M173.423 252.818C173.699 253.348 174.103 253.801 174.598 254.136C175.094 254.471 175.664 254.678 176.259 254.738C176.564 254.768 176.477 255.236 176.174 255.206C175.517 255.137 174.887 254.907 174.339 254.538C173.792 254.169 173.343 253.671 173.032 253.089C172.998 253.036 172.985 252.973 172.996 252.911C173.007 252.85 173.041 252.795 173.092 252.758C173.144 252.722 173.208 252.708 173.27 252.72C173.331 252.731 173.387 252.766 173.423 252.818Z" fill="white"/>
</g>
<defs>
<clipPath id="clip0_1_852">
<rect width="290" height="288.092" fill="white" transform="matrix(-1 0 0 1 267 0)"/>
</clipPath>
</defs>
</svg>
