<svg width="46" height="34" viewBox="0 0 46 34" fill="none" xmlns="http://www.w3.org/2000/svg">
<path d="M41.2812 0.25C43.5664 0.25 45.5 2.18359 45.5 4.46875C45.5 5.875 44.7969 7.10547 43.7422 7.89648L24.6699 22.2227C23.6152 23.0137 22.2969 23.0137 21.2422 22.2227L2.16992 7.89648C1.11523 7.10547 0.5 5.875 0.5 4.46875C0.5 2.18359 2.3457 0.25 4.71875 0.25H41.2812ZM19.5723 24.5078C21.5938 26.002 24.3184 26.002 26.3398 24.5078L45.5 10.0938V28.375C45.5 31.5391 42.9512 34 39.875 34H6.125C2.96094 34 0.5 31.5391 0.5 28.375V10.0938L19.5723 24.5078Z" fill="#3A36DB"/>
</svg>
