<svg width="29" height="29" viewBox="0 0 29 29" fill="none" xmlns="http://www.w3.org/2000/svg">
<path d="M14.1115 28.223C21.905 28.223 28.223 21.905 28.223 14.1115C28.223 6.31793 21.905 0 14.1115 0C6.31793 0 0 6.31793 0 14.1115C0 21.905 6.31793 28.223 14.1115 28.223Z" fill="#FF7070" fill-opacity="0.2"/>
<path d="M9.71143 19.4971C9.5168 19.2991 9.40771 19.0326 9.40771 18.755C9.40771 18.4774 9.5168 18.2109 9.71143 18.013L16.2592 11.4089H12.5278C12.2493 11.4089 11.9822 11.2982 11.7853 11.1012C11.5884 10.9043 11.4777 10.6372 11.4777 10.3587C11.4777 10.0802 11.5884 9.81309 11.7853 9.61615C11.9822 9.41921 12.2493 9.30859 12.5278 9.30859H18.771C18.9473 9.30855 19.1206 9.35391 19.2743 9.4403H19.2814L19.2943 9.44733L19.3072 9.45559H19.3131L19.3307 9.46736C19.5368 9.60119 19.6896 9.80297 19.7623 10.0377V10.0576V10.0647V10.0812V10.0917V10.1047V10.1176V10.1282V10.1447V10.1529V10.1694V10.1776V10.1952V10.2035V10.2211V10.2293V10.247V10.2976C19.7623 10.2976 19.7623 10.3082 19.7623 10.3129C19.7623 10.3176 19.7623 10.3199 19.7623 10.3234C19.7623 10.3269 19.7623 10.3411 19.7623 10.3493V16.6466C19.767 16.7861 19.7436 16.9252 19.6934 17.0555C19.6433 17.1857 19.5674 17.3046 19.4704 17.4049C19.3733 17.5053 19.2571 17.5851 19.1285 17.6396C19 17.6941 18.8618 17.7222 18.7222 17.7222C18.5826 17.7222 18.4444 17.6941 18.3159 17.6396C18.1873 17.5851 18.0711 17.5053 17.974 17.4049C17.877 17.3046 17.8011 17.1857 17.751 17.0555C17.7008 16.9252 17.6774 16.7861 17.682 16.6466V12.8835L11.1343 19.4877C11.0379 19.5846 10.9233 19.6616 10.7971 19.7141C10.6709 19.7666 10.5355 19.7936 10.3988 19.7936C10.2621 19.7936 10.1267 19.7666 10.0004 19.7141C9.8742 19.6616 9.75959 19.5846 9.6632 19.4877L9.71143 19.4971Z" fill="#FF7070"/>
</svg>
