<svg width="29" height="29" viewBox="0 0 29 29" fill="none" xmlns="http://www.w3.org/2000/svg">
<path d="M14.1115 28.223C21.905 28.223 28.223 21.905 28.223 14.1115C28.223 6.31793 21.905 0 14.1115 0C6.31793 0 0 6.31793 0 14.1115C0 21.905 6.31793 28.223 14.1115 28.223Z" fill="#1AD598" fill-opacity="0.2"/>
<path d="M9.71094 19.4971C9.51631 19.2991 9.40723 19.0326 9.40723 18.755C9.40723 18.4774 9.51631 18.2109 9.71094 18.013L16.2587 11.4089H12.5273C12.2488 11.4089 11.9817 11.2982 11.7848 11.1012C11.5879 10.9043 11.4772 10.6372 11.4772 10.3587C11.4772 10.0802 11.5879 9.81309 11.7848 9.61615C11.9817 9.41921 12.2488 9.30859 12.5273 9.30859H18.7705C18.9468 9.30855 19.1201 9.35391 19.2738 9.4403H19.2809L19.2938 9.44733L19.3068 9.45559H19.3126L19.3303 9.46736C19.5364 9.60119 19.6891 9.80297 19.7618 10.0377V10.0576V10.0647V10.0812V10.0917V10.1047V10.1176V10.1282V10.1447V10.1529V10.1694V10.1776V10.1952V10.2035V10.2211V10.2293V10.247V10.2976C19.7618 10.2976 19.7618 10.3082 19.7618 10.3129C19.7618 10.3176 19.7618 10.3199 19.7618 10.3234C19.7618 10.3269 19.7618 10.3411 19.7618 10.3493V16.6466C19.7665 16.7861 19.7431 16.9252 19.6929 17.0555C19.6428 17.1857 19.5669 17.3046 19.4699 17.4049C19.3728 17.5053 19.2566 17.5851 19.128 17.6396C18.9995 17.6941 18.8613 17.7222 18.7217 17.7222C18.5821 17.7222 18.4439 17.6941 18.3154 17.6396C18.1868 17.5851 18.0706 17.5053 17.9735 17.4049C17.8765 17.3046 17.8006 17.1857 17.7505 17.0555C17.7003 16.9252 17.6769 16.7861 17.6816 16.6466V12.8835L11.1338 19.4877C11.0374 19.5846 10.9228 19.6616 10.7966 19.7141C10.6704 19.7666 10.535 19.7936 10.3983 19.7936C10.2616 19.7936 10.1262 19.7666 9.99994 19.7141C9.87371 19.6616 9.7591 19.5846 9.66271 19.4877L9.71094 19.4971Z" fill="#1AD598"/>
</svg>
