<svg width="22" height="18" viewBox="0 0 22 18" fill="none" xmlns="http://www.w3.org/2000/svg">
<path d="M4 6.50366C4 6.50366 1.4285 7.50366 1 11.0037M18 6.50366C18 6.50366 20.5715 7.50366 21 11.0037M8 6.50366C8 6.50366 10.4 7.08716 11 10.0037C11.6 7.08716 14 6.50366 14 6.50366M9 14.0037C9 14.0037 6.9 14.3787 6 17.0037M13 14.0037C13 14.0037 15.1 14.3787 16 17.0037" stroke="#06152B" stroke-width="1.5" stroke-linecap="round"/>
<path d="M11 15.0039C12.3807 15.0039 13.5 13.8846 13.5 12.5039C13.5 11.1232 12.3807 10.0039 11 10.0039C9.61929 10.0039 8.5 11.1232 8.5 12.5039C8.5 13.8846 9.61929 15.0039 11 15.0039Z" stroke="#06152B" stroke-width="1.5" stroke-linecap="round" stroke-linejoin="round"/>
<path d="M16 7.00391C17.6569 7.00391 19 5.66076 19 4.00391C19 2.34705 17.6569 1.00391 16 1.00391C14.3431 1.00391 13 2.34705 13 4.00391C13 5.66076 14.3431 7.00391 16 7.00391Z" stroke="#06152B" stroke-width="1.5" stroke-linecap="round" stroke-linejoin="round"/>
<path d="M6 7.00391C7.65685 7.00391 9 5.66076 9 4.00391C9 2.34705 7.65685 1.00391 6 1.00391C4.34315 1.00391 3 2.34705 3 4.00391C3 5.66076 4.34315 7.00391 6 7.00391Z" stroke="#06152B" stroke-width="1.5" stroke-linecap="round" stroke-linejoin="round"/>
</svg>
