<svg width="22" height="22" viewBox="0 0 22 22" fill="none" xmlns="http://www.w3.org/2000/svg">
<path d="M4 8.50391C4 8.50391 1.4285 9.50391 1 13.0039M18 8.50391C18 8.50391 20.5715 9.50391 21 13.0039M8 8.50391C8 8.50391 10.4 9.08741 11 12.0039C11.6 9.08741 14 8.50391 14 8.50391M9 16.0039C9 16.0039 6.9 16.3789 6 19.0039M13 16.0039C13 16.0039 15.1 16.3789 16 19.0039" stroke="white" stroke-width="1.5" stroke-linecap="round"/>
<path d="M11 17.0039C12.3807 17.0039 13.5 15.8846 13.5 14.5039C13.5 13.1232 12.3807 12.0039 11 12.0039C9.61929 12.0039 8.5 13.1232 8.5 14.5039C8.5 15.8846 9.61929 17.0039 11 17.0039Z" stroke="white" stroke-width="1.5" stroke-linecap="round" stroke-linejoin="round"/>
<path d="M16 9.00391C17.6569 9.00391 19 7.66076 19 6.00391C19 4.34705 17.6569 3.00391 16 3.00391C14.3431 3.00391 13 4.34705 13 6.00391C13 7.66076 14.3431 9.00391 16 9.00391Z" stroke="white" stroke-width="1.5" stroke-linecap="round" stroke-linejoin="round"/>
<path d="M6 9.00391C7.65685 9.00391 9 7.66076 9 6.00391C9 4.34705 7.65685 3.00391 6 3.00391C4.34315 3.00391 3 4.34705 3 6.00391C3 7.66076 4.34315 9.00391 6 9.00391Z" stroke="white" stroke-width="1.5" stroke-linecap="round" stroke-linejoin="round"/>
</svg>
