<?xml version="1.0" encoding="UTF-8"?>
<!DOCTYPE svg PUBLIC "-//W3C//DTD SVG 1.1//EN" "http://www.w3.org/Graphics/SVG/1.1/DTD/svg11.dtd">
<!-- Creator: CorelDRAW -->
<svg xmlns="http://www.w3.org/2000/svg" xml:space="preserve" width="1.99999in" height="1.99999in" version="1.1" style="shape-rendering:geometricPrecision; text-rendering:geometricPrecision; image-rendering:optimizeQuality; fill-rule:evenodd; clip-rule:evenodd"
viewBox="0 0 2000 2000"
 xmlns:xlink="http://www.w3.org/1999/xlink">
 <defs>
  <style type="text/css">
   <![CDATA[
    .fil0 {fill:#282828}
    .fil1 {fill:#EEB244}
   ]]>
  </style>
 </defs>
 <g id="Layer_x0020_1">
  <metadata id="CorelCorpID_0Corel-Layer"/>
  <path class="fil0" d="M1337 1547l-674 0c-13,0 -24,-11 -24,-24l0 -151c0,-13 11,-23 24,-23l674 0c13,0 24,10 24,23l0 151c0,13 -11,24 -24,24zm-651 -47l628 0 0 -105 -628 0 0 105z"/>
  <path class="fil0" d="M1339 1702l-678 0c-56,0 -101,-45 -101,-101l0 -78c0,-12 10,-23 23,-23l834 0c13,0 23,11 23,23l0 78c0,56 -45,101 -101,101zm-733 -155l0 54c0,30 25,54 55,54l678 0c30,0 55,-24 55,-54l0 -54 -788 0z"/>
  <path class="fil0" d="M470 1282c-73,0 -132,-59 -132,-131 0,-73 59,-132 132,-132 72,0 131,59 131,132 0,72 -59,131 -131,131zm0 -216c-47,0 -85,38 -85,85 0,47 38,85 85,85 47,0 85,-38 85,-85 0,-47 -38,-85 -85,-85z"/>
  <path class="fil0" d="M470 1066c-13,0 -24,-11 -24,-24l0 -87c0,-13 11,-23 24,-23 13,0 23,10 23,23l0 87c0,13 -10,24 -23,24zm0 -304c-13,0 -24,-11 -24,-24l0 -87c0,-13 11,-23 24,-23 13,0 23,10 23,23l0 87c0,13 -10,24 -23,24z"/>
  <path class="fil0" d="M1639 497l-898 0c-13,0 -24,-10 -24,-23 0,-13 11,-24 24,-24l898 0c13,0 23,11 23,24 0,13 -11,23 -23,23z"/>
  <path class="fil0" d="M1493 635l-752 0c-13,0 -24,-11 -24,-24 0,-13 11,-23 24,-23l752 0c13,0 23,10 23,23 0,13 -10,24 -23,24z"/>
  <path class="fil0" d="M1639 801l-898 0c-13,0 -24,-10 -24,-23 0,-13 11,-23 24,-23l898 0c13,0 23,10 23,23 0,13 -11,23 -23,23z"/>
  <path class="fil0" d="M1493 939l-752 0c-13,0 -24,-11 -24,-24 0,-12 11,-23 24,-23l752 0c13,0 23,11 23,23 0,13 -10,24 -23,24z"/>
  <path class="fil0" d="M1639 1105l-898 0c-13,0 -24,-10 -24,-23 0,-13 11,-23 24,-23l898 0c13,0 23,10 23,23 0,13 -11,23 -23,23z"/>
  <path class="fil0" d="M1493 1243l-752 0c-13,0 -24,-11 -24,-23 0,-13 11,-24 24,-24l752 0c13,0 23,11 23,24 0,12 -10,23 -23,23z"/>
  <path class="fil0" d="M1736 1395l-1472 0c-65,0 -117,-52 -117,-117l0 -863c0,-64 52,-117 117,-117l1472 0c65,0 117,53 117,117l0 863c0,65 -52,117 -117,117zm-1472 -1050c-39,0 -71,31 -71,70l0 863c0,39 32,71 71,71l1472 0c39,0 71,-32 71,-71l0 -863c0,-39 -32,-70 -71,-70l-1472 0z"/>
  <path class="fil1" d="M470 978c-73,0 -132,-59 -132,-131 0,-73 59,-132 132,-132 72,0 131,59 131,132 0,72 -59,131 -131,131z"/>
  <path class="fil1" d="M470 674c-73,0 -132,-59 -132,-131 0,-73 59,-132 132,-132 72,0 131,59 131,132 0,72 -59,131 -131,131z"/>
 </g>
</svg>
