<svg width="41" height="40" viewBox="0 0 41 40" fill="none" xmlns="http://www.w3.org/2000/svg">
<path d="M20.3759 40.004C19.2054 40.011 18.0369 39.9076 16.8859 39.695C14.4342 39.2814 12.0822 38.4099 9.95291 37.126C7.84872 35.7995 5.95703 34.1627 4.34191 32.271C2.50501 30.1641 1.20352 27.6452 0.547912 24.928C-0.0825697 22.1906 -0.169885 19.356 0.290912 16.585C0.815564 13.2594 2.2106 10.1318 4.33445 7.51953C6.45831 4.90726 9.2354 2.9033 12.3839 1.711C14.6014 0.808398 16.9437 0.249951 19.3299 0.0549938C19.8409 0.0179938 20.3539 -0.00100593 20.8549 -0.00100593C23.4362 -0.0114578 25.9919 0.511115 28.3619 1.53399C29.1329 1.86899 29.8619 2.25299 30.6379 2.65899L31.2539 2.98099C31.3122 3.01141 31.3633 3.0539 31.4038 3.10563C31.4443 3.15737 31.4733 3.21715 31.4889 3.281C31.5044 3.34227 31.5067 3.40613 31.4956 3.46836C31.4846 3.53059 31.4605 3.58977 31.4249 3.642C29.6579 6.221 29.6689 9.108 29.6779 11.9C29.6779 12.1127 29.6779 12.325 29.6779 12.537L29.3529 12.691L29.3399 12.697L28.7699 12.968H28.7649L28.7449 12.953C27.2915 11.1231 25.3087 9.78636 23.0673 9.12533C20.8258 8.4643 18.435 8.51118 16.2212 9.25958C14.0074 10.008 12.0785 11.4214 10.698 13.3069C9.31742 15.1924 8.55245 17.458 8.50752 19.7945C8.46259 22.1309 9.13988 24.4243 10.4469 26.3615C11.754 28.2987 13.6271 29.7852 15.8104 30.6182C17.9938 31.4511 20.3811 31.5899 22.6463 31.0155C24.9115 30.4412 26.9442 29.1817 28.4669 27.409C29.4786 26.2849 30.2452 24.9625 30.7179 23.526C31.3729 21.4601 31.6145 19.2853 31.4289 17.126C31.3289 15.22 31.3889 13.274 31.4429 11.393C31.4569 10.893 31.4719 10.379 31.4839 9.86999C31.4703 8.45641 31.7679 7.05714 32.3554 5.77139C32.943 4.48564 33.8062 3.34489 34.8839 2.43C36.3302 1.16297 38.1583 0.415396 40.0779 0.305993C40.1469 0.299993 40.2089 0.296994 40.2649 0.296994C40.3425 0.288959 40.4209 0.296593 40.4954 0.31944C40.57 0.342287 40.6392 0.379882 40.6989 0.429994C40.8287 0.603967 40.8855 0.821798 40.8569 1.037C40.8449 4.983 40.7969 8.995 40.7509 12.875V12.88C40.7119 16.168 40.6719 19.568 40.6509 22.915C40.5306 24.3554 40.2817 25.7821 39.9069 27.178C39.0671 29.6423 37.6745 31.8818 35.8359 33.725C34.4618 35.0782 32.9002 36.2267 31.1989 37.135C28.4799 38.7307 25.4354 39.691 22.2929 39.944C21.6289 39.983 20.9849 40.004 20.3759 40.004Z" fill="#3A36DB"/>
</svg>
