<?xml version="1.0" encoding="utf-8"?>
<!-- Generator: Adobe Illustrator 28.0.0, SVG Export Plug-In . SVG Version: 6.00 Build 0)  -->
<svg version="1.1" id="Layer_1" xmlns="http://www.w3.org/2000/svg" xmlns:xlink="http://www.w3.org/1999/xlink" x="0px" y="0px"
	 viewBox="0 0 370 100" style="enable-background:new 0 0 370 100;" xml:space="preserve">
<style type="text/css">
	.st0{clip-path:url(#SVGID_00000024701843338539127840000010174852390460541342_);}
	.st1{fill:#86DA9B;}
	.st2{fill:#0393FF;}
	.st3{fill:#35D8EB;}
</style>
<g>
	<path d="M157.9,5.7V13h-17.7v12.9h17.1v7.3h-17.1v23.3h-7.8V5.7H157.9z M166.7,5.7h7.8v30.6c0,2.7,0.1,6.1,1.6,8.8
		c1.5,2.6,5,5.3,9.4,5.3s7.9-2.7,9.4-5.3c1.5-2.7,1.6-6,1.6-8.8V5.7h7.8v32.7c0,4-0.8,8.9-4.7,13.2c-2.7,2.9-7.2,5.9-14.1,5.9
		s-11.4-3-14.1-5.9c-3.9-4.3-4.7-9.1-4.7-13.2V5.7z M242.3,13h-11.7v43.5h-7.8V13h-11.7V5.7h31.1V13z M249.1,5.7h7.8v30.6
		c0,2.7,0.1,6.1,1.6,8.8c1.5,2.6,4.9,5.3,9.4,5.3c4.5,0,7.9-2.7,9.4-5.3c1.5-2.7,1.6-6,1.6-8.8V5.7h7.8v32.7c0,4-0.8,8.9-4.7,13.2
		c-2.7,2.9-7.2,5.9-14.1,5.9c-6.9,0-11.4-3-14.1-5.9c-3.9-4.3-4.7-9.1-4.7-13.2V5.7z M299,5.7h9.1c6.2,0,10.1,0.8,13.4,3
		c5.6,3.7,6,9.7,6,12c0,7.3-4.5,12.6-11.3,14.2L332,56.5h-9.4l-14.5-20.8h-1.4v20.8H299V5.7z M306.7,12.9V29h2.4
		c2.1,0,10.8-0.2,10.8-8.3c0-7.2-6.8-7.8-10.6-7.8H306.7z M367.7,5.7V13h-20.3v12.9h19.6v7.3h-19.6v16h20.3v7.3h-28V5.7H367.7z"/>
	<path d="M132.8,68.8h1.6l6.4,18.4l6.2-18.4h1.6l-7.7,22.5L132.8,68.8z M180.9,90.5l-2.9-7.1h-9.2l-2.9,7.1h-1.6l9.1-22.3l9,22.3
		H180.9z M169.3,82.1h8.2l-4.1-10.3L169.3,82.1z M201.4,68.8h1.4v20.4h6v1.3h-7.5V68.8z M227.8,68.8h1.4v13.5c0,2,0.1,3.4,0.9,4.7
		c1.3,2,3.6,2.5,5,2.5c1.4,0,3.8-0.5,5-2.5c0.8-1.3,0.9-2.6,0.9-4.7V68.8h1.4v13.5c0,2.4-0.1,3.9-1.2,5.6c-1.6,2.4-4.2,2.9-6.1,2.9
		c-1.9,0-4.5-0.6-6.1-2.9c-1.1-1.6-1.2-3.2-1.2-5.6V68.8z M274.4,68.8v1.3h-9V78h8.8v1.3h-8.8v9.9h9v1.3H264V68.8H274.4z"/>
	<g>
		<defs>
			<rect id="SVGID_1_" x="2.3" y="1.5" width="97" height="97"/>
		</defs>
		<clipPath id="SVGID_00000145772322651809583920000016751413461527818417_">
			<use xlink:href="#SVGID_1_"  style="overflow:visible;"/>
		</clipPath>
		<g style="clip-path:url(#SVGID_00000145772322651809583920000016751413461527818417_);">
			<path class="st1" d="M56,68h39.1c2.3,0,4.2-1.9,4.2-4.2V1.5L56,68z M32.8,68V44.8L3.3,64.1c-1.8,1.2-1,3.9,1.2,3.9H32.8L32.8,68z
				"/>
			<path class="st2" d="M32.9,44.8L99.3,1.5H37.1c-2.3,0-4.2,1.9-4.2,4.2L32.9,44.8 M56,68H32.9v28.4c0,2.1,2.7,2.9,3.9,1.2L56,68z"
				/>
			<path class="st3" d="M32.9,68H56L99.3,1.5L32.9,44.8V68z"/>
		</g>
	</g>
</g>
</svg>
