<svg width="252" height="126" viewBox="0 0 252 126" fill="none" xmlns="http://www.w3.org/2000/svg">
<path d="M22.5132 125.592H0.328125C0.396235 95.8876 11.0595 67.182 30.4003 44.6369C41.9796 30.9952 56.3313 19.9757 72.5004 12.3116C80.7159 8.42533 89.3313 5.44823 98.1934 3.43336C115.53 -0.483898 133.497 -0.70445 150.925 2.78606C166.712 5.96539 181.734 12.1712 195.163 21.0608C215.655 34.5873 231.771 53.7811 241.548 76.3042C244.888 84.0272 247.439 92.0679 249.162 100.304C250.894 108.621 251.782 117.091 251.815 125.587H229.626C229.36 69.7189 183.784 23.4192 128.034 22.3758C127.385 22.4932 126.727 22.5523 126.067 22.5526C123.211 22.5455 120.469 21.4305 118.418 19.4423C116.367 17.4541 115.168 14.7479 115.073 11.8932C114.977 9.03853 115.993 6.2582 117.906 4.13746C119.82 2.01672 122.481 0.721043 125.331 0.523172C108.299 0.599547 91.4623 4.14518 75.8468 10.9438C60.2312 17.7423 46.1645 27.6513 34.5051 40.066C36.6135 38.0805 39.419 37.0054 42.3143 37.0733C45.2096 37.1413 47.9616 38.3468 49.9745 40.429C51.9874 42.5112 53.0992 45.3024 53.0692 48.1984C53.0391 51.0943 51.8696 53.8619 49.8139 55.9019C32.3447 74.9137 22.6066 99.765 22.5088 125.584L22.5132 125.592Z" fill="#99B2C6"/>
</svg>
