<svg width="17" height="26" viewBox="0 0 17 26" fill="none" xmlns="http://www.w3.org/2000/svg">
<path d="M13.7105 4.06934C12.1723 4.06934 10.9211 5.32057 10.9211 6.85881C10.9211 7.94249 11.5434 8.88153 12.4483 9.34319C12.143 10.212 11.5638 10.9524 10.8105 11.4554C10.3085 10.7149 9.46022 10.2272 8.5 10.2272C7.53218 10.2272 6.67863 10.723 6.1782 11.4735C5.41581 10.9734 4.82787 10.2325 4.51706 9.35984C5.44056 8.90471 6.07895 7.95616 6.07895 6.85881C6.07895 6.17661 5.83201 5.55161 5.42391 5.06641C6.19177 4.25401 7.27593 3.74368 8.47944 3.74368C8.66589 3.74368 8.8512 3.76023 9.03513 3.78429L7.60321 5.20997C7.43873 5.37403 7.43791 5.64089 7.60197 5.80577C7.68421 5.88801 7.79235 5.92954 7.90049 5.92954C8.00781 5.92954 8.11554 5.88883 8.19778 5.807L10.2356 3.77781C10.3803 3.63307 10.4005 3.40528 10.2833 3.23793L8.71916 1.00396C8.58594 0.813173 8.32237 0.76712 8.13281 0.900344C7.94202 1.03398 7.89597 1.29631 8.02919 1.48669L9.04297 2.93478C8.85611 2.91422 8.66807 2.90158 8.47944 2.90158C7.02403 2.90158 5.71433 3.5239 4.79168 4.51208C4.35755 4.2332 3.84275 4.06934 3.28947 4.06934C1.75123 4.06934 0.5 5.32057 0.5 6.85881C0.5 8.39705 1.75123 9.64829 3.28947 9.64829C3.43408 9.64829 3.57504 9.63379 3.71379 9.61251C4.0976 10.7114 4.84917 11.6361 5.82239 12.2414C5.7509 12.4879 5.71053 12.7475 5.71053 13.0167C5.71053 14.5549 6.96176 15.8062 8.5 15.8062C10.0382 15.8062 11.2895 14.5549 11.2895 13.0167C11.2895 12.7398 11.2476 12.4727 11.1721 12.2199C12.1302 11.6132 12.8691 10.6949 13.2477 9.60666C13.3986 9.63199 13.5525 9.64829 13.7105 9.64829C15.2488 9.64829 16.5 8.39705 16.5 6.85881C16.5 5.32057 15.2488 4.06934 13.7105 4.06934ZM3.50252 8.7846C3.43161 8.79251 3.36243 8.80618 3.28947 8.80618C2.21587 8.80618 1.34211 7.93242 1.34211 6.85881C1.34211 5.78521 2.21587 4.91145 3.28947 4.91145C3.64487 4.91145 3.97394 5.01424 4.2611 5.18129C4.51164 5.32705 4.73021 5.52092 4.89397 5.759C5.10948 6.07232 5.23684 6.45071 5.23684 6.85881C5.23684 7.5567 4.86451 8.16515 4.31124 8.5091C4.07119 8.65826 3.79675 8.75201 3.50252 8.7846ZM10.4474 13.0167C10.4474 14.0903 9.5736 14.9641 8.5 14.9641C7.4264 14.9641 6.55263 14.0903 6.55263 13.0167C6.55263 12.8861 6.56656 12.7587 6.59123 12.6351C6.64808 12.3505 6.77087 12.0915 6.9374 11.8661C7.29238 11.3855 7.85814 11.0693 8.5 11.0693C9.13649 11.0693 9.69747 11.3808 10.053 11.8546C10.2215 12.079 10.3475 12.3366 10.4065 12.6209C10.433 12.7488 10.4474 12.8811 10.4474 13.0167ZM13.7105 8.80618C13.6238 8.80618 13.5411 8.79159 13.4574 8.78059C13.1635 8.74183 12.8889 8.64366 12.6512 8.48865C12.1179 8.14078 11.7632 7.54143 11.7632 6.85881C11.7632 5.78521 12.6369 4.91145 13.7105 4.91145C14.7841 4.91145 15.6579 5.78521 15.6579 6.85881C15.6579 7.93242 14.7841 8.80618 13.7105 8.80618Z" fill="#3A36DB" stroke="#3A36DB" stroke-width="0.7"/>
<path d="M8.50023 16.7539C5.49406 16.7539 3.04834 19.1996 3.04834 22.2058V24.7539C3.04834 24.9866 3.23666 25.175 3.46939 25.175H13.5311C13.7638 25.175 13.9521 24.9866 13.9521 24.7539V22.2058C13.9521 19.1996 11.5064 16.7539 8.50023 16.7539ZM13.11 24.3329H3.89045V22.2058C3.89045 19.6639 5.95829 17.596 8.50023 17.596C11.0422 17.596 13.11 19.6639 13.11 22.2058V24.3329Z" fill="#3A36DB" stroke="#3A36DB" stroke-width="0.7"/>
</svg>
