<svg width="20" height="16" viewBox="0 0 20 16" fill="none" xmlns="http://www.w3.org/2000/svg">
<path d="M17.8822 0.88158L17.1463 0.145638C16.9383 -0.0623533 16.5543 -0.0303442 16.3143 0.257601L13.7541 2.80157C12.602 2.30562 11.3382 2.06562 10.0101 2.06562C6.05798 2.08156 2.6342 4.38553 0.986083 7.69774C0.890056 7.90573 0.890056 8.16166 0.986083 8.33765C1.75402 9.90567 2.90609 11.2017 4.34609 12.1776L2.2501 14.3056C2.0101 14.5456 1.97809 14.9296 2.13813 15.1376L2.87408 15.8735C3.08207 16.0815 3.46606 16.0495 3.70606 15.7616L17.754 1.71369C18.058 1.47383 18.09 1.08987 17.882 0.881855L17.8822 0.88158ZM10.8581 5.71347C10.5861 5.64945 10.2981 5.56949 10.0261 5.56949C8.66606 5.56949 7.57818 6.65752 7.57818 8.01743C7.57818 8.28943 7.64219 8.57738 7.72215 8.8494L6.65003 9.90544C6.33008 9.34548 6.15409 8.72138 6.15409 8.01746C6.15409 5.88948 7.86611 4.17746 9.99409 4.17746C10.6982 4.17746 11.3221 4.35344 11.8821 4.6734L10.8581 5.71347Z" fill="#666666" fill-opacity="0.8"/>
<path d="M19.0342 7.69792C18.4742 6.57787 17.7381 5.56994 16.8262 4.75391L13.8502 7.69792V8.01787C13.8502 10.1459 12.1382 11.8579 10.0102 11.8579H9.69023L7.80225 13.7459C8.50631 13.8898 9.24225 13.9859 9.96225 13.9859C13.9144 13.9859 17.3382 11.6819 18.9863 8.35374C19.1302 8.12967 19.1302 7.90576 19.0342 7.69775L19.0342 7.69792Z" fill="#666666" fill-opacity="0.8"/>
</svg>
