<svg width="21" height="22" viewBox="0 0 21 22" fill="none" xmlns="http://www.w3.org/2000/svg">
<path d="M1 1.60924C1 1.4487 1.06378 1.29473 1.1773 1.18121C1.29082 1.06768 1.44479 1.00391 1.60534 1.00391H18.5548C18.7153 1.00391 18.8693 1.06768 18.9828 1.18121C19.0963 1.29473 19.1601 1.4487 19.1601 1.60924V15.532C19.1601 15.6115 19.1444 15.6902 19.114 15.7636C19.0836 15.8371 19.039 15.9038 18.9828 15.96C18.9266 16.0162 18.8599 16.0608 18.7864 16.0912C18.713 16.1217 18.6342 16.1373 18.5548 16.1373H14.3779C14.2952 16.1372 14.2132 16.1541 14.1372 16.1869C14.0612 16.2196 13.9927 16.2677 13.936 16.328L10.5209 19.957C10.4643 20.0171 10.396 20.0651 10.3202 20.0979C10.2444 20.1306 10.1626 20.1475 10.08 20.1475C9.99744 20.1475 9.91572 20.1306 9.8399 20.0979C9.76407 20.0651 9.69576 20.0171 9.63916 19.957L6.22405 16.328C6.16735 16.2677 6.09888 16.2196 6.02287 16.1869C5.94686 16.1541 5.86494 16.1372 5.78216 16.1373H1.60534C1.44479 16.1373 1.29082 16.0735 1.1773 15.96C1.06378 15.8465 1 15.6925 1 15.532V1.60924Z" stroke="white" stroke-width="1.8"/>
<path d="M10.0795 5.03906L11.5172 7.63696L14.1151 9.07464L11.5172 10.5123L10.0795 13.1102L8.64185 10.5123L6.04395 9.07464L8.64185 7.63696L10.0795 5.03906Z" stroke="white" stroke-width="1.8" stroke-linecap="round" stroke-linejoin="round"/>
</svg>
