<svg width="58" height="58" viewBox="0 0 58 58" fill="none" xmlns="http://www.w3.org/2000/svg">
<path d="M42 0H16C7.16344 0 0 7.16344 0 16V42C0 50.8366 7.16344 58 16 58H42C50.8366 58 58 50.8366 58 42V16C58 7.16344 50.8366 0 42 0Z" fill="white"/>
<path d="M36.8397 32.6253H39.9626C40.146 32.6112 40.3276 32.6697 40.4681 32.7884C40.6087 32.907 40.6968 33.0762 40.7136 33.2593V33.5233C40.6968 33.7065 40.6087 33.8757 40.4681 33.9943C40.3276 34.1129 40.146 34.1715 39.9626 34.1573H36.8397C36.6563 34.1715 36.4747 34.1129 36.3342 33.9943C36.1936 33.8757 36.1054 33.7065 36.0886 33.5233V33.2593C36.1054 33.0762 36.1936 32.907 36.3342 32.7884C36.4747 32.6697 36.6563 32.6112 36.8397 32.6253ZM30.5916 32.6253H33.7147C33.898 32.6112 34.0796 32.6697 34.2201 32.7884C34.3606 32.907 34.4488 33.0762 34.4656 33.2593V33.5233C34.4488 33.7065 34.3606 33.8757 34.2201 33.9943C34.0796 34.1129 33.898 34.1715 33.7147 34.1573H30.5916C30.4082 34.1715 30.2267 34.1129 30.0862 33.9943C29.9456 33.8757 29.8574 33.7065 29.8406 33.5233V33.2593C29.8574 33.0762 29.9456 32.907 30.0862 32.7884C30.2267 32.6697 30.4082 32.6112 30.5916 32.6253ZM24.3436 32.6253H27.4666C27.6496 32.6117 27.8307 32.6705 27.9708 32.7891C28.1109 32.9077 28.1988 33.0766 28.2156 33.2593V33.5233C28.1988 33.7061 28.1109 33.875 27.9708 33.9936C27.8307 34.1121 27.6496 34.171 27.4666 34.1573H24.3436C24.1603 34.1715 23.9787 34.1129 23.8381 33.9943C23.6976 33.8757 23.6094 33.7065 23.5926 33.5233V33.2593C23.6094 33.0762 23.6976 32.907 23.8381 32.7884C23.9787 32.6697 24.1603 32.6112 24.3436 32.6253ZM18.0956 32.6253H21.2186C21.402 32.6112 21.5836 32.6697 21.7241 32.7884C21.8646 32.907 21.9528 33.0762 21.9696 33.2593V33.5233C21.9528 33.7065 21.8646 33.8757 21.7241 33.9943C21.5836 34.1129 21.402 34.1715 21.2186 34.1573H18.0996C17.9162 34.1715 17.7347 34.1129 17.5942 33.9943C17.4536 33.8757 17.3654 33.7065 17.3486 33.5233V33.2593C17.3654 33.0762 17.4536 32.907 17.5942 32.7884C17.7347 32.6697 17.9162 32.6112 18.0996 32.6253H18.0956ZM18.9256 22.8313H23.0326C23.2509 22.8529 23.452 22.9593 23.5926 23.1276C23.7333 23.2959 23.8022 23.5127 23.7846 23.7313V25.5083C23.8022 25.727 23.7333 25.9437 23.5926 26.1121C23.452 26.2804 23.2509 26.3868 23.0326 26.4083H18.9256C18.7073 26.387 18.506 26.2807 18.3653 26.1123C18.2247 25.944 18.1558 25.727 18.1736 25.5083V23.7313C18.1558 23.5126 18.2247 23.2957 18.3653 23.1273C18.506 22.959 18.7073 22.8526 18.9256 22.8313ZM17.6606 20.1523C17.0017 20.2279 16.3987 20.5591 15.9815 21.0747C15.5643 21.5903 15.3661 22.2491 15.4296 22.9093V35.0803C15.3661 35.7404 15.5643 36.3991 15.9816 36.9146C16.3988 37.43 17.0018 37.761 17.6606 37.8363H40.3996C41.0584 37.7608 41.6612 37.4297 42.0784 36.9143C42.4956 36.3989 42.6939 35.7404 42.6306 35.0803V22.9093C42.6942 22.2491 42.496 21.5903 42.0788 21.0747C41.6616 20.5591 41.0586 20.2279 40.3996 20.1523H17.6606Z" fill="#3A36DB"/>
</svg>
