<svg width="58" height="58" viewBox="0 0 58 58" fill="none" xmlns="http://www.w3.org/2000/svg">
<path d="M42 0H16C7.16344 0 0 7.16344 0 16V42C0 50.8366 7.16344 58 16 58H42C50.8366 58 58 50.8366 58 42V16C58 7.16344 50.8366 0 42 0Z" fill="white"/>
<path d="M33.2634 40.899C33.2634 40.5232 33.3749 40.1559 33.5836 39.8434C33.7924 39.531 34.0891 39.2874 34.4363 39.1436C34.7835 38.9998 35.1655 38.9622 35.5341 39.0355C35.9027 39.1088 36.2412 39.2898 36.5069 39.5555C36.7727 39.8212 36.9536 40.1598 37.0269 40.5283C37.1002 40.8969 37.0626 41.2789 36.9188 41.6261C36.775 41.9733 36.5315 42.27 36.219 42.4788C35.9066 42.6876 35.5392 42.799 35.1634 42.799C34.6595 42.799 34.1763 42.5988 33.8199 42.2425C33.4636 41.8862 33.2634 41.4029 33.2634 40.899ZM25.7054 40.899C25.7054 40.5232 25.8169 40.1559 26.0256 39.8434C26.2344 39.531 26.5312 39.2874 26.8783 39.1436C27.2255 38.9998 27.6076 38.9622 27.9761 39.0355C28.3447 39.1088 28.6832 39.2898 28.9489 39.5555C29.2146 39.8212 29.3956 40.1598 29.4689 40.5283C29.5422 40.8969 29.5046 41.2789 29.3608 41.6261C29.217 41.9733 28.9735 42.27 28.661 42.4788C28.3486 42.6876 27.9812 42.799 27.6054 42.799C27.3558 42.7991 27.1087 42.7501 26.878 42.6547C26.6474 42.5592 26.4378 42.4193 26.2613 42.2429C26.0847 42.0664 25.9447 41.8569 25.8492 41.6263C25.7536 41.3957 25.7044 41.1486 25.7044 40.899H25.7054ZM35.8614 37.73H26.9994C26.1564 37.7083 25.3346 37.4609 24.6198 37.0134C23.9049 36.5659 23.3233 35.9349 22.9354 35.186C22.3443 34.1189 21.9328 32.9617 21.7174 31.761L19.6694 21.093L17.9294 20.479C17.6488 20.3914 17.4073 20.2093 17.2459 19.9636C17.0845 19.718 17.0132 19.4239 17.0442 19.1316C17.0752 18.8393 17.2066 18.5668 17.4159 18.3605C17.6253 18.1541 17.8997 18.0268 18.1924 18L20.9144 18.838C21.1113 18.897 21.2902 19.0048 21.4344 19.1512C21.5786 19.2977 21.6835 19.4782 21.7394 19.676L22.1914 21.056L38.9914 21.043C40.3184 21.043 41.0764 21.326 40.9394 22.755L38.3804 31.455C38.1154 32.555 37.5174 33.508 36.4434 33.508H24.7434C24.9166 33.98 25.2208 34.3927 25.6205 34.6978C26.0201 35.0028 26.4985 35.1874 26.9994 35.23H35.8604C36.1837 35.2393 36.4908 35.3734 36.7173 35.6042C36.9439 35.835 37.0722 36.1446 37.0755 36.468C37.0787 36.7913 36.9566 37.1034 36.7347 37.3387C36.5128 37.574 36.2084 37.7142 35.8854 37.73H35.8614ZM29.2944 25.43L28.8364 29.818C28.8232 29.9218 28.8327 30.0273 28.8642 30.1271C28.8957 30.2269 28.9485 30.3187 29.019 30.3961C29.0895 30.4735 29.1759 30.5347 29.2723 30.5754C29.3687 30.6161 29.4728 30.6354 29.5774 30.632H29.9274C30.1523 30.6294 30.3685 30.5456 30.5364 30.396C30.7042 30.2463 30.8122 30.041 30.8404 29.818L31.3004 25.43C31.3133 25.3261 31.3036 25.2207 31.2719 25.121C31.2402 25.0213 31.1873 24.9296 31.1168 24.8522C31.0463 24.7749 30.9599 24.7137 30.8635 24.6729C30.7671 24.6322 30.663 24.6127 30.5584 24.616H30.2074C29.9831 24.6184 29.7672 24.7016 29.5993 24.8504C29.4314 24.9992 29.3228 25.2036 29.2934 25.426L29.2944 25.43ZM24.2344 25.43L24.6944 29.818C24.7229 30.041 24.8309 30.2461 24.9987 30.3957C25.1665 30.5453 25.3827 30.6292 25.6074 30.632H25.9584C26.0631 30.6354 26.1671 30.6161 26.2636 30.5754C26.36 30.5347 26.4464 30.4735 26.5169 30.3961C26.5874 30.3187 26.6402 30.2269 26.6717 30.1271C26.7032 30.0273 26.7127 29.9218 26.6994 29.818L26.2394 25.43C26.2112 25.2069 26.1032 25.0016 25.9354 24.852C25.7676 24.7024 25.5512 24.6186 25.3264 24.616H24.9754C24.8712 24.6127 24.7674 24.6319 24.6713 24.6724C24.5751 24.7129 24.4889 24.7737 24.4184 24.8506C24.3479 24.9275 24.2949 25.0188 24.263 25.1181C24.2311 25.2174 24.221 25.3224 24.2334 25.426L24.2344 25.43ZM34.6644 25.37L33.4554 29.876C33.4267 29.969 33.4217 30.0677 33.4407 30.1631C33.4597 30.2586 33.5022 30.3478 33.5643 30.4228C33.6264 30.4977 33.7062 30.556 33.7965 30.5923C33.8868 30.6287 33.9847 30.6419 34.0814 30.631H34.4314C34.6603 30.628 34.8826 30.5536 35.0672 30.4183C35.2518 30.2829 35.3897 30.0934 35.4614 29.876L36.6674 25.37C36.6962 25.2772 36.7014 25.1786 36.6824 25.0833C36.6635 24.988 36.621 24.8989 36.559 24.8241C36.4969 24.7493 36.4172 24.6912 36.327 24.6551C36.2368 24.6189 36.139 24.6058 36.0424 24.617H35.6914C35.4636 24.62 35.2424 24.6937 35.0582 24.8279C34.8741 24.962 34.7361 25.1501 34.6634 25.366L34.6644 25.37Z" fill="#0090FF"/>
</svg>
