<svg width="22" height="22" viewBox="0 0 22 22" fill="none" xmlns="http://www.w3.org/2000/svg">
<path d="M10.5127 1.00391C7.00815 1.00391 4.14906 3.863 4.14906 7.36754C4.14906 9.53027 5.24906 11.4439 6.90451 12.5948C3.1727 14.0512 0.512695 17.6875 0.512695 21.913H2.33088C2.33088 17.9148 5.23179 14.573 9.03542 13.873L9.6036 15.5494H11.4218L11.99 13.873C15.7936 14.573 18.6945 17.9148 18.6945 21.913H20.5127C20.5127 17.6875 17.8527 14.0512 14.1209 12.5948C15.7754 11.4439 16.8763 9.53027 16.8763 7.36754C16.8763 3.863 14.0172 1.00391 10.5127 1.00391ZM10.5127 2.82209C13.0336 2.82209 15.0582 4.84663 15.0582 7.36754C15.0582 9.88845 13.0336 11.913 10.5127 11.913C7.99179 11.913 5.96724 9.88845 5.96724 7.36754C5.96724 4.84663 7.99179 2.82209 10.5127 2.82209ZM9.6036 16.4585L8.69451 21.913H12.3309L11.4218 16.4585H9.6036Z" fill="white"/>
</svg>
