<svg width="24" height="27" viewBox="0 0 24 27" fill="none" xmlns="http://www.w3.org/2000/svg">
<g clip-path="url(#clip0_1739_13905)">
<path d="M11.3524 21.7424L9.03664 24.0394C8.33192 24.735 7.38156 25.125 6.39135 25.125C5.40114 25.125 4.45078 24.735 3.74606 24.0394C3.40251 23.6966 3.12994 23.2894 2.94397 22.8411C2.75799 22.3929 2.66226 21.9123 2.66226 21.427C2.66226 20.9417 2.75799 20.4612 2.94397 20.0129C3.12994 19.5646 3.40251 19.1575 3.74606 18.8147L8.16115 14.4373C8.86587 13.7416 9.81623 13.3516 10.8064 13.3516C11.7966 13.3516 12.747 13.7416 13.4517 14.4373C13.9002 14.8828 14.2247 15.4377 14.3931 16.047C14.4857 15.9706 14.5709 15.8855 14.6473 15.7928L15.8617 14.5879C15.5898 14.0219 15.2237 13.5062 14.7791 13.0628C13.7216 12.0166 12.294 11.4297 10.8064 11.4297C9.31883 11.4297 7.89128 12.0166 6.8338 13.0628L2.4093 17.4779C1.88815 17.9951 1.47451 18.6103 1.19224 19.2881C0.909973 19.9659 0.764648 20.6928 0.764648 21.427C0.764648 22.1612 0.909973 22.8882 1.19224 23.566C1.47451 24.2437 1.88815 24.859 2.4093 25.3761C3.46678 26.4224 4.89433 27.0093 6.38194 27.0093C7.86954 27.0093 9.29709 26.4224 10.3546 25.3761L13.7906 21.9683H13.3199C12.657 21.9799 11.9955 21.904 11.3524 21.7424Z" fill="#06152B"/>
<path d="M21.7167 6.20737C20.6592 5.16108 19.2316 4.57422 17.744 4.57422C16.2564 4.57422 14.8289 5.16108 13.7714 6.20737L10.3353 9.61517H10.7966C11.4644 9.61501 12.1292 9.70365 12.7735 9.87876L15.0893 7.58179C15.794 6.88616 16.7444 6.49612 17.7346 6.49612C18.7248 6.49612 19.6752 6.88616 20.3799 7.58179C20.7235 7.92456 20.996 8.33174 21.182 8.78C21.368 9.22827 21.4637 9.70881 21.4637 10.1941C21.4637 10.6794 21.368 11.16 21.182 11.6082C20.996 12.0565 20.7235 12.4637 20.3799 12.8065L15.9648 17.1839C15.2601 17.8795 14.3097 18.2696 13.3195 18.2696C12.3293 18.2696 11.379 17.8795 10.6742 17.1839C10.2258 16.7383 9.90127 16.1835 9.73285 15.5741C9.63862 15.6382 9.5504 15.7106 9.46927 15.7906L8.25488 16.9956C8.52679 17.5616 8.89286 18.0773 9.33747 18.5207C10.395 19.5669 11.8225 20.1538 13.3101 20.1538C14.7977 20.1538 16.2253 19.5669 17.2827 18.5207L21.6978 14.1432C22.2179 13.6254 22.6305 13.01 22.912 12.3323C23.1936 11.6546 23.3385 10.928 23.3385 10.1941C23.3385 9.46027 23.1936 8.73363 22.912 8.05594C22.6305 7.37824 22.2179 6.76283 21.6978 6.24502L21.7167 6.20737Z" fill="#06152B"/>
</g>
<defs>
<clipPath id="clip0_1739_13905">
<rect width="24" height="27" fill="white" transform="translate(0 0.00390625)"/>
</clipPath>
</defs>
</svg>
