<svg width="218" height="70" viewBox="0 0 218 70" fill="none" xmlns="http://www.w3.org/2000/svg">
<path d="M91.3135 14.1747V18.4674H80.9395V26.0243H90.9558V30.317H80.9395V44H76.3785V14.1747H91.3135ZM96.5093 14.1747H101.07V32.1504C101.07 33.7601 101.115 35.7276 102.009 37.2927C102.904 38.813 104.916 40.378 107.554 40.378C110.192 40.378 112.204 38.813 113.099 37.2927C113.993 35.7276 114.038 33.7601 114.038 32.1504V14.1747H118.599V33.3577C118.599 35.7276 118.107 38.5894 115.826 41.0935C114.261 42.7927 111.623 44.5813 107.554 44.5813C103.485 44.5813 100.847 42.7927 99.2816 41.0935C97.0011 38.5894 96.5093 35.7276 96.5093 33.3577V14.1747ZM140.88 18.4674H134.039V44H129.478V18.4674H122.636V14.1747H140.88V18.4674ZM144.893 14.1747H149.454V32.1504C149.454 33.7601 149.499 35.7276 150.393 37.2927C151.287 38.813 153.299 40.378 155.938 40.378C158.576 40.378 160.588 38.813 161.482 37.2927C162.377 35.7276 162.421 33.7601 162.421 32.1504V14.1747H166.982V33.3577C166.982 35.7276 166.491 38.5894 164.21 41.0935C162.645 42.7927 160.007 44.5813 155.938 44.5813C151.869 44.5813 149.23 42.7927 147.665 41.0935C145.385 38.5894 144.893 35.7276 144.893 33.3577V14.1747ZM174.15 14.1747H179.471C183.093 14.1747 185.418 14.6219 187.341 15.9186C190.606 18.1097 190.874 21.6422 190.874 22.939C190.874 27.2317 188.236 30.3617 184.256 31.2561L193.557 44H188.057L179.516 31.7926H178.711V44H174.15V14.1747ZM178.711 18.378V27.8577H180.142C181.394 27.8577 186.492 27.7235 186.492 22.9837C186.492 18.7804 182.512 18.378 180.276 18.378H178.711ZM214.492 14.1747V18.4674H202.597V26.0243H214.134V30.317H202.597V39.7073H214.492V44H198.036V14.1747H214.492Z" fill="black"/>
<path d="M76.591 51.4937H77.5061L81.2428 62.3225L84.8652 51.4937H85.7803L81.2428 64.7247L76.591 51.4937ZM104.812 64.21L103.115 60.0347H97.7003L96.0036 64.21H95.0884L100.446 51.1124L105.727 64.21H104.812ZM98.0054 59.2721H102.81L100.427 53.2476L98.0054 59.2721ZM116.859 51.4937H117.698V63.4474H121.244V64.21H116.859V51.4937ZM132.378 51.4937H133.217V59.4437C133.217 60.6448 133.274 61.4265 133.751 62.1891C134.494 63.3902 135.886 63.6571 136.706 63.6571C137.525 63.6571 138.917 63.3902 139.661 62.1891C140.137 61.4265 140.195 60.6448 140.195 59.4437V51.4937H141.033V59.4437C141.033 60.8355 140.957 61.7506 140.309 62.7038C139.356 64.0956 137.85 64.4197 136.706 64.4197C135.562 64.4197 134.056 64.0956 133.102 62.7038C132.454 61.7506 132.378 60.8355 132.378 59.4437V51.4937ZM159.713 51.4937V52.2563H154.451V56.87H159.599V57.6326H154.451V63.4474H159.713V64.21H153.612V51.4937H159.713Z" fill="black"/>
<g clip-path="url(#clip0_1_280)">
<path d="M31.507 50.7849H54.4593C55.835 50.7849 56.9513 49.6686 56.9513 48.2929V11.7432L31.507 50.7849ZM17.9134 50.7849V37.1895L0.567526 48.4947C-0.47 49.171 0.00841491 50.7849 1.24768 50.7849H17.9154H17.9134Z" fill="#86DA9B"/>
<path d="M17.916 37.1895L56.952 11.7432H20.406C19.0304 11.7432 17.9141 12.8595 17.9141 14.2351V37.1895M31.5076 50.7849H17.9141V67.4487C17.9141 68.688 19.5261 69.1664 20.2043 68.1289L31.5076 50.7849Z" fill="#3A36DB"/>
<path d="M17.9141 50.7849H31.5057L56.95 11.7432L17.9141 37.1895V50.7849Z" fill="#35D8EB"/>
</g>
<defs>
<clipPath id="clip0_1_280">
<rect width="56.9525" height="56.9525" fill="white" transform="translate(0 11.7432)"/>
</clipPath>
</defs>
</svg>
