<svg width="26" height="30" viewBox="0 0 26 30" fill="none" xmlns="http://www.w3.org/2000/svg">
<path d="M17.2161 20.5V15.5C17.1872 13.9063 16.5337 12.3876 15.3965 11.2708C14.2592 10.154 12.729 9.52825 11.135 9.52825C9.54106 9.52825 8.0108 10.154 6.87354 11.2708C5.73627 12.3876 5.08286 13.9063 5.05396 15.5V20.5C5.05492 21.203 4.8678 21.8936 4.51196 22.5H17.759C17.4028 21.8937 17.2154 21.2031 17.2161 20.5ZM21.27 24.5H1C0.734784 24.5 0.480505 24.3946 0.292969 24.2071C0.105432 24.0195 0 23.7652 0 23.5C0 23.2347 0.105432 22.9804 0.292969 22.7929C0.480505 22.6053 0.734784 22.5 1 22.5C1.53398 22.5034 2.0475 22.2947 2.42761 21.9196C2.80772 21.5446 3.02328 21.0339 3.02698 20.5V15.5C3.06041 13.3716 3.92938 11.3418 5.44629 9.84853C6.9632 8.35526 9.00643 7.51831 11.135 7.51831C13.2636 7.51831 15.3068 8.35526 16.8237 9.84853C18.3406 11.3418 19.2096 13.3716 19.243 15.5V20.5C19.2467 21.0339 19.4623 21.5446 19.8424 21.9196C20.2225 22.2947 20.736 22.5034 21.27 22.5C21.5352 22.5 21.7896 22.6053 21.9772 22.7929C22.1647 22.9804 22.27 23.2347 22.27 23.5C22.27 23.7652 22.1647 24.0195 21.9772 24.2071C21.7896 24.3946 21.5352 24.5 21.27 24.5ZM13.765 28C13.4937 28.4556 13.1086 28.8329 12.6476 29.095C12.1865 29.357 11.6653 29.4948 11.135 29.4948C10.6047 29.4948 10.0835 29.357 9.62244 29.095C9.16139 28.8329 8.77634 28.4556 8.505 28C8.41676 27.8471 8.37049 27.6737 8.37097 27.4972C8.37145 27.3207 8.41862 27.1475 8.50769 26.9952C8.59676 26.8428 8.72462 26.7168 8.87817 26.6298C9.03173 26.5428 9.20549 26.498 9.38196 26.5H12.889C13.0654 26.4982 13.2392 26.5431 13.3926 26.6302C13.546 26.7172 13.6736 26.8433 13.7626 26.9956C13.8515 27.1479 13.8986 27.3211 13.899 27.4975C13.8995 27.6738 13.8532 27.8472 13.765 28Z" fill="#809FB8"/>
<path d="M18.916 11.5C21.1252 11.5 22.916 9.70914 22.916 7.5C22.916 5.29086 21.1252 3.5 18.916 3.5C16.7069 3.5 14.916 5.29086 14.916 7.5C14.916 9.70914 16.7069 11.5 18.916 11.5Z" fill="#0090FF"/>
<path d="M18.916 13C21.9536 13 24.416 10.5376 24.416 7.5C24.416 4.46243 21.9536 2 18.916 2C15.8784 2 13.416 4.46243 13.416 7.5C13.416 10.5376 15.8784 13 18.916 13Z" stroke="white" stroke-width="3" stroke-linejoin="round"/>
</svg>
