<svg width="24" height="24" viewBox="0 0 24 24" fill="none" xmlns="http://www.w3.org/2000/svg">
<path d="M6.66818 7.63673C6.56131 8.77673 6.4863 10.7942 7.15943 11.653C7.15943 11.653 6.84255 9.43673 9.68318 6.65611C10.8269 5.53673 11.0913 4.01423 10.6919 2.87236C10.4651 2.22548 10.0507 1.69111 9.69068 1.31798C9.48068 1.09861 9.64193 0.736734 9.94755 0.749859C11.7963 0.832359 14.7926 1.34611 16.0657 4.54111C16.6244 5.94361 16.6657 7.39298 16.3994 8.86673C16.2307 9.80798 15.6307 11.9005 16.9994 12.1574C17.9763 12.3411 18.4488 11.5649 18.6607 11.0061C18.7488 10.7736 19.0544 10.7155 19.2194 10.9011C20.8694 12.778 21.0101 14.9886 20.6688 16.8917C20.0088 20.5705 16.2832 23.248 12.5819 23.248C7.95818 23.248 4.27755 20.6024 3.32318 15.8136C2.9388 13.8805 3.1338 10.0555 6.11505 7.35548C6.3363 7.15298 6.69818 7.33298 6.66818 7.63673Z" fill="url(#paint0_radial_2039_30880)"/>
<path d="M14.2698 14.5165C12.5654 12.3227 13.3285 9.81958 13.7467 8.82208C13.8029 8.69083 13.6529 8.56708 13.5348 8.6477C12.8017 9.14645 11.2998 10.3202 10.6004 11.9721C9.65353 14.2052 9.72103 15.2983 10.2817 16.6333C10.6192 17.4377 10.2273 17.6083 10.0304 17.6383C9.83915 17.6683 9.6629 17.5408 9.52228 17.4077C9.11772 17.0193 8.82943 16.5258 8.68978 15.9827C8.65978 15.8665 8.5079 15.8346 8.43853 15.9302C7.91353 16.6558 7.64165 17.8202 7.62853 18.6433C7.58728 21.1877 9.68915 23.2502 12.2317 23.2502C15.436 23.2502 17.7704 19.7065 15.9292 16.744C15.3948 15.8815 14.8923 15.3171 14.2698 14.5165Z" fill="url(#paint1_radial_2039_30880)"/>
<defs>
<radialGradient id="paint0_radial_2039_30880" cx="0" cy="0" r="1" gradientUnits="userSpaceOnUse" gradientTransform="translate(11.6661 23.3063) rotate(-179.751) scale(13.2352 21.7163)">
<stop offset="0.314" stop-color="#FF9800"/>
<stop offset="0.662" stop-color="#FF6D00"/>
<stop offset="0.972" stop-color="#F44336"/>
</radialGradient>
<radialGradient id="paint1_radial_2039_30880" cx="0" cy="0" r="1" gradientUnits="userSpaceOnUse" gradientTransform="translate(12.4079 10.1362) rotate(90.5787) scale(13.8481 10.4217)">
<stop offset="0.214" stop-color="#FFF176"/>
<stop offset="0.328" stop-color="#FFF27D"/>
<stop offset="0.487" stop-color="#FFF48F"/>
<stop offset="0.672" stop-color="#FFF7AD"/>
<stop offset="0.793" stop-color="#FFF9C4"/>
<stop offset="0.822" stop-color="#FFF8BD" stop-opacity="0.804"/>
<stop offset="0.863" stop-color="#FFF6AB" stop-opacity="0.529"/>
<stop offset="0.91" stop-color="#FFF38D" stop-opacity="0.209"/>
<stop offset="0.941" stop-color="#FFF176" stop-opacity="0"/>
</radialGradient>
</defs>
</svg>
