<svg width="26" height="24" viewBox="0 0 26 24" fill="none" xmlns="http://www.w3.org/2000/svg">
<g clip-path="url(#clip0_3233_18254)">
<path d="M2.24219 21.9052C2.24219 22.1189 2.41561 22.2923 2.62928 22.2923H5.6467C13.0139 22.2923 19.0077 16.2989 19.0077 8.93128V4.86444C19.0077 4.65077 18.8343 4.47735 18.6206 4.47735H17.5337L20.0161 1.73864L22.4986 4.47735H21.4085C21.1948 4.47735 21.0214 4.65077 21.0214 4.86444C21.0214 5.07812 21.1948 5.25154 21.4085 5.25154H23.3719C23.5252 5.25154 23.6637 5.16135 23.7257 5.02122C23.788 4.88109 23.7613 4.71773 23.6587 4.60431L20.3026 0.902895C20.1559 0.740702 19.8756 0.740702 19.7293 0.902895L16.3735 4.6047C16.2706 4.71812 16.2443 4.88148 16.3066 5.02161C16.3685 5.16135 16.5075 5.25193 16.6604 5.25193H18.2335V8.93167C18.2335 15.8719 12.5873 21.5185 5.6467 21.5185H2.62928C2.41561 21.5185 2.24219 21.6915 2.24219 21.9052Z" fill="#3A36DB" stroke="#3A36DB" stroke-width="0.5"/>
<path d="M2.62928 24.0008H23.3715C23.5852 24.0008 23.7586 23.8273 23.7586 23.6137C23.7586 23.4 23.5852 23.2266 23.3715 23.2266H2.62928C2.41561 23.2266 2.24219 23.4 2.24219 23.6137C2.24219 23.8273 2.41561 24.0008 2.62928 24.0008Z" fill="#3A36DB" stroke="#3A36DB" stroke-width="0.5"/>
<path d="M21.0205 6.75428V21.9056C21.0205 22.1193 21.1939 22.2927 21.4076 22.2927C21.6213 22.2927 21.7947 22.1193 21.7947 21.9056V6.75428C21.7947 6.54061 21.6213 6.36719 21.4076 6.36719C21.1939 6.36719 21.0205 6.54061 21.0205 6.75428Z" fill="#3A36DB" stroke="#3A36DB" stroke-width="0.5"/>
<path d="M18.6254 15.0547C18.4117 15.0547 18.2383 15.2281 18.2383 15.4418V21.9063C18.2383 22.12 18.4117 22.2934 18.6254 22.2934C18.8391 22.2934 19.0125 22.12 19.0125 21.9063V15.4418C19.0125 15.2281 18.8391 15.0547 18.6254 15.0547Z" fill="#3A36DB" stroke="#3A36DB" stroke-width="0.5"/>
<path d="M15.4512 19.2621V21.906C15.4512 22.1196 15.6246 22.2931 15.8383 22.2931C16.0519 22.2931 16.2254 22.1196 16.2254 21.906V19.2621C16.2254 19.0484 16.0519 18.875 15.8383 18.875C15.6246 18.875 15.4512 19.0484 15.4512 19.2621Z" fill="#3A36DB" stroke="#3A36DB" stroke-width="0.5"/>
<path d="M12.667 21.4144V21.9061C12.667 22.1197 12.8404 22.2932 13.0541 22.2932C13.2678 22.2932 13.4412 22.1197 13.4412 21.9061V21.4144C13.4412 21.2008 13.2678 21.0273 13.0541 21.0273C12.8404 21.0273 12.667 21.2008 12.667 21.4144Z" fill="#3A36DB" stroke="#3A36DB" stroke-width="0.5"/>
<path d="M6.46722 3.44531C5.57109 3.44531 4.8418 4.1746 4.8418 5.07073V5.87202C4.8418 6.76815 5.57109 7.49744 6.46722 7.49744C7.36335 7.49744 8.09264 6.76815 8.09264 5.87202V5.07073C8.09264 4.1746 7.36373 3.44531 6.46722 3.44531ZM7.31844 5.87202C7.31844 6.34157 6.93676 6.72325 6.46722 6.72325C5.99767 6.72325 5.61599 6.34157 5.61599 5.87202V5.07073C5.61599 4.60118 5.99767 4.21951 6.46722 4.21951C6.93676 4.21951 7.31844 4.60118 7.31844 5.07073V5.87202Z" fill="#3A36DB" stroke="#3A36DB" stroke-width="0.5"/>
<path d="M9.74219 9.56683V10.3681C9.74219 11.2642 10.4711 11.9935 11.3676 11.9935C12.2641 11.9935 12.993 11.2642 12.993 10.3681V9.56683C12.993 8.6707 12.2637 7.94141 11.3676 7.94141C10.4715 7.94141 9.74219 8.6707 9.74219 9.56683ZM12.2188 9.56683V10.3681C12.2188 10.8377 11.8372 11.2193 11.3676 11.2193C10.8981 11.2193 10.5164 10.8377 10.5164 10.3681V9.56683C10.5164 9.09766 10.8981 8.7156 11.3676 8.7156C11.8372 8.7156 12.2188 9.09728 12.2188 9.56683Z" fill="#3A36DB" stroke="#3A36DB" stroke-width="0.5"/>
<path d="M11.6228 3.89251L5.61889 11.0523C5.48147 11.216 5.50276 11.4603 5.66689 11.5977C5.73966 11.6584 5.82792 11.6883 5.91541 11.6883C6.02612 11.6883 6.13566 11.641 6.21231 11.5501L12.2162 4.38993C12.3536 4.22619 12.3323 3.98193 12.1682 3.84451C12.0037 3.7067 11.7602 3.72877 11.6228 3.89251Z" fill="#3A36DB" stroke="#3A36DB" stroke-width="0.5"/>
</g>
<defs>
<clipPath id="clip0_3233_18254">
<rect width="24.7742" height="24" fill="white" transform="translate(0.613281)"/>
</clipPath>
</defs>
</svg>
