<svg width="20" height="21" viewBox="0 0 20 21" fill="none" xmlns="http://www.w3.org/2000/svg">
<path d="M14 10.9111C14 10.5796 14.1317 10.2617 14.3661 10.0272C14.6005 9.79283 14.9185 9.66113 15.25 9.66113C15.5815 9.66113 15.8995 9.79283 16.1339 10.0272C16.3683 10.2617 16.5 10.5796 16.5 10.9111C16.5 11.2427 16.3683 11.5606 16.1339 11.795C15.8995 12.0294 15.5815 12.1611 15.25 12.1611C14.9185 12.1611 14.6005 12.0294 14.3661 11.795C14.1317 11.5606 14 11.2427 14 10.9111ZM9 10.9111C9 10.5796 9.1317 10.2617 9.36612 10.0272C9.60054 9.79283 9.91848 9.66113 10.25 9.66113C10.5815 9.66113 10.8995 9.79283 11.1339 10.0272C11.3683 10.2617 11.5 10.5796 11.5 10.9111C11.5 11.2427 11.3683 11.5606 11.1339 11.795C10.8995 12.0294 10.5815 12.1611 10.25 12.1611C9.91848 12.1611 9.60054 12.0294 9.36612 11.795C9.1317 11.5606 9 11.2427 9 10.9111ZM4 10.9111C4 10.5796 4.1317 10.2617 4.36612 10.0272C4.60054 9.79283 4.91848 9.66113 5.25 9.66113C5.58152 9.66113 5.89946 9.79283 6.13388 10.0272C6.3683 10.2617 6.5 10.5796 6.5 10.9111C6.5 11.2427 6.3683 11.5606 6.13388 11.795C5.89946 12.0294 5.58152 12.1611 5.25 12.1611C4.91848 12.1611 4.60054 12.0294 4.36612 11.795C4.1317 11.5606 4 11.2427 4 10.9111Z" fill="#333333"/>
</svg>
