<svg width="41" height="40" viewBox="0 0 41 40" fill="none" xmlns="http://www.w3.org/2000/svg">
<path d="M34.3959 0.4375C37.472 0.4375 40.0209 2.98633 40.0209 6.0625V34.1875C40.0209 37.3516 37.472 39.8125 34.3959 39.8125H6.27087C3.10681 39.8125 0.645874 37.3516 0.645874 34.1875V6.0625C0.645874 2.98633 3.10681 0.4375 6.27087 0.4375H34.3959ZM31.4955 25.9258C31.6713 25.3105 31.3197 24.6074 30.7045 24.3438L25.9584 22.3223C25.3431 22.0586 24.7279 22.2344 24.3763 22.6738L22.4427 25.0469C19.3666 23.5527 16.9056 21.0918 15.4115 18.0156L17.7845 16.082C18.224 15.7305 18.3998 15.1152 18.1361 14.5L16.1146 9.75391C15.851 9.13867 15.1478 8.78711 14.5326 8.96289L10.1381 9.92969C9.52283 10.1055 9.08337 10.6328 9.08337 11.3359C9.08337 22.4102 18.0482 31.375 29.1224 31.375C29.8256 31.375 30.3529 31.0234 30.4408 30.3203L31.4955 25.9258Z" fill="#3A36DB"/>
</svg>
