<?xml version="1.0" encoding="UTF-8"?>
<!DOCTYPE svg PUBLIC "-//W3C//DTD SVG 1.1//EN" "http://www.w3.org/Graphics/SVG/1.1/DTD/svg11.dtd">
<!-- Creator: CorelDRAW -->
<svg xmlns="http://www.w3.org/2000/svg" xml:space="preserve" width="7.11111in" height="7.11111in" version="1.1" style="shape-rendering:geometricPrecision; text-rendering:geometricPrecision; image-rendering:optimizeQuality; fill-rule:evenodd; clip-rule:evenodd"
viewBox="0 0 7111 7111"
 xmlns:xlink="http://www.w3.org/1999/xlink">
 <defs>
  <style type="text/css">
   <![CDATA[
    .fil0 {fill:black}
   ]]>
  </style>
 </defs>
 <g id="Layer_x0020_1">
  <metadata id="CorelCorpID_0Corel-Layer"/>
  <g id="_668763584">
   <path class="fil0" d="M3556 7109c-18,0 -35,-5 -52,-11l-2989 -1728c-29,-17 -52,-52 -52,-86l0 -3455c0,-35 17,-69 52,-87l1491 -864 1498 -863c29,-18 69,-18 98,0l1497 863 1497 864c29,18 52,52 52,87l0 3455c0,34 -17,69 -52,86l-1497 864 -1497 864c-12,6 -29,11 -46,11zm-2886 -1888l2891 1670 1446 -835 1445 -835 0 -3335 -1451 -841 -1445 -829 -1446 829 -1440 835 0 3341z"/>
   <path class="fil0" d="M2116 5687c-17,0 -35,-6 -52,-12l-1100 -633c-29,-17 -52,-52 -52,-86l0 -1325c0,-57 46,-104 104,-104 58,0 104,47 104,104l0 1261 1048 599c46,29 63,87 34,138 -23,41 -52,58 -86,58z"/>
   <path class="fil0" d="M3504 3625l-950 -548 0 1159c0,90 -85,110 -156,86l-685 -391c-29,-18 -46,-52 -46,-87l0 -1280 -1135 -660c-46,-29 -63,-93 -34,-139 28,-46 92,-63 138,-34l1133 659 2812 -1753c28,-18 69,-23 103,0l674 391c29,17 52,52 52,87 0,34 -17,69 -46,86l-2720 1696 912 527 1445 -835 1480 -858c46,-29 109,-12 138,34 29,46 12,110 -34,139l-1480 858 -1498 863c-45,16 -58,16 -103,0zm-1531 -1123l471 271 2666 -1664 -472 -277 -2665 1670zm379 459l-484 -280 0 1100 484 276 0 -1096z"/>
   <path class="fil0" d="M3556 7109c-58,0 -104,-46 -104,-103l0 -3455c0,-58 46,-104 104,-104 57,0 103,46 103,104l0 3455c0,57 -46,103 -103,103z"/>
   <path class="fil0" d="M4834 5860c-35,0 -69,-18 -86,-52 -29,-46 -12,-109 34,-138l1221 -703 0 -1416c0,-58 46,-104 104,-104 57,0 103,46 103,104l0 1474c0,34 -17,69 -52,86l-1272 737c-17,6 -35,12 -52,12z"/>
   <path class="fil0" d="M2277 1431c-34,0 -69,-17 -86,-52 -29,-46 -12,-109 34,-138l1279 -743c46,-28 109,-11 138,35 29,46 11,109 -35,138l-1284 743c-11,12 -29,17 -46,17z"/>
  </g>
 </g>
</svg>
