<svg width="25" height="21" viewBox="0 0 25 21" fill="none" xmlns="http://www.w3.org/2000/svg">
<path d="M3 21.0039C2.20435 21.0039 1.44129 20.6879 0.878681 20.1252C0.316072 19.5626 0 18.7996 0 18.0039V3.00391C0 2.20826 0.316072 1.44518 0.878681 0.882568C1.44129 0.319959 2.20435 0.00390625 3 0.00390625H22C22.7956 0.00390625 23.5587 0.319959 24.1213 0.882568C24.6839 1.44518 25 2.20826 25 3.00391V18.0039C25 18.7996 24.6839 19.5626 24.1213 20.1252C23.5587 20.6879 22.7956 21.0039 22 21.0039H3ZM22 19.0039C22.2652 19.0039 22.5196 18.8985 22.7071 18.711C22.8946 18.5235 23 18.2691 23 18.0039V11.8039H19.721L17.272 19.0039H22ZM2 3.00391V18.0039C2 18.2691 2.10536 18.5235 2.29289 18.711C2.48043 18.8985 2.73478 19.0039 3 19.0039H14.728L10 5.10388L7.948 11.1329C7.87928 11.3295 7.75089 11.4997 7.58076 11.6198C7.41064 11.7399 7.20725 11.804 6.999 11.8029H3C2.86874 11.8071 2.73797 11.7849 2.61547 11.7375C2.49296 11.6902 2.38123 11.6187 2.28689 11.5273C2.19256 11.436 2.11755 11.3266 2.06632 11.2056C2.0151 11.0847 1.9887 10.9548 1.9887 10.8234C1.9887 10.6921 2.0151 10.5621 2.06632 10.4412C2.11755 10.3202 2.19256 10.2108 2.28689 10.1194C2.38123 10.0281 2.49296 9.95664 2.61547 9.9093C2.73797 9.86197 2.86874 9.83974 3 9.84393H6.28L8.948 2.00391H3C2.73478 2.00391 2.48043 2.10928 2.29289 2.29681C2.10536 2.48435 2 2.73869 2 3.00391ZM16 16.5469L18.052 10.5179C18.1207 10.3213 18.2491 10.1511 18.4192 10.0309C18.5894 9.91083 18.7927 9.84686 19.001 9.8479H23.001V3.00391C23.001 2.73869 22.8956 2.48435 22.7081 2.29681C22.5206 2.10928 22.2662 2.00391 22.001 2.00391H11.052L16 16.5469Z" fill="#06152B"/>
</svg>
