<svg width="21" height="29" viewBox="0 0 21 29" fill="none" xmlns="http://www.w3.org/2000/svg">
<path d="M13.0096 28.017H12.9396H7.00959C5.818 28.045 4.62575 28.0117 3.43759 27.917C2.99782 27.9291 2.56019 27.8515 2.15143 27.6888C1.74268 27.5261 1.37138 27.2818 1.0602 26.9708C0.749021 26.6598 0.504501 26.2887 0.341575 25.88C0.178648 25.4714 0.100735 25.0338 0.11259 24.594C0.0162878 23.4043 -0.0180926 22.2103 0.0095891 21.017V7.01701C-0.0184247 5.82541 0.0149514 4.63314 0.109588 3.44498C0.0971844 3.00522 0.174609 2.56755 0.337127 2.15873C0.499644 1.74991 0.74384 1.37858 1.05478 1.06736C1.36572 0.756138 1.73687 0.511618 2.14555 0.348732C2.55422 0.185846 2.99182 0.108027 3.43159 0.120033C4.62167 0.0237506 5.81594 -0.0106564 7.00959 0.0170059H12.8496C12.8972 0.00903622 12.9453 0.00468992 12.9936 0.00400544C13.0641 0.00299409 13.1345 0.00972018 13.2036 0.024025C13.9747 -0.0418869 14.7503 0.0806247 15.4636 0.38102C16.3125 0.900806 17.0733 1.55227 17.7176 2.31101C18.4774 2.95678 19.1293 3.71973 19.6486 4.57102C19.9478 5.28252 20.0699 6.05592 20.0046 6.82499C20.0286 6.94429 20.0306 7.06696 20.0106 7.18699V21.017C20.0388 22.2093 20.0054 23.4022 19.9106 24.591C19.9224 25.0308 19.8445 25.4684 19.6816 25.8771C19.5187 26.2857 19.2742 26.6568 18.963 26.9678C18.6518 27.2788 18.2805 27.5231 17.8717 27.6858C17.463 27.8484 17.0254 27.9261 16.5856 27.914C15.4464 28.0066 14.3032 28.0401 13.1606 28.014L13.0096 28.017ZM3.65759 2.10398C3.44426 2.06589 3.2249 2.07999 3.01818 2.145C2.81146 2.21 2.62353 2.32401 2.4704 2.47733C2.31727 2.63066 2.20349 2.81875 2.13875 3.02555C2.07401 3.23235 2.06023 3.45174 2.09859 3.66502C2.01559 4.41702 2.00959 5.51701 2.00959 7.01701V21.017C2.00959 22.517 2.01559 23.622 2.09959 24.369C2.06144 24.5823 2.07547 24.8016 2.14048 25.0083C2.20548 25.215 2.31953 25.4029 2.47288 25.556C2.62624 25.7091 2.81436 25.8228 3.02117 25.8874C3.22799 25.952 3.44737 25.9655 3.66059 25.927C4.40659 26.011 5.51559 26.017 7.01059 26.017H13.0106H13.0806C14.5346 26.017 15.6276 26.01 16.3596 25.928C16.5728 25.9661 16.7921 25.9522 16.9988 25.8874C17.2055 25.8225 17.3935 25.7087 17.5467 25.5556C17.7 25.4026 17.814 25.2148 17.8791 25.0082C17.9442 24.8016 17.9584 24.5823 17.9206 24.369C18.0056 23.623 18.0106 22.514 18.0106 21.017V8.01701H13.0096C12.7444 8.01701 12.49 7.91163 12.3025 7.7241C12.1149 7.53656 12.0096 7.28222 12.0096 7.01701V2.01701H7.00959C5.50959 2.01701 4.40359 2.023 3.65759 2.106V2.10398ZM14.0096 6.01701H17.9856C17.9802 5.82609 17.937 5.63816 17.8586 5.46403C17.4084 4.82561 16.886 4.24137 16.3016 3.723C15.7844 3.13959 15.2019 2.61754 14.5656 2.16703C14.3904 2.08841 14.2015 2.04487 14.0096 2.03898V6.01701ZM15.0096 23.017H4.98159C4.85027 23.0152 4.72059 22.9875 4.59997 22.9355C4.47935 22.8836 4.37014 22.8084 4.27858 22.7142C4.18702 22.6201 4.11491 22.5088 4.06635 22.3868C4.0178 22.2647 3.99375 22.1343 3.99559 22.003C3.99743 21.8717 4.02511 21.742 4.07707 21.6214C4.12902 21.5008 4.20422 21.3916 4.29838 21.3C4.39254 21.2085 4.50381 21.1363 4.62584 21.0877C4.74787 21.0392 4.87827 21.0152 5.00959 21.017H15.0386C15.3038 21.019 15.5574 21.1263 15.7435 21.3152C15.9296 21.5042 16.0331 21.7593 16.0311 22.0245C16.0291 22.2897 15.9218 22.5433 15.7329 22.7294C15.544 22.9155 15.2888 23.019 15.0236 23.017H15.0096ZM15.0096 19.017H4.98159C4.85027 19.0152 4.72059 18.9875 4.59997 18.9355C4.47935 18.8836 4.37014 18.8084 4.27858 18.7142C4.18702 18.6201 4.11491 18.5088 4.06635 18.3868C4.0178 18.2647 3.99375 18.1343 3.99559 18.003C3.99743 17.8717 4.02511 17.742 4.07707 17.6214C4.12902 17.5008 4.20422 17.3916 4.29838 17.3C4.39254 17.2085 4.50381 17.1363 4.62584 17.0877C4.74787 17.0392 4.87827 17.0152 5.00959 17.017H15.0386C15.3038 17.0189 15.5574 17.126 15.7436 17.3149C15.9299 17.5037 16.0334 17.7588 16.0316 18.024C16.0297 18.2892 15.9226 18.5428 15.7337 18.729C15.5449 18.9153 15.2898 19.0189 15.0246 19.017H15.0096ZM15.0096 15.017H4.98159C4.85027 15.0152 4.72059 14.9875 4.59997 14.9355C4.47935 14.8836 4.37014 14.8084 4.27858 14.7142C4.18702 14.6201 4.11491 14.5088 4.06635 14.3868C4.0178 14.2647 3.99375 14.1344 3.99559 14.003C3.99743 13.8717 4.02511 13.742 4.07707 13.6214C4.12902 13.5008 4.20422 13.3916 4.29838 13.3C4.39254 13.2085 4.50381 13.1363 4.62584 13.0877C4.74787 13.0392 4.87827 13.0152 5.00959 13.017H15.0386C15.1699 13.0179 15.2998 13.0447 15.4207 13.0958C15.5417 13.1469 15.6514 13.2213 15.7436 13.3149C15.8359 13.4084 15.9087 13.5191 15.9581 13.6408C16.0075 13.7625 16.0325 13.8927 16.0316 14.024C16.0307 14.1553 16.0039 14.2852 15.9528 14.4062C15.9017 14.5271 15.8273 14.6368 15.7337 14.729C15.6402 14.8213 15.5295 14.8942 15.4078 14.9436C15.2861 14.993 15.1559 15.0179 15.0246 15.017H15.0096Z" fill="#06152B"/>
</svg>
