<svg width="13" height="8" viewBox="0 0 13 8" fill="none" xmlns="http://www.w3.org/2000/svg">
<path d="M0.282236 0.292787C0.463006 0.105316 0.708149 0 0.963758 0C1.21937 0 1.46451 0.105316 1.64528 0.292787L6.4169 5.24279L11.1885 0.292787C11.3703 0.110629 11.6138 0.00983372 11.8666 0.0121121C12.1193 0.0143906 12.3611 0.11956 12.5398 0.304968C12.7186 0.490376 12.8199 0.741188 12.8221 1.00339C12.8243 1.26558 12.7272 1.51818 12.5516 1.70679L7.09842 7.36379C6.91765 7.55126 6.67251 7.65657 6.4169 7.65657C6.16129 7.65657 5.91615 7.55126 5.73538 7.36379L0.282236 1.70679C0.10152 1.51926 0 1.26495 0 0.999786C0 0.734622 0.10152 0.480314 0.282236 0.292787Z" fill="#809FB8"/>
</svg>
