<svg width="20" height="20" viewBox="0 0 20 20" fill="none" xmlns="http://www.w3.org/2000/svg">
<path d="M7.56667 17.5039C7.5701 17.378 7.53267 17.2543 7.45996 17.1514C7.38726 17.0485 7.28319 16.9719 7.16333 16.933C7.06585 16.8896 6.95766 16.8761 6.85248 16.8942C6.7473 16.9123 6.64986 16.9612 6.5725 17.0347L6.52333 17.0847C6.29111 17.3169 6.01543 17.5012 5.71202 17.6269C5.40861 17.7526 5.08341 17.8172 4.755 17.8172C4.42659 17.8172 4.1014 17.7526 3.79799 17.6269C3.49457 17.5012 3.21889 17.3169 2.98667 17.0847C2.75445 16.8525 2.57024 16.5768 2.44456 16.2734C2.31888 15.97 2.2542 15.6448 2.2542 15.3164C2.2542 14.988 2.31888 14.6628 2.44456 14.3594C2.57024 14.056 2.75445 13.7803 2.98667 13.5481L3.03 13.5048C3.10344 13.4271 3.15282 13.3299 3.17216 13.2247C3.19151 13.1196 3.17999 13.011 3.139 12.9123C3.09802 12.8136 3.02932 12.7289 2.94121 12.6684C2.8531 12.6079 2.74935 12.5743 2.6425 12.5715H2.5C1.83696 12.5715 1.20108 12.308 0.732234 11.8391C0.263393 11.3703 0 10.7345 0 10.0715C0 9.40841 0.263393 8.77251 0.732234 8.30367C1.20108 7.83483 1.83696 7.57145 2.5 7.57145C2.62584 7.57494 2.74943 7.53759 2.85232 7.46505C2.9552 7.3925 3.03186 7.28863 3.07083 7.16892C3.11427 7.07144 3.12779 6.96323 3.10969 6.85805C3.09159 6.75287 3.04269 6.65547 2.96917 6.5781L2.92 6.52887C2.68773 6.2967 2.50345 6.02109 2.3777 5.71771C2.25196 5.41433 2.18719 5.08919 2.18712 4.76078C2.18704 4.43237 2.25165 4.10709 2.37725 3.80365C2.50286 3.50021 2.687 3.22456 2.91917 2.99229C3.15133 2.76001 3.42698 2.57574 3.73036 2.44999C4.03374 2.32424 4.35892 2.25944 4.68733 2.25936C5.01574 2.25928 5.34095 2.32388 5.64439 2.44948C5.94783 2.57509 6.22356 2.75921 6.45583 2.99137L6.5 3.03471C6.57724 3.11032 6.67537 3.16107 6.78172 3.18038C6.88807 3.19969 6.99777 3.18668 7.09667 3.14305C7.15012 3.11927 7.20601 3.10142 7.26333 3.08974C7.33585 3.04079 7.39537 2.97488 7.43675 2.89779C7.47813 2.82069 7.50012 2.73473 7.50083 2.64724V2.50391C7.50083 1.84087 7.76423 1.20497 8.23307 0.736125C8.70191 0.267284 9.33779 0.00390625 10.0008 0.00390625C10.6639 0.00390625 11.2998 0.267284 11.7686 0.736125C12.2374 1.20497 12.5008 1.84087 12.5008 2.50391V2.57471C12.5013 2.68155 12.5331 2.7859 12.5924 2.8748C12.6516 2.96369 12.7357 3.03329 12.8342 3.07479C12.9317 3.11822 13.0398 3.13175 13.145 3.11365C13.2502 3.09555 13.3476 3.04658 13.425 2.97306L13.4742 2.92393C13.7064 2.69171 13.9821 2.50751 14.2855 2.38184C14.5889 2.25616 14.9141 2.19141 15.2425 2.19141C15.5709 2.19141 15.8961 2.25616 16.1995 2.38184C16.5029 2.50751 16.7786 2.69171 17.0108 2.92393C17.2431 3.15615 17.4273 3.43178 17.5529 3.73519C17.6786 4.0386 17.7433 4.36381 17.7433 4.69222C17.7433 5.02063 17.6786 5.34584 17.5529 5.64925C17.4273 5.95266 17.2431 6.22839 17.0108 6.46061L16.9675 6.50395C16.8919 6.58138 16.8412 6.67956 16.8219 6.78603C16.8026 6.8925 16.8156 7.00234 16.8592 7.10138C16.8826 7.15496 16.9005 7.21087 16.9125 7.26811C16.9615 7.34052 17.0274 7.39991 17.1045 7.44114C17.1816 7.48238 17.2676 7.50417 17.355 7.50472H17.5C18.163 7.50472 18.7989 7.7681 19.2678 8.23694C19.7366 8.70578 20 9.34168 20 10.0047C20 10.6678 19.7366 11.3037 19.2678 11.7725C18.7989 12.2413 18.163 12.5047 17.5 12.5047H17.4283C17.3218 12.5067 17.218 12.5393 17.1296 12.5988C17.0412 12.6583 16.9718 12.742 16.9298 12.84C16.8878 12.938 16.875 13.046 16.8929 13.1511C16.9109 13.2561 16.9587 13.3538 17.0308 13.4323L17.0808 13.4814C17.3131 13.7136 17.4973 13.9893 17.6229 14.2927C17.7486 14.5962 17.8133 14.9214 17.8133 15.2498C17.8133 15.5782 17.7486 15.9033 17.6229 16.2067C17.4973 16.5101 17.3131 16.7858 17.0808 17.0181C16.8486 17.2503 16.5729 17.4345 16.2695 17.5602C15.9661 17.6858 15.6409 17.7506 15.3125 17.7506C14.9841 17.7506 14.6589 17.6858 14.3555 17.5602C14.0521 17.4345 13.7764 17.2503 13.5442 17.0181L13.5008 16.9747C13.4233 16.9009 13.326 16.8513 13.2208 16.8317C13.1155 16.8122 13.0069 16.8235 12.908 16.8646C12.8091 16.9056 12.7243 16.9746 12.6639 17.0629C12.6034 17.1513 12.57 17.2552 12.5675 17.3622V17.5039C12.5675 18.1669 12.3041 18.8028 11.8353 19.2717C11.3664 19.7405 10.7305 20.0039 10.0675 20.0039C9.40446 20.0039 8.76857 19.7405 8.29973 19.2717C7.83089 18.8028 7.5675 18.1669 7.5675 17.5039H7.56667ZM7.7875 15.3881C8.20605 15.543 8.56803 15.8208 8.82603 16.1849C9.08402 16.5491 9.22599 16.9827 9.23333 17.4289V17.5039C9.23333 17.7249 9.32113 17.9369 9.47741 18.0932C9.63369 18.2495 9.84565 18.3372 10.0667 18.3372C10.2877 18.3372 10.4996 18.2495 10.6559 18.0932C10.8122 17.9369 10.9 17.7249 10.9 17.5039V17.358C10.9031 16.9224 11.0343 16.4973 11.2774 16.1357C11.5205 15.7741 11.8646 15.4921 12.2668 15.3247C12.6691 15.1574 13.1117 15.1122 13.5395 15.1947C13.9673 15.2773 14.3614 15.4839 14.6725 15.7889L14.7225 15.8389C14.8 15.9163 14.892 15.9778 14.9932 16.0197C15.0944 16.0617 15.2029 16.0833 15.3125 16.0833C15.4221 16.0833 15.5306 16.0617 15.6318 16.0197C15.733 15.9778 15.825 15.9163 15.9025 15.8389C15.98 15.7614 16.0414 15.6694 16.0834 15.5682C16.1253 15.4669 16.1469 15.3584 16.1469 15.2489C16.1469 15.1393 16.1253 15.0309 16.0834 14.9296C16.0414 14.8284 15.98 14.7364 15.9025 14.659L15.8467 14.6022C15.5385 14.2876 15.3316 13.888 15.2524 13.4548C15.1733 13.0216 15.2255 12.5746 15.4025 12.1714C15.5732 11.7763 15.8555 11.4398 16.2148 11.2029C16.5741 10.9661 16.9947 10.8393 17.425 10.8381H17.5C17.721 10.8381 17.933 10.7503 18.0893 10.594C18.2455 10.4377 18.3333 10.2257 18.3333 10.0047C18.3333 9.78371 18.2455 9.57181 18.0893 9.41553C17.933 9.25925 17.721 9.17139 17.5 9.17139H17.355C16.9243 9.16958 16.5035 9.0419 16.1444 8.80396C15.7853 8.56601 15.5037 8.22825 15.3342 7.83228C15.3042 7.76202 15.2841 7.68797 15.2742 7.61224C15.1378 7.22223 15.1135 6.8018 15.2039 6.39866C15.2944 5.99552 15.4959 5.62575 15.7858 5.33136L15.8358 5.28141C15.9923 5.12493 16.0802 4.9127 16.0802 4.69141C16.0802 4.47011 15.9923 4.25788 15.8358 4.1014C15.6794 3.94492 15.4671 3.85706 15.2458 3.85706C15.0245 3.85706 14.8123 3.94492 14.6558 4.1014L14.5992 4.15806C14.2871 4.46137 13.8927 4.66622 13.4651 4.74715C13.0376 4.82808 12.5956 4.78147 12.1943 4.61318C11.793 4.44489 11.45 4.16241 11.208 3.8007C10.966 3.43899 10.8357 3.01405 10.8333 2.57888V2.50391C10.8333 2.28289 10.7455 2.07089 10.5893 1.91461C10.433 1.75833 10.221 1.67057 10 1.67057C9.77899 1.67057 9.56702 1.75833 9.41074 1.91461C9.25446 2.07089 9.16667 2.28289 9.16667 2.50391V2.64886C9.16491 3.07972 9.03721 3.5007 8.79927 3.8599C8.56133 4.21911 8.22355 4.50088 7.8275 4.67055C7.75726 4.70054 7.68324 4.72075 7.6075 4.73057C7.2174 4.86672 6.79696 4.89083 6.39384 4.80025C5.99071 4.70967 5.62102 4.50803 5.32666 4.21808L5.27667 4.16803C5.12008 4.01155 4.90774 3.92371 4.68637 3.92379C4.465 3.92387 4.25273 4.01195 4.09625 4.16854C3.93977 4.32513 3.85191 4.53738 3.85199 4.75875C3.85206 4.98012 3.94008 5.19238 4.09667 5.34886L4.15333 5.40562C4.45769 5.71336 4.66398 6.10432 4.74615 6.52928C4.82833 6.95423 4.78268 7.39409 4.615 7.79311C4.46005 8.21157 4.18228 8.57336 3.8181 8.83122C3.45392 9.08907 3.02033 9.23095 2.57417 9.23812H2.5C2.27899 9.23812 2.06702 9.32588 1.91074 9.48216C1.75446 9.63844 1.66667 9.85044 1.66667 10.0715C1.66667 10.2925 1.75446 10.5044 1.91074 10.6606C2.06702 10.8169 2.27899 10.9048 2.5 10.9048H2.645C3.08074 10.9077 3.50599 11.0388 3.86769 11.2818C4.2294 11.5248 4.51156 11.8689 4.67899 12.2712C4.84641 12.6735 4.8917 13.1162 4.80919 13.544C4.72667 13.9719 4.52002 14.3661 4.215 14.6773L4.16417 14.7272C4.00769 14.8838 3.91983 15.0962 3.9199 15.3175C3.91998 15.5389 4.008 15.7512 4.16458 15.9076C4.32117 16.0641 4.53351 16.152 4.75488 16.1519C4.97625 16.1518 5.18852 16.0638 5.345 15.9072L5.40167 15.8506C5.81716 15.4449 6.37435 15.2172 6.955 15.2156C7.24149 15.2144 7.52507 15.2732 7.7875 15.3881ZM6.66667 10.0039C6.66667 9.34464 6.86216 8.70016 7.22843 8.152C7.59471 7.60383 8.1153 7.17657 8.72439 6.92428C9.33347 6.67198 10.0037 6.60604 10.6503 6.73466C11.2969 6.86328 11.8909 7.18076 12.357 7.64693C12.8232 8.11311 13.1407 8.70697 13.2693 9.35358C13.3979 10.0002 13.3319 10.6705 13.0796 11.2795C12.8273 11.8886 12.4001 12.4092 11.8519 12.7755C11.3037 13.1418 10.6593 13.3372 10 13.3372C9.11594 13.3372 8.2681 12.986 7.64298 12.3609C7.01786 11.7358 6.66667 10.888 6.66667 10.0039ZM8.33333 10.0039C8.33333 10.3335 8.43108 10.6557 8.61422 10.9298C8.79735 11.2039 9.05765 11.4176 9.3622 11.5437C9.66674 11.6699 10.0019 11.7028 10.3252 11.6385C10.6485 11.5742 10.9454 11.4155 11.1785 11.1824C11.4116 10.9493 11.5703 10.6523 11.6346 10.329C11.699 10.0057 11.6659 9.67063 11.5398 9.36609C11.4136 9.06155 11.2 8.80124 10.9259 8.6181C10.6519 8.43497 10.3296 8.33724 10 8.33724C9.55797 8.33724 9.13405 8.51286 8.82149 8.82542C8.50893 9.13798 8.33333 9.56188 8.33333 10.0039Z" fill="#06152B"/>
</svg>
