<svg width="8" height="12" viewBox="0 0 8 12" fill="none" xmlns="http://www.w3.org/2000/svg">
<path d="M2.84568 6.00242L7.32864 1.69263C7.45208 1.57425 7.51998 1.41597 7.51998 1.2472C7.51998 1.07833 7.45208 0.92014 7.32864 0.801568L6.93582 0.424124C6.81257 0.305365 6.64783 0.239991 6.47226 0.239991C6.2967 0.239991 6.13215 0.305365 6.00881 0.424124L0.671132 5.5553C0.547303 5.67424 0.479495 5.83318 0.479982 6.00214C0.479495 6.17185 0.547206 6.3306 0.671132 6.44964L6.00384 11.5759C6.12718 11.6946 6.29173 11.76 6.46739 11.76C6.64295 11.76 6.80751 11.6946 6.93094 11.5759L7.32367 11.1984C7.57922 10.9527 7.57922 10.5528 7.32367 10.3073L2.84568 6.00242Z" fill="#202020"/>
</svg>
