<?xml version="1.0" encoding="UTF-8"?>
<!DOCTYPE svg PUBLIC "-//W3C//DTD SVG 1.1//EN" "http://www.w3.org/Graphics/SVG/1.1/DTD/svg11.dtd">
<!-- Creator: CorelDRAW -->
<svg xmlns="http://www.w3.org/2000/svg" xml:space="preserve" width="1.70666in" height="1.70666in" version="1.1" style="shape-rendering:geometricPrecision; text-rendering:geometricPrecision; image-rendering:optimizeQuality; fill-rule:evenodd; clip-rule:evenodd"
viewBox="0 0 1707 1707"
 xmlns:xlink="http://www.w3.org/1999/xlink">
 <defs>
  <style type="text/css">
   <![CDATA[
    .fil0 {fill:black}
   ]]>
  </style>
 </defs>
 <g id="Layer_x0020_1">
  <metadata id="CorelCorpID_0Corel-Layer"/>
  <g id="_591021008">
   <g>
    <g>
     <path class="fil0" d="M1571 1705l-1435 0c-75,0 -136,-61 -136,-136l0 -792c0,-75 61,-136 136,-136l165 0c13,0 23,10 23,23 0,13 -10,24 -23,24l-165 0c-49,0 -89,40 -89,89l0 792c0,49 40,89 89,89l1435 0c49,0 89,-40 89,-89l0 -792c0,-49 -40,-89 -89,-89l-165 0c-13,0 -23,-11 -23,-24 0,-13 10,-23 23,-23l165 0c75,0 136,61 136,136l0 792c0,75 -61,136 -136,136z"/>
    </g>
    <g>
     <path class="fil0" d="M851 1451c-88,0 -167,-29 -217,-80l-615 -628c-9,-10 -9,-24 0,-33 9,-9 24,-9 33,0l616 629c40,41 109,65 183,65 1,0 1,0 1,0 79,0 152,-27 196,-72l607 -622c9,-9 23,-9 33,0 9,9 9,23 0,33l-606 622c-53,54 -139,86 -230,86 -1,0 -1,0 -1,0z"/>
    </g>
    <g>
     <path class="fil0" d="M1406 1021c-13,0 -23,-10 -23,-23l0 -731c0,-8 -6,-14 -14,-14l-1031 0c-8,0 -14,6 -14,14l0 730c0,13 -10,24 -23,24 -13,0 -24,-11 -24,-24l0 -730c0,-34 28,-61 61,-61l1031 0c34,0 61,27 61,61l0 731c0,13 -11,23 -24,23z"/>
    </g>
    <g>
     <path class="fil0" d="M1624 701c-6,0 -12,-2 -17,-7l-217 -223c-9,-9 -9,-24 0,-33 9,-9 24,-9 33,0l218 223c9,9 8,24 -1,33 -4,5 -10,7 -16,7zm-1541 0c-6,0 -12,-2 -16,-7 -9,-9 -9,-24 -1,-33l218 -222c9,-9 24,-9 33,0 9,9 9,23 0,33l-217 222c-5,4 -11,7 -17,7zm439 -448c-6,0 -12,-3 -16,-7 -10,-9 -10,-24 -1,-33l129 -132c50,-50 129,-79 217,-79 0,0 0,0 0,0 92,0 178,32 231,86l121 125c9,9 9,24 0,33 -10,9 -24,9 -33,0l-122 -125c-44,-46 -117,-73 -196,-73 -1,0 -1,0 -1,0 -74,0 -143,25 -183,66l-129 132c-5,4 -11,7 -17,7z"/>
    </g>
    <g>
     <g>
      <path class="fil0" d="M1283 715l-859 0c-13,0 -23,-10 -23,-23l0 -337c0,-13 10,-24 23,-24l859 0c13,0 23,11 23,24l0 337c0,13 -10,23 -23,23zm-835 -46l811 0 0 -291 -811 0 0 291z"/>
     </g>
     <g>
      <path class="fil0" d="M1211 865l-715 0c-13,0 -23,-10 -23,-23 0,-13 10,-23 23,-23l715 0c13,0 23,10 23,23 0,13 -10,23 -23,23z"/>
     </g>
     <g>
      <path class="fil0" d="M1211 1017l-715 0c-13,0 -23,-10 -23,-23 0,-13 10,-23 23,-23l715 0c13,0 23,10 23,23 0,13 -10,23 -23,23z"/>
     </g>
     <g>
      <path class="fil0" d="M1085 1170l-463 0c-13,0 -23,-11 -23,-24 0,-13 10,-23 23,-23l463 0c13,0 23,10 23,23 0,13 -10,24 -23,24z"/>
     </g>
     <g>
      <path class="fil0" d="M941 1322l-175 0c-13,0 -23,-11 -23,-24 0,-13 10,-23 23,-23l175 0c13,0 23,10 23,23 0,13 -10,24 -23,24z"/>
     </g>
    </g>
   </g>
  </g>
 </g>
</svg>
