<svg width="24" height="24" viewBox="0 0 24 24" fill="none" xmlns="http://www.w3.org/2000/svg">
<g clip-path="url(#clip0_3233_22950)">
<path d="M19.4999 13.9999C19.7547 14.0001 19.9999 14.0977 20.1852 14.2727C20.3706 14.4477 20.4821 14.6868 20.497 14.9413C20.512 15.1957 20.4292 15.4462 20.2656 15.6417C20.102 15.8371 19.87 15.9628 19.6169 15.9929L19.4999 15.9999H5.91387L8.20687 18.2929C8.38622 18.4728 8.49034 18.7143 8.4981 18.9682C8.50585 19.2222 8.41665 19.4696 8.24862 19.6601C8.08059 19.8507 7.84632 19.9702 7.59339 19.9943C7.34047 20.0184 7.08786 19.9453 6.88687 19.7899L6.79287 19.7069L2.96287 15.8769C2.29787 15.2129 2.72387 14.0939 3.62587 14.0059L3.74087 13.9999H19.4999ZM14.7929 4.29286C14.9651 4.12068 15.1942 4.01725 15.4372 4.00197C15.6802 3.98669 15.9205 4.06061 16.1129 4.20986L16.2069 4.29286L20.0369 8.12286C20.7019 8.78686 20.2759 9.90586 19.3739 9.99386L19.2589 9.99986H3.49987C3.24499 9.99958 2.99984 9.90198 2.8145 9.72701C2.62916 9.55204 2.51763 9.31291 2.5027 9.05847C2.48776 8.80402 2.57054 8.55348 2.73413 8.35803C2.89772 8.16258 3.12977 8.03696 3.38287 8.00686L3.49987 7.99986H17.0859L14.7929 5.70686C14.6054 5.51933 14.5001 5.26503 14.5001 4.99986C14.5001 4.7347 14.6054 4.48039 14.7929 4.29286Z" fill="#3A36DB"/>
</g>
<defs>
<clipPath id="clip0_3233_22950">
<rect width="24" height="24" fill="white"/>
</clipPath>
</defs>
</svg>
