<svg width="359" height="152" viewBox="0 0 359 152" fill="none" xmlns="http://www.w3.org/2000/svg">
<g clip-path="url(#clip0_2039_16459)">
<path d="M109.467 1.40768C114.677 -0.798076 121.209 -0.555527 125.471 3.16384C119.411 4.22867 113.923 7.40195 109.978 12.1222C108.463 13.9482 106.969 16.1367 104.639 16.5896C103.19 16.8714 101.675 16.3864 100.438 15.581C99.2008 14.7756 98.1936 13.6701 97.201 12.5773L96.8555 12.4491C100.187 7.87735 104.257 3.61344 109.467 1.40768Z" fill="#F0F0F0"/>
<path d="M125.407 3.26306C120.821 2.3132 116.052 2.83193 111.778 4.74558C110.851 5.14121 109.991 5.68051 109.232 6.34362C108.513 7.01347 107.986 7.86355 107.707 8.80553C107.429 9.67861 107.246 10.6038 106.761 11.3942C106.506 11.7951 106.17 12.1377 105.774 12.3995C105.378 12.6613 104.931 12.8364 104.462 12.9134C103.299 13.1356 102.126 12.9268 100.986 12.6828C99.7195 12.412 98.4088 12.1105 97.1219 12.4282C96.966 12.4667 96.9153 12.2226 97.071 12.1842C99.31 11.6315 101.476 12.8624 103.716 12.7513C104.761 12.6995 105.797 12.3324 106.424 11.4525C106.971 10.683 107.161 9.72909 107.434 8.84264C107.693 7.91972 108.174 7.07418 108.835 6.3799C109.559 5.68028 110.396 5.10878 111.311 4.68989C113.356 3.71399 115.541 3.06558 117.788 2.76841C120.35 2.41504 122.954 2.50239 125.486 3.02667C125.643 3.05918 125.563 3.29536 125.407 3.26306L125.407 3.26306Z" fill="white"/>
<path d="M113.118 4.04785C112.895 3.28741 112.948 2.4722 113.27 1.74779C113.592 1.02338 114.161 0.436957 114.876 0.0932428C115.021 0.024192 115.135 0.245911 114.99 0.315052C114.324 0.63389 113.794 1.1802 113.495 1.85538C113.197 2.53055 113.15 3.29013 113.363 3.997C113.409 4.15067 113.164 4.20064 113.118 4.04785Z" fill="white"/>
<path d="M107.79 8.34344C109.206 9.13191 110.868 9.35786 112.443 8.97621C112.599 8.93827 112.65 9.18235 112.494 9.22024C110.854 9.61434 109.125 9.3757 107.653 8.55196C107.513 8.47336 107.651 8.26526 107.79 8.34344Z" fill="white"/>
<path d="M120.262 2.73289C120.287 3.04517 120.389 3.34628 120.56 3.60918C120.73 3.87208 120.963 4.08855 121.238 4.23914C121.379 4.31593 121.242 4.52395 121.102 4.44766C120.799 4.27987 120.542 4.04049 120.353 3.75044C120.164 3.46038 120.049 3.12849 120.018 2.78374C120.012 2.75149 120.019 2.7183 120.037 2.69091C120.055 2.66353 120.082 2.644 120.114 2.6363C120.147 2.62973 120.18 2.63619 120.208 2.65427C120.235 2.67236 120.255 2.70062 120.262 2.73289Z" fill="white"/>
<path d="M124.962 22.3071C124.873 22.2616 124.783 22.2162 124.692 22.1717C123.485 21.5669 122.231 21.0612 120.943 20.6594C120.844 20.6267 120.743 20.5951 120.643 20.5654C117.528 19.6304 114.267 19.2817 111.025 19.5368C109.735 19.6395 108.455 19.8401 107.195 20.137C105.456 20.5471 103.603 21.13 101.88 20.9472C101.7 20.9301 101.521 20.9019 101.345 20.8628L96.7265 12.8801C96.7252 12.8567 96.7219 12.8343 96.7205 12.8108L96.5215 12.5005C96.5854 12.4807 96.6521 12.4614 96.716 12.4416C96.753 12.4299 96.791 12.42 96.828 12.4084C96.853 12.4012 96.8781 12.394 96.9002 12.3861C96.9085 12.3837 96.9169 12.3813 96.9234 12.3799C96.9456 12.372 96.967 12.367 96.9873 12.3601C97.3598 12.2517 97.7337 12.1457 98.109 12.0421C98.1108 12.0411 98.1108 12.0411 98.1137 12.0418C100.966 11.2254 103.905 10.7501 106.869 10.6258C106.958 10.6233 107.048 10.6197 107.138 10.6208C108.465 10.5901 109.791 10.6678 111.105 10.8531C111.824 10.9569 112.537 11.097 113.241 11.2729C115.062 11.7308 116.798 12.4721 118.388 13.4695C121.557 15.4584 124.054 18.4381 124.9 22.0319C124.922 22.1238 124.942 22.2141 124.962 22.3071Z" fill="#F0F0F0"/>
<path d="M124.851 22.348C121.761 18.8296 117.641 16.3737 113.076 15.3292C112.097 15.0869 111.086 15.0004 110.08 15.0727C109.103 15.1749 108.171 15.5368 107.38 16.121C106.633 16.6508 105.929 17.2793 105.066 17.6183C104.621 17.7852 104.146 17.8563 103.672 17.8269C103.198 17.7975 102.736 17.6682 102.315 17.4476C101.253 16.9252 100.442 16.0524 99.6782 15.1714C98.8305 14.1931 97.9655 13.1636 96.7466 12.6427C96.5989 12.5796 96.7055 12.3542 96.853 12.4173C98.9736 13.3234 99.9613 15.6096 101.817 16.8693C102.683 17.4571 103.731 17.7875 104.761 17.4618C105.662 17.1769 106.388 16.5294 107.14 15.9863C107.903 15.4052 108.796 15.0195 109.742 14.8631C110.741 14.7397 111.753 14.7872 112.736 15.0035C114.957 15.4551 117.093 16.2528 119.065 17.3676C121.324 18.6274 123.35 20.2642 125.057 22.207C125.162 22.3273 124.956 22.4675 124.851 22.348H124.851Z" fill="white"/>
<path d="M114.565 15.5789C114.845 14.837 115.379 14.2185 116.072 13.8339C116.765 13.4492 117.573 13.3235 118.35 13.4791C118.508 13.5111 118.465 13.7568 118.308 13.7248C117.584 13.5786 116.832 13.6958 116.187 14.0553C115.542 14.4147 115.047 14.9928 114.791 15.6852C114.735 15.8356 114.51 15.7284 114.565 15.5789V15.5789Z" fill="white"/>
<path d="M107.724 15.8021C108.38 17.2839 109.571 18.4642 111.058 19.1077C111.206 19.1713 111.099 19.3967 110.952 19.3331C109.405 18.6607 108.169 17.4299 107.49 15.8863C107.425 15.7392 107.66 15.6557 107.724 15.8021V15.8021Z" fill="white"/>
<path d="M121.061 18.8279C120.893 19.0924 120.793 19.3945 120.771 19.707C120.749 20.0195 120.805 20.3327 120.933 20.6183C121 20.7646 120.765 20.8479 120.699 20.7025C120.558 20.3863 120.497 20.0404 120.521 19.6951C120.544 19.3497 120.652 19.0155 120.835 18.7215C120.85 18.6924 120.876 18.67 120.907 18.6589C120.937 18.6479 120.971 18.649 121.001 18.662C121.031 18.6762 121.054 18.7016 121.065 18.7327C121.076 18.7637 121.075 18.798 121.061 18.8279V18.8279Z" fill="white"/>
<path d="M306.41 147.165H302.322L300.377 131.4L306.411 131.401L306.41 147.165Z" fill="#A0616A"/>
<path d="M307.452 151.128L294.269 151.127V150.961C294.269 149.6 294.809 148.295 295.772 147.334C296.734 146.372 298.039 145.831 299.4 145.831H299.4L307.452 145.831L307.452 151.128Z" fill="#2F2E41"/>
<path d="M338.246 145.396L334.204 146.007L329.923 130.71L335.223 129.809L338.246 145.396Z" fill="#A0616A"/>
<path d="M339.869 149.158L326.834 151.127L326.809 150.962C326.605 149.617 326.945 148.247 327.752 147.152C328.56 146.057 329.77 145.327 331.115 145.124L331.116 145.124L339.077 143.921L339.869 149.158Z" fill="#2F2E41"/>
<path d="M221.622 151.127H99.4492V29.001H221.622V151.127Z" fill="white"/>
<path d="M221.622 151.127H99.4492V29.001H221.622V151.127ZM101.254 149.323H219.817V30.8054H101.254V149.323Z" fill="#F0F0F0"/>
<path d="M202.992 81.502H124.639V84.2668H202.992V81.502Z" fill="#4089ED"/>
<path d="M202.992 88.6904H124.639V91.4553H202.992V88.6904Z" fill="#4089ED"/>
<path d="M202.992 95.8789H124.639V98.6438H202.992V95.8789Z" fill="#4089ED"/>
<path d="M119.883 85.0932C120.88 85.0932 121.688 84.2853 121.688 83.2888C121.688 82.2922 120.88 81.4844 119.883 81.4844C118.886 81.4844 118.078 82.2922 118.078 83.2888C118.078 84.2853 118.886 85.0932 119.883 85.0932Z" fill="#4089ED"/>
<path d="M202.992 50.5264H124.639V53.2912H202.992V50.5264Z" fill="#F0F0F0"/>
<path d="M202.992 57.7148H124.639V60.4797H202.992V57.7148Z" fill="#F0F0F0"/>
<path d="M202.992 64.9033H124.639V67.6682H202.992V64.9033Z" fill="#F0F0F0"/>
<path d="M119.883 53.8168C120.88 53.8168 121.688 53.009 121.688 52.0124C121.688 51.0159 120.88 50.208 119.883 50.208C118.886 50.208 118.078 51.0159 118.078 52.0124C118.078 53.009 118.886 53.8168 119.883 53.8168Z" fill="#F0F0F0"/>
<path d="M202.992 112.777H124.639V115.542H202.992V112.777Z" fill="#F0F0F0"/>
<path d="M202.992 119.967H124.639V122.732H202.992V119.967Z" fill="#F0F0F0"/>
<path d="M202.992 127.155H124.639V129.92H202.992V127.155Z" fill="#F0F0F0"/>
<path d="M119.883 116.069C120.88 116.069 121.688 115.261 121.688 114.264C121.688 113.268 120.88 112.46 119.883 112.46C118.886 112.46 118.078 113.268 118.078 114.264C118.078 115.261 118.886 116.069 119.883 116.069Z" fill="#E5E5E5"/>
<path d="M287.203 102.884H216.117C215.052 102.881 214.189 101.117 214.188 98.9377V46.0734C214.188 43.8949 215.052 42.1306 216.117 42.127H287.203C288.268 42.1297 289.131 43.8944 289.133 46.0734V98.9372C289.131 101.116 288.267 102.881 287.203 102.884Z" fill="white"/>
<path d="M287.203 102.884H216.117C215.052 102.881 214.189 101.117 214.188 98.9377V46.0734C214.188 43.8949 215.052 42.1306 216.117 42.127H287.203C288.268 42.1297 289.131 43.8944 289.133 46.0734V98.9372C289.131 101.116 288.267 102.881 287.203 102.884ZM216.117 43.7054C215.478 43.7054 214.96 44.7663 214.959 46.0733V98.9372C214.959 100.244 215.478 101.304 216.117 101.305H287.203C287.842 101.305 288.36 100.245 288.361 98.9372V46.0734C288.361 44.7664 287.842 43.7068 287.203 43.7054L216.117 43.7054Z" fill="#E6E6E6"/>
<path d="M261.285 85.2305H242.15V86.6681H261.285V85.2305Z" fill="#4089ED"/>
<path d="M263.671 88.9658H239.59V90.4035H263.671V88.9658Z" fill="#4089ED"/>
<path d="M264.154 67.0956C264.153 69.2564 263.592 71.38 262.525 73.259C261.458 75.1381 259.921 76.7084 258.066 77.8166C256.21 78.9247 254.099 79.5329 251.938 79.5816C249.777 79.6303 247.64 79.118 245.736 78.0946L245.734 78.0921C243.789 77.0449 242.157 75.5011 241.004 73.618C239.85 71.7349 239.217 69.5799 239.168 67.3724C239.119 65.1649 239.657 62.984 240.726 61.0518C241.795 59.1196 243.357 57.5052 245.253 56.3731C247.15 55.241 249.313 54.6317 251.521 54.6072C253.73 54.5827 255.906 55.144 257.827 56.2338C259.748 57.3236 261.345 58.903 262.457 60.8111C263.568 62.7191 264.154 64.8876 264.154 67.0956Z" fill="#CACACA"/>
<path d="M251.725 66.4894C253.6 66.4894 255.121 64.9694 255.121 63.0943C255.121 61.2193 253.6 59.6992 251.725 59.6992C249.849 59.6992 248.328 61.2193 248.328 63.0943C248.328 64.9694 249.849 66.4894 251.725 66.4894Z" fill="white"/>
<path d="M257.523 73.5038C253.726 74.836 249.586 74.82 245.799 73.4584L245.797 73.4567L248.327 68.4639H255.12L257.523 73.5038Z" fill="white"/>
<path d="M201.578 121.787H254.917V98.4082H254.096V120.966H201.578V121.787Z" fill="#3F3D56"/>
<path d="M254.506 106.708C256.999 106.708 259.02 104.688 259.02 102.196C259.02 99.7045 256.999 97.6846 254.506 97.6846C252.014 97.6846 249.993 99.7045 249.993 102.196C249.993 104.688 252.014 106.708 254.506 106.708Z" fill="#3F3D56"/>
<path d="M102.95 70.5081H31.8641C30.7991 70.5054 29.9359 68.7407 29.9346 66.5617V13.6974C29.9346 11.5189 30.7991 9.7546 31.8641 9.75098H102.95C104.015 9.75369 104.878 11.5184 104.88 13.6974V66.5613C104.878 68.7398 104.014 70.5054 102.95 70.5081Z" fill="white"/>
<path d="M102.95 70.5081H31.8641C30.7991 70.5054 29.9359 68.7407 29.9346 66.5617V13.6974C29.9346 11.5189 30.7991 9.7546 31.8641 9.75098H102.95C104.015 9.75369 104.878 11.5184 104.88 13.6974V66.5613C104.878 68.7398 104.014 70.5054 102.95 70.5081ZM31.8641 11.3294C31.2249 11.3294 30.7071 12.3904 30.7062 13.6973V66.5613C30.7062 67.8683 31.2248 68.9278 31.8641 68.9292H102.95C103.589 68.9292 104.107 67.8687 104.108 66.5613V13.6974C104.108 12.3904 103.589 11.3308 102.95 11.3295L31.8641 11.3294Z" fill="#E6E6E6"/>
<path d="M83.1884 26.266C80.0252 22.9088 75.6706 20.9261 71.0605 20.7441V38.3893L83.1884 26.266Z" fill="#3F3D56"/>
<path d="M83.1884 28.4619L71.0605 40.5852H88.0095C88.0155 36.0759 86.2898 31.7364 83.1884 28.4619Z" fill="#E4E4E4"/>
<path d="M88.0271 41.8535C88.0278 42.9533 87.926 44.0508 87.723 45.1317C87.7073 45.2173 87.6907 45.302 87.6732 45.3867C87.2905 47.2722 86.5997 49.0818 85.6285 50.7429C85.5769 50.832 85.5236 50.921 85.4703 51.0084V51.0093C84.5132 52.5836 83.3162 53.999 81.9227 55.2046C81.8536 55.2648 81.7846 55.3242 81.7147 55.3827C78.7199 57.9014 74.9704 59.3497 71.0596 59.4985V41.8535H88.0271Z" fill="#F0F0F0"/>
<path d="M69.3454 59.5144C69.58 59.5144 69.8132 59.5084 70.0456 59.4993V41.8535L57.208 54.6863C60.4847 57.792 64.8299 59.5204 69.3454 59.5144Z" fill="#CACACA"/>
<path d="M69.3707 22.9248C67.0505 22.9248 64.7531 23.3816 62.6096 24.2692C60.4661 25.1567 58.5184 26.4576 56.8778 28.0976C55.2372 29.7375 53.9359 31.6844 53.048 33.8272C52.1601 35.9699 51.7031 38.2664 51.7031 40.5857H70.0892V22.9405C69.8507 22.931 69.6115 22.9248 69.3707 22.9248Z" fill="#4089ED"/>
<path d="M65.1544 41.8535L61.4398 45.5666L61.3184 45.6881L61.3157 45.6907L58.0766 48.9278L57.9534 49.0509L54.4538 52.5492L54.3305 52.6724V52.6732L52.3164 54.6857C50.5676 53.0371 49.1747 51.0482 48.2236 48.8414C47.2726 46.6345 46.7834 44.2564 46.7861 41.8535H65.1544Z" fill="#F28F8F"/>
<path d="M124.843 90.1303H71.5049V66.752H72.3254V89.3098H124.843V90.1303Z" fill="#3F3D56"/>
<path d="M71.9146 75.0514C74.4072 75.0514 76.4279 73.0315 76.4279 70.5399C76.4279 68.0482 74.4072 66.0283 71.9146 66.0283C69.422 66.0283 67.4014 68.0482 67.4014 70.5399C67.4014 73.0315 69.422 75.0514 71.9146 75.0514Z" fill="#3F3D56"/>
<path d="M325.64 69.0391L321.1 70.2281L321.402 77.5856L321.439 90.9813C320.992 91.2905 320.649 91.7282 320.456 92.2364C320.263 92.7446 320.229 93.2994 320.358 93.8275C320.488 94.3555 320.774 94.8319 321.18 95.1935C321.586 95.5552 322.092 95.7851 322.632 95.8529C323.172 95.9207 323.719 95.8231 324.202 95.5731C324.685 95.3231 325.08 94.9324 325.336 94.4528C325.592 93.9731 325.697 93.4271 325.635 92.8869C325.574 92.3468 325.35 91.8379 324.994 91.4277L326.389 77.9829L325.64 69.0391Z" fill="#A0616A"/>
<path d="M326.91 73.4625L320.274 71.2287L320.259 71.1288C320.249 71.066 319.275 64.7835 319.287 60.4734C319.274 59.9933 319.366 59.516 319.556 59.075C319.746 58.6339 320.03 58.2396 320.389 57.9196C320.887 57.465 321.507 57.1657 322.174 57.0586C322.84 56.9515 323.523 57.0412 324.139 57.3167C324.797 57.5879 325.363 58.0428 325.769 58.627C326.175 59.2112 326.405 59.9 326.43 60.6111L326.91 73.4625Z" fill="#E4E4E4"/>
<path d="M314.564 72.8469L304.415 70.2207L299.723 86.0154L299.557 144.857L307.318 144.808L310.562 97.1836L331.24 141.19L339.577 140.189L321.401 93.0163C321.401 93.0163 322.402 84.6819 319.233 80.5146L319.9 76.1807L314.564 72.8469Z" fill="#2F2E41"/>
<path d="M320.202 77.3474L319.434 77.3354L303.837 71.1034L311.299 54.4904L314.841 55.1341L314.196 52.5553L322.024 50.6426L323.386 56.0883L325.396 57.9144C325.902 58.3748 326.264 58.9721 326.437 59.6339C326.61 60.2957 326.587 60.9934 326.371 61.6424L321.741 75.5259C321.779 75.7497 321.768 75.9791 321.708 76.198C321.648 76.417 321.541 76.6204 321.395 76.7938C321.248 76.9672 321.066 77.1066 320.86 77.2022C320.654 77.2979 320.429 77.3474 320.202 77.3474L320.202 77.3474Z" fill="#E4E4E4"/>
<path d="M308.472 64.9075L304.369 62.6309L299.501 68.1575L290.267 77.8658C289.73 77.7804 289.18 77.8599 288.689 78.0939C288.198 78.3279 287.79 78.7054 287.518 79.1764C287.246 79.6473 287.124 80.1896 287.168 80.7315C287.211 81.2734 287.418 81.7893 287.761 82.2111C288.105 82.6328 288.568 82.9404 289.09 83.0933C289.611 83.2462 290.167 83.2371 290.684 83.0672C291.201 82.8973 291.653 82.5747 291.983 82.142C292.312 81.7092 292.502 81.1868 292.527 80.6438L302.83 71.8895L308.472 64.9075Z" fill="#A0616A"/>
<path d="M306.332 68.9823L303.08 62.784L303.138 62.701C303.174 62.6489 306.814 57.4353 309.802 54.3283C310.124 53.9721 310.52 53.6904 310.963 53.503C311.405 53.3156 311.883 53.2269 312.363 53.2431C313.038 53.259 313.693 53.4714 314.249 53.8542C314.804 54.237 315.236 54.7735 315.491 55.398C315.779 56.0485 315.874 56.7682 315.763 57.4711C315.653 58.174 315.343 58.8302 314.869 59.3614L306.332 68.9823Z" fill="#E4E4E4"/>
<path d="M316.232 49.6296C319.667 49.6296 322.452 46.8461 322.452 43.4125C322.452 39.9788 319.667 37.1953 316.232 37.1953C312.797 37.1953 310.013 39.9788 310.013 43.4125C310.013 46.8461 312.797 49.6296 316.232 49.6296Z" fill="#A0616A"/>
<path d="M308.749 39.767C309.795 37.8953 310.195 37.1134 311.544 35.9753C312.736 34.9687 314.203 34.6731 315.386 35.6268C316.786 35.0223 318.343 34.8853 319.827 35.236C321.31 35.5867 322.641 36.4065 323.622 37.5736C324.602 38.7407 325.18 40.1928 325.269 41.7143C325.359 43.2357 324.954 44.7454 324.117 46.0189C323.279 47.2925 322.053 48.262 320.621 48.7835C319.188 49.3051 317.625 49.3507 316.165 48.9138C314.704 48.4768 313.423 47.5805 312.513 46.358C311.603 45.1355 311.111 43.6521 311.111 42.128C311.112 41.8604 311.128 41.593 311.159 41.3272C310.131 41.1828 309.777 39.9113 308.749 39.767Z" fill="#2F2E41"/>
<path d="M33.6797 94.1171C33.9725 93.9412 34.2231 93.7033 34.4139 93.4201C34.6048 93.1369 34.7312 92.8153 34.7842 92.478C34.8373 92.1407 34.8157 91.7958 34.721 91.4678C34.6263 91.1397 34.4608 90.8364 34.2361 90.5792L37.2724 60.1221L32.2025 60.4584L30.7979 90.4494C30.3907 90.8553 30.1465 91.3964 30.1117 91.9702C30.0769 92.544 30.2539 93.1107 30.6091 93.5628C30.9643 94.0148 31.4731 94.321 32.0391 94.4231C32.605 94.5253 33.1888 94.4164 33.6797 94.1171V94.1171Z" fill="#FFB8B8"/>
<path d="M30.1494 58.9945L31.4786 69.0931L31.2941 75.2824L36.8702 75.7927L37.9878 70.645L38.6035 57.017C38.6499 55.9891 38.3049 54.9818 37.6379 54.1982C36.9709 53.4145 36.0315 52.9127 35.0091 52.7938C33.9483 52.6705 32.8816 52.9691 32.0391 53.6251C31.1967 54.2811 30.646 55.2419 30.5059 56.3002L30.1494 58.9945Z" fill="#2F2E41"/>
<path d="M51.5046 147.849H54.887L56.496 134.808H51.5039L51.5046 147.849Z" fill="#FFB7B7"/>
<path d="M50.6416 146.745L57.303 146.745H57.3032C58.4291 146.745 59.5088 147.192 60.3049 147.988C61.101 148.784 61.5483 149.863 61.5484 150.989V151.126L50.6418 151.127L50.6416 146.745Z" fill="#2F2E41"/>
<path d="M23.5749 147.849H26.9574L28.5663 134.808H23.5742L23.5749 147.849Z" fill="#FFB7B7"/>
<path d="M22.7109 146.745L29.3723 146.745H29.3726C30.4984 146.745 31.5781 147.192 32.3742 147.988C33.1703 148.784 33.6176 149.863 33.6177 150.989V151.126L22.7111 151.127L22.7109 146.745Z" fill="#2F2E41"/>
<path d="M36.7271 47.9936C40.7773 47.9936 44.0607 44.7115 44.0607 40.6628C44.0607 36.6141 40.7773 33.332 36.7271 33.332C32.6769 33.332 29.3936 36.6141 29.3936 40.6628C29.3936 44.7115 32.6769 47.9936 36.7271 47.9936Z" fill="#FFB8B8"/>
<path d="M37.6748 50.9697L32.5854 51.5511C31.3479 53.3056 30.5454 55.3291 30.2443 57.4546C29.9432 59.5801 30.1521 61.7468 30.8537 63.7757L34.6939 74.8806C34.6939 74.8806 29.3631 85.5633 29.3631 95.4817C29.3631 105.4 19.2109 140.804 19.2109 140.804L33.5011 142.294L39.7364 104.579L48.3289 142.142L58.1381 140.546L52.7354 91.2965L49.1654 75.0865L49.0133 67.1813C49.0133 67.1813 50.5313 61.2496 46.7321 57.4518L42.0936 50.9909L37.6748 50.9697Z" fill="#2F2E41"/>
<path d="M73.553 77.0841C73.5381 76.7103 73.4414 76.3443 73.2697 76.0118C73.098 75.6794 72.8555 75.3887 72.5593 75.1601C72.263 74.9315 71.9202 74.7706 71.555 74.6888C71.1898 74.6069 70.8111 74.6061 70.4456 74.6864L42.7708 55.7295L40.4238 60.7759L68.51 77.9202C68.6856 78.5251 69.0772 79.0446 69.6104 79.3802C70.1436 79.7158 70.7814 79.8443 71.403 79.7412C72.0246 79.6382 72.5868 79.3107 72.9831 78.821C73.3793 78.3313 73.5821 77.7133 73.553 77.0841H73.553Z" fill="#FFB8B8"/>
<path d="M37.9337 61.9772L48.34 66.0192L54.1916 69.4561L57.6189 64.3694L53.2598 60.585L40.4855 52.8162C39.522 52.2302 38.3721 52.0311 37.2676 52.259C36.1631 52.4869 35.186 53.1248 34.5333 54.0442C33.8562 54.998 33.5813 56.1798 33.7681 57.3344C33.9549 58.489 34.5884 59.5239 35.5318 60.2158L37.9337 61.9772Z" fill="#2F2E41"/>
<path d="M45.2755 38.0444H34.499V33.3488C36.8643 32.4094 39.1789 31.6106 40.578 33.3488C41.8239 33.3488 43.0187 33.8435 43.8996 34.7241C44.7805 35.6047 45.2755 36.799 45.2755 38.0444V38.0444Z" fill="#2F2E41"/>
<path d="M36.4223 32.8799C29.98 32.9084 28.1768 40.9521 28.1768 45.5061C28.1768 48.0457 29.3258 48.9541 31.1313 49.2615L31.7689 45.862L33.2624 49.4077C33.7695 49.4103 34.3023 49.4005 34.8547 49.3902L35.3611 48.348L36.4902 49.3715C41.0126 49.3782 47.5846 48.9746 44.6678 45.5061C40.7604 40.8596 42.0377 32.8551 36.4223 32.8799Z" fill="#2F2E41"/>
<path d="M331.72 58.1582C331.435 57.0802 331.392 55.9527 331.595 54.8564C331.896 52.7391 332.572 50.6966 333.19 48.6494C333.808 46.6022 334.375 44.5146 334.447 42.3774C334.518 40.2401 334.054 38.0245 332.779 36.3073C331.505 34.5901 329.331 33.4648 327.216 33.7877C325.196 34.0962 323.431 35.9181 323.421 37.9395C323.059 38.5937 323.526 39.4871 324.192 39.8751C324.89 40.2822 325.731 40.3362 326.505 40.5676C327.265 40.8133 327.966 41.2132 328.564 41.7423C329.162 42.2714 329.644 42.9183 329.98 43.6424C330.644 45.1043 330.821 46.7407 330.484 48.3105C330.179 49.8318 329.478 51.2395 328.952 52.6993C328.427 54.159 328.075 55.7618 328.498 57.2547C328.848 58.3573 329.586 59.296 330.574 59.898C331.562 60.5 332.735 60.7247 333.876 60.5306C333.355 60.3325 332.889 60.0144 332.514 59.6022C332.139 59.19 331.867 58.6952 331.72 58.1582Z" fill="#2F2E41"/>
<path d="M358.43 151.31H0.359869C0.264426 151.31 0.172892 151.272 0.105403 151.205C0.0379144 151.137 0 151.046 0 150.951C0 150.855 0.0379144 150.764 0.105403 150.696C0.172892 150.629 0.264426 150.591 0.359869 150.591H358.43C358.525 150.591 358.617 150.629 358.684 150.696C358.752 150.764 358.79 150.855 358.79 150.951C358.79 151.046 358.752 151.137 358.684 151.205C358.617 151.272 358.525 151.31 358.43 151.31Z" fill="#CACACA"/>
<path d="M276.726 133.821C276.028 128.208 272.548 122.678 267.193 120.852C269.305 126.629 269.304 132.966 267.192 138.743C266.369 140.968 265.222 143.357 265.996 145.6C266.477 146.995 267.655 148.062 268.972 148.73C270.289 149.397 271.751 149.716 273.194 150.027L273.478 150.262C275.769 145.091 277.424 139.434 276.726 133.821Z" fill="#F0F0F0"/>
<path d="M267.141 120.959C270.259 124.451 272.197 128.838 272.68 133.494C272.802 134.495 272.765 135.509 272.571 136.498C272.351 137.455 271.878 138.336 271.202 139.049C270.585 139.727 269.876 140.349 269.434 141.164C269.214 141.585 269.086 142.048 269.058 142.522C269.029 142.996 269.102 143.47 269.27 143.914C269.659 145.032 270.427 145.943 271.21 146.807C272.078 147.767 272.995 148.75 273.364 150.023C273.409 150.177 273.646 150.099 273.601 149.945C272.959 147.731 270.809 146.473 269.783 144.479C269.305 143.548 269.104 142.468 269.553 141.486C269.945 140.627 270.676 139.985 271.307 139.304C271.976 138.618 272.468 137.779 272.738 136.859C272.982 135.883 273.058 134.872 272.962 133.871C272.783 131.613 272.251 129.397 271.383 127.304C270.407 124.91 269.028 122.701 267.306 120.772C267.199 120.652 267.035 120.84 267.141 120.959H267.141Z" fill="white"/>
<path d="M272.612 131.986C273.383 131.799 274.062 131.344 274.528 130.703C274.994 130.061 275.217 129.275 275.157 128.485C275.144 128.325 274.895 128.337 274.908 128.497C274.965 129.233 274.757 129.966 274.322 130.562C273.887 131.158 273.253 131.579 272.534 131.749C272.378 131.786 272.457 132.023 272.612 131.986V131.986Z" fill="white"/>
<path d="M271.559 138.746C270.168 137.916 269.14 136.591 268.682 135.037C268.637 134.883 268.4 134.961 268.445 135.115C268.925 136.731 269.997 138.108 271.447 138.969C271.586 139.051 271.697 138.828 271.559 138.746L271.559 138.746Z" fill="white"/>
<path d="M270.176 125.146C269.892 125.28 269.58 125.342 269.267 125.326C268.954 125.31 268.65 125.217 268.382 125.055C268.245 124.971 268.134 125.194 268.27 125.277C268.567 125.455 268.903 125.558 269.249 125.576C269.595 125.595 269.94 125.528 270.254 125.382C270.284 125.371 270.31 125.349 270.325 125.319C270.339 125.29 270.342 125.256 270.333 125.225C270.323 125.194 270.3 125.168 270.271 125.153C270.241 125.138 270.207 125.135 270.176 125.146Z" fill="white"/>
<path d="M250.87 130.878C250.954 130.933 251.038 130.987 251.123 131.044C252.25 131.786 253.316 132.617 254.309 133.531C254.387 133.601 254.465 133.672 254.541 133.744C256.91 135.971 258.844 138.618 260.247 141.551C260.803 142.719 261.271 143.927 261.644 145.166C262.16 146.876 262.583 148.772 263.604 150.171C263.708 150.318 263.822 150.459 263.945 150.592H273.169C273.19 150.581 273.212 150.573 273.233 150.562L273.601 150.579C273.586 150.514 273.569 150.447 273.555 150.381C273.546 150.343 273.536 150.306 273.527 150.268C273.521 150.242 273.515 150.217 273.51 150.194C273.508 150.186 273.506 150.177 273.504 150.171C273.5 150.148 273.494 150.127 273.489 150.106C273.397 149.729 273.301 149.352 273.203 148.976C273.203 148.974 273.203 148.974 273.201 148.972C272.48 146.095 271.42 143.314 270.044 140.686C270.002 140.609 269.96 140.529 269.913 140.451C269.276 139.288 268.545 138.179 267.727 137.135C267.277 136.565 266.798 136.018 266.293 135.496C264.986 134.15 263.474 133.019 261.815 132.142C258.506 130.396 254.675 129.727 251.139 130.794C251.049 130.821 250.961 130.849 250.87 130.878Z" fill="#F0F0F0"/>
<path d="M250.89 130.994C255.484 131.906 259.674 134.242 262.864 137.67C263.563 138.395 264.145 139.227 264.585 140.133C264.986 141.03 265.14 142.018 265.029 142.995C264.945 143.907 264.753 144.83 264.892 145.747C264.97 146.216 265.146 146.662 265.409 147.058C265.671 147.453 266.015 147.789 266.416 148.042C267.401 148.7 268.562 148.965 269.708 149.184C270.979 149.428 272.304 149.661 273.365 150.455C273.494 150.551 273.635 150.346 273.507 150.25C271.661 148.869 269.186 149.159 267.167 148.183C266.224 147.728 265.413 146.987 265.18 145.932C264.975 145.011 265.173 144.058 265.266 143.135C265.388 142.184 265.274 141.218 264.936 140.321C264.543 139.395 263.995 138.543 263.316 137.801C261.813 136.105 260.053 134.656 258.1 133.507C255.878 132.184 253.446 131.25 250.91 130.746C250.753 130.715 250.734 130.964 250.89 130.994L250.89 130.994Z" fill="white"/>
<path d="M261.902 136.506C262.404 135.893 262.673 135.121 262.659 134.329C262.645 133.536 262.349 132.774 261.825 132.179C261.719 132.059 261.527 132.219 261.634 132.339C262.123 132.892 262.398 133.602 262.409 134.34C262.421 135.078 262.168 135.796 261.697 136.364C261.595 136.488 261.8 136.629 261.902 136.506Z" fill="white"/>
<path d="M265.135 142.537C263.523 142.712 261.905 142.272 260.603 141.307C260.474 141.211 260.332 141.416 260.461 141.512C261.818 142.514 263.503 142.968 265.179 142.783C265.339 142.765 265.294 142.52 265.135 142.537Z" fill="white"/>
<path d="M255.837 132.511C255.692 132.789 255.481 133.027 255.221 133.202C254.962 133.378 254.662 133.486 254.351 133.518C254.191 133.534 254.236 133.779 254.395 133.763C254.74 133.727 255.07 133.607 255.357 133.413C255.644 133.22 255.879 132.959 256.042 132.653C256.06 132.626 256.067 132.593 256.061 132.56C256.055 132.528 256.037 132.499 256.011 132.48C255.984 132.461 255.95 132.454 255.918 132.46C255.885 132.466 255.856 132.484 255.837 132.511Z" fill="white"/>
<path d="M69.1283 133.821C69.8266 128.208 73.3064 122.678 78.6614 120.852C76.5496 126.629 76.55 132.966 78.6627 138.743C79.4856 140.968 80.6325 143.357 79.8585 145.6C79.3769 146.995 78.1988 148.062 76.8819 148.73C75.565 149.397 74.1034 149.716 72.6602 150.027L72.3761 150.262C70.085 145.091 68.43 139.434 69.1283 133.821Z" fill="#F0F0F0"/>
<path d="M78.7151 120.959C75.5966 124.451 73.6584 128.838 73.1757 133.494C73.054 134.495 73.0909 135.509 73.2849 136.498C73.505 137.455 73.9777 138.336 74.6537 139.049C75.2706 139.727 75.9802 140.349 76.4216 141.164C76.6414 141.585 76.7696 142.048 76.798 142.522C76.8264 142.996 76.7542 143.47 76.5862 143.914C76.1965 145.032 75.4284 145.943 74.6462 146.807C73.7778 147.767 72.8605 148.75 72.4914 150.023C72.4467 150.177 72.2099 150.099 72.2546 149.945C72.8969 147.731 75.047 146.473 76.0725 144.479C76.5509 143.548 76.7518 142.468 76.3032 141.486C75.9109 140.627 75.1798 139.985 74.5492 139.304C73.8795 138.618 73.3881 137.779 73.1178 136.859C72.874 135.883 72.7982 134.872 72.8936 133.871C73.0723 131.613 73.6051 129.397 74.4724 127.304C75.4491 124.91 76.8282 122.701 78.5501 120.772C78.6568 120.652 78.8211 120.84 78.7151 120.959H78.7151Z" fill="white"/>
<path d="M73.2428 131.986C72.4722 131.799 71.7932 131.344 71.3271 130.703C70.8609 130.061 70.638 129.275 70.6981 128.485C70.7108 128.325 70.9599 128.337 70.9472 128.497C70.8899 129.233 71.0976 129.966 71.5329 130.562C71.9682 131.158 72.6024 131.579 73.321 131.749C73.4771 131.786 73.398 132.023 73.2428 131.986V131.986Z" fill="white"/>
<path d="M74.2953 138.746C75.687 137.916 76.7145 136.591 77.1727 135.037C77.218 134.883 77.4547 134.961 77.4095 135.115C76.9296 136.731 75.8576 138.108 74.4074 138.969C74.2691 139.051 74.1577 138.828 74.2953 138.746L74.2953 138.746Z" fill="white"/>
<path d="M75.6803 125.146C75.9634 125.28 76.2755 125.342 76.5885 125.326C76.9015 125.31 77.2056 125.217 77.4736 125.055C77.6108 124.971 77.7221 125.194 77.5858 125.277C77.2889 125.455 76.9528 125.558 76.607 125.576C76.2613 125.595 75.9162 125.528 75.6022 125.382C75.5714 125.371 75.5461 125.349 75.5313 125.319C75.5166 125.29 75.5136 125.256 75.5228 125.225C75.5334 125.194 75.5558 125.168 75.5853 125.153C75.6148 125.138 75.6489 125.135 75.6803 125.146Z" fill="white"/>
<path d="M94.9837 130.878C94.8996 130.933 94.8154 130.987 94.7311 131.044C93.6033 131.786 92.5377 132.617 91.5447 133.531C91.4668 133.601 91.3889 133.672 91.3131 133.744C88.9442 135.971 87.0095 138.618 85.6073 141.551C85.0504 142.719 84.5832 143.927 84.2098 145.166C83.6941 146.876 83.2711 148.772 82.2503 150.171C82.1454 150.318 82.0315 150.459 81.9093 150.592H72.6844C72.6634 150.581 72.6423 150.573 72.6213 150.562L72.2529 150.579C72.2677 150.514 72.2845 150.447 72.2993 150.381C72.3077 150.343 72.3182 150.306 72.3266 150.268C72.3329 150.242 72.3393 150.217 72.3435 150.194C72.3455 150.186 72.3477 150.177 72.3497 150.171C72.354 150.148 72.3603 150.127 72.3646 150.106C72.4572 149.729 72.5526 149.352 72.6508 148.976C72.6508 148.974 72.6508 148.974 72.6528 148.972C73.3737 146.095 74.4335 143.314 75.8099 140.686C75.852 140.609 75.894 140.529 75.9404 140.451C76.5777 139.288 77.3091 138.179 78.1272 137.135C78.577 136.565 79.0554 136.018 79.5605 135.496C80.8683 134.15 82.3797 133.019 84.0393 132.142C87.3479 130.396 91.1784 129.727 94.7144 130.794C94.8048 130.821 94.8933 130.849 94.9837 130.878Z" fill="#F0F0F0"/>
<path d="M94.9631 130.994C90.3694 131.906 86.18 134.242 82.9899 137.67C82.2901 138.395 81.709 139.227 81.2682 140.133C80.8673 141.03 80.714 142.018 80.8242 142.995C80.9087 143.907 81.1008 144.83 80.962 145.747C80.8839 146.216 80.7077 146.662 80.445 147.058C80.1822 147.453 79.8387 147.789 79.4371 148.042C78.4529 148.7 77.2911 148.965 76.1458 149.184C74.8743 149.428 73.5497 149.661 72.4884 150.455C72.3598 150.551 72.218 150.346 72.3464 150.25C74.1928 148.869 76.6671 149.159 78.687 148.183C79.6294 147.728 80.4405 146.987 80.674 145.932C80.8782 145.011 80.6809 144.058 80.5873 143.135C80.4658 142.184 80.5791 141.218 80.9171 140.321C81.3104 139.395 81.8584 138.543 82.5378 137.801C84.0406 136.105 85.8007 134.656 87.7537 133.507C89.9754 132.184 92.4072 131.25 94.9439 130.746C95.1009 130.715 95.119 130.964 94.963 130.994H94.9631Z" fill="white"/>
<path d="M83.9527 136.506C83.4501 135.893 83.1818 135.121 83.1958 134.329C83.2099 133.536 83.5053 132.774 84.0293 132.179C84.1357 132.059 84.3273 132.219 84.2207 132.339C83.7317 132.892 83.4566 133.602 83.4451 134.34C83.4335 135.078 83.6863 135.796 84.1577 136.364C84.26 136.488 84.0544 136.629 83.9527 136.506Z" fill="white"/>
<path d="M80.7213 142.537C82.3329 142.712 83.951 142.272 85.253 141.307C85.3819 141.211 85.5238 141.416 85.395 141.512C84.0382 142.514 82.3534 142.968 80.6767 142.783C80.517 142.765 80.5624 142.52 80.7213 142.537Z" fill="white"/>
<path d="M90.0176 132.511C90.1627 132.789 90.3744 133.027 90.6339 133.202C90.8934 133.378 91.1925 133.486 91.5043 133.518C91.6642 133.534 91.6186 133.779 91.4597 133.763C91.1154 133.727 90.7853 133.607 90.4981 133.413C90.211 133.22 89.9756 132.959 89.8126 132.653C89.7948 132.626 89.7882 132.593 89.7941 132.56C89.7999 132.528 89.8178 132.499 89.8441 132.48C89.8714 132.461 89.9049 132.454 89.9374 132.46C89.9698 132.466 89.9987 132.484 90.0176 132.511H90.0176Z" fill="white"/>
</g>
<defs>
<clipPath id="clip0_2039_16459">
<rect width="358.79" height="151.311" fill="white"/>
</clipPath>
</defs>
</svg>
