<svg width="23" height="20" viewBox="0 0 23 20" fill="none" xmlns="http://www.w3.org/2000/svg">
<path d="M6.643 14.995C6.25 14.995 5.868 14.952 5.5 14.872C3.21 14.366 1.5 12.376 1.5 9.99795C1.5 7.28395 3.726 5.07495 6.5 5.00195M12.818 7.63395C12.2692 6.71242 11.4637 5.97084 10.5 5.49995" stroke="#EA3A3D" stroke-width="1.5" stroke-linecap="round" stroke-linejoin="round"/>
<path d="M16.357 5C16.75 5 17.132 5.043 17.5 5.124C19.79 5.629 21.5 7.619 21.5 9.998C21.5 12.758 19.198 14.995 16.357 14.995H14.643C11.817 14.995 9.5 12.489 9.5 9.998C9.5 9.998 9.5 9 10 8.5M2.5 1L20.5 19" stroke="#EA3A3D" stroke-width="1.5" stroke-linecap="round" stroke-linejoin="round"/>
</svg>
