<svg width="175" height="47" viewBox="0 0 175 47" fill="none" xmlns="http://www.w3.org/2000/svg">
<path d="M22 31.5C21.45 31.5 20.979 31.304 20.587 30.912C20.195 30.52 19.9993 30.0493 20 29.5V26.5H22V29.5H34V26.5H36V29.5C36 30.05 35.804 30.521 35.412 30.913C35.02 31.305 34.5493 31.5007 34 31.5H22ZM27 27.5V19.35L24.4 21.95L23 20.5L28 15.5L33 20.5L31.6 21.95L29 19.35V27.5H27Z" fill="#D9E1E7"/>
<mask id="path-3-inside-1_4_6797" fill="white">
<path d="M56.8066 17.2031H58.4941V25.8604C58.4941 26.8213 58.2803 27.6211 57.8525 28.2598C57.4248 28.8984 56.8564 29.3789 56.1475 29.7012C55.4443 30.0176 54.6797 30.1758 53.8535 30.1758C52.9863 30.1758 52.2012 30.0176 51.498 29.7012C50.8008 29.3789 50.2471 28.8984 49.8369 28.2598C49.4326 27.6211 49.2305 26.8213 49.2305 25.8604V17.2031H50.9092V25.8604C50.9092 26.5283 51.0322 27.0791 51.2783 27.5127C51.5244 27.9463 51.8672 28.2686 52.3066 28.4795C52.752 28.6904 53.2676 28.7959 53.8535 28.7959C54.4453 28.7959 54.9609 28.6904 55.4004 28.4795C55.8457 28.2686 56.1914 27.9463 56.4375 27.5127C56.6836 27.0791 56.8066 26.5283 56.8066 25.8604V17.2031ZM62.5371 22.3184V33.6562H60.9023V20.4902H62.3965L62.5371 22.3184ZM68.9443 25.166V25.3506C68.9443 26.042 68.8623 26.6836 68.6982 27.2754C68.5342 27.8613 68.2939 28.3711 67.9775 28.8047C67.667 29.2383 67.2832 29.5752 66.8262 29.8154C66.3691 30.0557 65.8447 30.1758 65.2529 30.1758C64.6494 30.1758 64.1162 30.0762 63.6533 29.877C63.1904 29.6777 62.7979 29.3877 62.4756 29.0068C62.1533 28.626 61.8955 28.1689 61.7021 27.6357C61.5146 27.1025 61.3857 26.502 61.3154 25.834V24.8496C61.3857 24.1465 61.5176 23.5166 61.7109 22.96C61.9043 22.4033 62.1592 21.9287 62.4756 21.5361C62.7979 21.1377 63.1875 20.8359 63.6445 20.6309C64.1016 20.4199 64.6289 20.3145 65.2266 20.3145C65.8242 20.3145 66.3545 20.4316 66.8174 20.666C67.2803 20.8945 67.6699 21.2227 67.9863 21.6504C68.3027 22.0781 68.54 22.5908 68.6982 23.1885C68.8623 23.7803 68.9443 24.4395 68.9443 25.166ZM67.3096 25.3506V25.166C67.3096 24.6914 67.2598 24.2461 67.1602 23.8301C67.0605 23.4082 66.9053 23.0391 66.6943 22.7227C66.4893 22.4004 66.2256 22.1484 65.9033 21.9668C65.5811 21.7793 65.1973 21.6855 64.752 21.6855C64.3418 21.6855 63.9844 21.7559 63.6797 21.8965C63.3809 22.0371 63.126 22.2275 62.915 22.4678C62.7041 22.7021 62.5312 22.9717 62.3965 23.2764C62.2676 23.5752 62.1709 23.8857 62.1064 24.208V26.4844C62.2236 26.8945 62.3877 27.2812 62.5986 27.6445C62.8096 28.002 63.0908 28.292 63.4424 28.5146C63.7939 28.7314 64.2363 28.8398 64.7695 28.8398C65.209 28.8398 65.5869 28.749 65.9033 28.5674C66.2256 28.3799 66.4893 28.125 66.6943 27.8027C66.9053 27.4805 67.0605 27.1113 67.1602 26.6953C67.2598 26.2734 67.3096 25.8252 67.3096 25.3506ZM72.7852 16.5V30H71.1504V16.5H72.7852ZM74.9648 25.3506V25.1484C74.9648 24.4629 75.0645 23.8271 75.2637 23.2412C75.4629 22.6494 75.75 22.1367 76.125 21.7031C76.5 21.2637 76.9541 20.9238 77.4873 20.6836C78.0205 20.4375 78.6182 20.3145 79.2803 20.3145C79.9482 20.3145 80.5488 20.4375 81.082 20.6836C81.6211 20.9238 82.0781 21.2637 82.4531 21.7031C82.834 22.1367 83.124 22.6494 83.3232 23.2412C83.5225 23.8271 83.6221 24.4629 83.6221 25.1484V25.3506C83.6221 26.0361 83.5225 26.6719 83.3232 27.2578C83.124 27.8438 82.834 28.3564 82.4531 28.7959C82.0781 29.2295 81.624 29.5693 81.0908 29.8154C80.5635 30.0557 79.9658 30.1758 79.2979 30.1758C78.6299 30.1758 78.0293 30.0557 77.4961 29.8154C76.9629 29.5693 76.5059 29.2295 76.125 28.7959C75.75 28.3564 75.4629 27.8438 75.2637 27.2578C75.0645 26.6719 74.9648 26.0361 74.9648 25.3506ZM76.5908 25.1484V25.3506C76.5908 25.8252 76.6465 26.2734 76.7578 26.6953C76.8691 27.1113 77.0361 27.4805 77.2588 27.8027C77.4873 28.125 77.7715 28.3799 78.1113 28.5674C78.4512 28.749 78.8467 28.8398 79.2979 28.8398C79.7432 28.8398 80.1328 28.749 80.4668 28.5674C80.8066 28.3799 81.0879 28.125 81.3105 27.8027C81.5332 27.4805 81.7002 27.1113 81.8115 26.6953C81.9287 26.2734 81.9873 25.8252 81.9873 25.3506V25.1484C81.9873 24.6797 81.9287 24.2373 81.8115 23.8213C81.7002 23.3994 81.5303 23.0273 81.3018 22.7051C81.0791 22.377 80.7979 22.1191 80.458 21.9316C80.124 21.7441 79.7314 21.6504 79.2803 21.6504C78.835 21.6504 78.4424 21.7441 78.1025 21.9316C77.7686 22.1191 77.4873 22.377 77.2588 22.7051C77.0361 23.0273 76.8691 23.3994 76.7578 23.8213C76.6465 24.2373 76.5908 24.6797 76.5908 25.1484ZM91.2686 28.374V23.4785C91.2686 23.1035 91.1924 22.7783 91.04 22.5029C90.8936 22.2217 90.6709 22.0049 90.3721 21.8525C90.0732 21.7002 89.7041 21.624 89.2646 21.624C88.8545 21.624 88.4941 21.6943 88.1836 21.835C87.8789 21.9756 87.6387 22.1602 87.4629 22.3887C87.293 22.6172 87.208 22.8633 87.208 23.127H85.582C85.582 22.7871 85.6699 22.4502 85.8457 22.1162C86.0215 21.7822 86.2734 21.4805 86.6016 21.2109C86.9355 20.9355 87.334 20.7188 87.7969 20.5605C88.2656 20.3965 88.7871 20.3145 89.3613 20.3145C90.0527 20.3145 90.6621 20.4316 91.1895 20.666C91.7227 20.9004 92.1387 21.2549 92.4375 21.7295C92.7422 22.1982 92.8945 22.7871 92.8945 23.4961V27.9258C92.8945 28.2422 92.9209 28.5791 92.9736 28.9365C93.0322 29.2939 93.1172 29.6016 93.2285 29.8594V30H91.5322C91.4502 29.8125 91.3857 29.5635 91.3389 29.2529C91.292 28.9365 91.2686 28.6436 91.2686 28.374ZM91.5498 24.2344L91.5674 25.377H89.9238C89.4609 25.377 89.0479 25.415 88.6846 25.4912C88.3213 25.5615 88.0166 25.6699 87.7705 25.8164C87.5244 25.9629 87.3369 26.1475 87.208 26.3701C87.0791 26.5869 87.0146 26.8418 87.0146 27.1348C87.0146 27.4336 87.082 27.7061 87.2168 27.9521C87.3516 28.1982 87.5537 28.3945 87.8232 28.541C88.0986 28.6816 88.4355 28.752 88.834 28.752C89.332 28.752 89.7715 28.6465 90.1523 28.4355C90.5332 28.2246 90.835 27.9668 91.0576 27.6621C91.2861 27.3574 91.4092 27.0615 91.4268 26.7744L92.1211 27.5566C92.0801 27.8027 91.9688 28.0752 91.7871 28.374C91.6055 28.6729 91.3623 28.96 91.0576 29.2354C90.7588 29.5049 90.4014 29.7305 89.9854 29.9121C89.5752 30.0879 89.1123 30.1758 88.5967 30.1758C87.9521 30.1758 87.3867 30.0498 86.9004 29.7979C86.4199 29.5459 86.0449 29.209 85.7754 28.7871C85.5117 28.3594 85.3799 27.8818 85.3799 27.3545C85.3799 26.8447 85.4795 26.3965 85.6787 26.0098C85.8779 25.6172 86.165 25.292 86.54 25.0342C86.915 24.7705 87.3662 24.5713 87.8936 24.4365C88.4209 24.3018 89.0098 24.2344 89.6602 24.2344H91.5498ZM101.446 28.1543V16.5H103.081V30H101.587L101.446 28.1543ZM95.0479 25.3506V25.166C95.0479 24.4395 95.1357 23.7803 95.3115 23.1885C95.4932 22.5908 95.748 22.0781 96.0762 21.6504C96.4102 21.2227 96.8057 20.8945 97.2627 20.666C97.7256 20.4316 98.2412 20.3145 98.8096 20.3145C99.4072 20.3145 99.9287 20.4199 100.374 20.6309C100.825 20.8359 101.206 21.1377 101.517 21.5361C101.833 21.9287 102.082 22.4033 102.264 22.96C102.445 23.5166 102.571 24.1465 102.642 24.8496V25.6582C102.577 26.3555 102.451 26.9824 102.264 27.5391C102.082 28.0957 101.833 28.5703 101.517 28.9629C101.206 29.3555 100.825 29.6572 100.374 29.8682C99.9229 30.0732 99.3955 30.1758 98.792 30.1758C98.2354 30.1758 97.7256 30.0557 97.2627 29.8154C96.8057 29.5752 96.4102 29.2383 96.0762 28.8047C95.748 28.3711 95.4932 27.8613 95.3115 27.2754C95.1357 26.6836 95.0479 26.042 95.0479 25.3506ZM96.6826 25.166V25.3506C96.6826 25.8252 96.7295 26.2705 96.8232 26.6865C96.9229 27.1025 97.0752 27.4688 97.2803 27.7852C97.4854 28.1016 97.7461 28.3506 98.0625 28.5322C98.3789 28.708 98.7568 28.7959 99.1963 28.7959C99.7354 28.7959 100.178 28.6816 100.523 28.4531C100.875 28.2246 101.156 27.9229 101.367 27.5479C101.578 27.1729 101.742 26.7656 101.859 26.3262V24.208C101.789 23.8857 101.687 23.5752 101.552 23.2764C101.423 22.9717 101.253 22.7021 101.042 22.4678C100.837 22.2275 100.582 22.0371 100.277 21.8965C99.9785 21.7559 99.624 21.6855 99.2139 21.6855C98.7686 21.6855 98.3848 21.7793 98.0625 21.9668C97.7461 22.1484 97.4854 22.4004 97.2803 22.7227C97.0752 23.0391 96.9229 23.4082 96.8232 23.8301C96.7295 24.2461 96.6826 24.6914 96.6826 25.166ZM112.143 17.2031V30H110.446V17.2031H112.143ZM116.599 22.3799V30H114.964V20.4902H116.511L116.599 22.3799ZM116.265 24.8848L115.509 24.8584C115.515 24.208 115.6 23.6074 115.764 23.0566C115.928 22.5 116.171 22.0166 116.493 21.6064C116.815 21.1963 117.217 20.8799 117.697 20.6572C118.178 20.4287 118.734 20.3145 119.367 20.3145C119.812 20.3145 120.223 20.3789 120.598 20.5078C120.973 20.6309 121.298 20.8271 121.573 21.0967C121.849 21.3662 122.062 21.7119 122.215 22.1338C122.367 22.5557 122.443 23.0654 122.443 23.6631V30H120.817V23.7422C120.817 23.2441 120.732 22.8457 120.562 22.5469C120.398 22.248 120.164 22.0312 119.859 21.8965C119.555 21.7559 119.197 21.6855 118.787 21.6855C118.307 21.6855 117.905 21.7705 117.583 21.9404C117.261 22.1104 117.003 22.3447 116.81 22.6436C116.616 22.9424 116.476 23.2852 116.388 23.6719C116.306 24.0527 116.265 24.457 116.265 24.8848ZM122.426 23.9883L121.336 24.3223C121.342 23.8008 121.427 23.2998 121.591 22.8193C121.761 22.3389 122.004 21.9111 122.32 21.5361C122.643 21.1611 123.038 20.8652 123.507 20.6484C123.976 20.4258 124.512 20.3145 125.115 20.3145C125.625 20.3145 126.076 20.3818 126.469 20.5166C126.867 20.6514 127.201 20.8594 127.471 21.1406C127.746 21.416 127.954 21.7705 128.095 22.2041C128.235 22.6377 128.306 23.1533 128.306 23.751V30H126.671V23.7334C126.671 23.2002 126.586 22.7871 126.416 22.4941C126.252 22.1953 126.018 21.9873 125.713 21.8701C125.414 21.7471 125.057 21.6855 124.641 21.6855C124.283 21.6855 123.967 21.7471 123.691 21.8701C123.416 21.9932 123.185 22.1631 122.997 22.3799C122.81 22.5908 122.666 22.834 122.566 23.1094C122.473 23.3848 122.426 23.6777 122.426 23.9883ZM136.374 28.374V23.4785C136.374 23.1035 136.298 22.7783 136.146 22.5029C135.999 22.2217 135.776 22.0049 135.478 21.8525C135.179 21.7002 134.81 21.624 134.37 21.624C133.96 21.624 133.6 21.6943 133.289 21.835C132.984 21.9756 132.744 22.1602 132.568 22.3887C132.398 22.6172 132.313 22.8633 132.313 23.127H130.688C130.688 22.7871 130.775 22.4502 130.951 22.1162C131.127 21.7822 131.379 21.4805 131.707 21.2109C132.041 20.9355 132.439 20.7188 132.902 20.5605C133.371 20.3965 133.893 20.3145 134.467 20.3145C135.158 20.3145 135.768 20.4316 136.295 20.666C136.828 20.9004 137.244 21.2549 137.543 21.7295C137.848 22.1982 138 22.7871 138 23.4961V27.9258C138 28.2422 138.026 28.5791 138.079 28.9365C138.138 29.2939 138.223 29.6016 138.334 29.8594V30H136.638C136.556 29.8125 136.491 29.5635 136.444 29.2529C136.397 28.9365 136.374 28.6436 136.374 28.374ZM136.655 24.2344L136.673 25.377H135.029C134.566 25.377 134.153 25.415 133.79 25.4912C133.427 25.5615 133.122 25.6699 132.876 25.8164C132.63 25.9629 132.442 26.1475 132.313 26.3701C132.185 26.5869 132.12 26.8418 132.12 27.1348C132.12 27.4336 132.188 27.7061 132.322 27.9521C132.457 28.1982 132.659 28.3945 132.929 28.541C133.204 28.6816 133.541 28.752 133.939 28.752C134.438 28.752 134.877 28.6465 135.258 28.4355C135.639 28.2246 135.94 27.9668 136.163 27.6621C136.392 27.3574 136.515 27.0615 136.532 26.7744L137.227 27.5566C137.186 27.8027 137.074 28.0752 136.893 28.374C136.711 28.6729 136.468 28.96 136.163 29.2354C135.864 29.5049 135.507 29.7305 135.091 29.9121C134.681 30.0879 134.218 30.1758 133.702 30.1758C133.058 30.1758 132.492 30.0498 132.006 29.7979C131.525 29.5459 131.15 29.209 130.881 28.7871C130.617 28.3594 130.485 27.8818 130.485 27.3545C130.485 26.8447 130.585 26.3965 130.784 26.0098C130.983 25.6172 131.271 25.292 131.646 25.0342C132.021 24.7705 132.472 24.5713 132.999 24.4365C133.526 24.3018 134.115 24.2344 134.766 24.2344H136.655ZM146.719 20.4902H148.195V29.7979C148.195 30.6357 148.025 31.3506 147.686 31.9424C147.346 32.5342 146.871 32.9824 146.262 33.2871C145.658 33.5977 144.961 33.7529 144.17 33.7529C143.842 33.7529 143.455 33.7002 143.01 33.5947C142.57 33.4951 142.137 33.3223 141.709 33.0762C141.287 32.8359 140.933 32.5107 140.646 32.1006L141.498 31.1338C141.896 31.6143 142.312 31.9482 142.746 32.1357C143.186 32.3232 143.619 32.417 144.047 32.417C144.562 32.417 145.008 32.3203 145.383 32.127C145.758 31.9336 146.048 31.6465 146.253 31.2656C146.464 30.8906 146.569 30.4277 146.569 29.877V22.582L146.719 20.4902ZM140.171 25.3506V25.166C140.171 24.4395 140.256 23.7803 140.426 23.1885C140.602 22.5908 140.851 22.0781 141.173 21.6504C141.501 21.2227 141.896 20.8945 142.359 20.666C142.822 20.4316 143.344 20.3145 143.924 20.3145C144.521 20.3145 145.043 20.4199 145.488 20.6309C145.939 20.8359 146.32 21.1377 146.631 21.5361C146.947 21.9287 147.196 22.4033 147.378 22.96C147.56 23.5166 147.686 24.1465 147.756 24.8496V25.6582C147.691 26.3555 147.565 26.9824 147.378 27.5391C147.196 28.0957 146.947 28.5703 146.631 28.9629C146.32 29.3555 145.939 29.6572 145.488 29.8682C145.037 30.0732 144.51 30.1758 143.906 30.1758C143.338 30.1758 142.822 30.0557 142.359 29.8154C141.902 29.5752 141.51 29.2383 141.182 28.8047C140.854 28.3711 140.602 27.8613 140.426 27.2754C140.256 26.6836 140.171 26.042 140.171 25.3506ZM141.797 25.166V25.3506C141.797 25.8252 141.844 26.2705 141.938 26.6865C142.037 27.1025 142.187 27.4688 142.386 27.7852C142.591 28.1016 142.852 28.3506 143.168 28.5322C143.484 28.708 143.862 28.7959 144.302 28.7959C144.841 28.7959 145.286 28.6816 145.638 28.4531C145.989 28.2246 146.268 27.9229 146.473 27.5479C146.684 27.1729 146.848 26.7656 146.965 26.3262V24.208C146.9 23.8857 146.801 23.5752 146.666 23.2764C146.537 22.9717 146.367 22.7021 146.156 22.4678C145.951 22.2275 145.696 22.0371 145.392 21.8965C145.087 21.7559 144.729 21.6855 144.319 21.6855C143.874 21.6855 143.49 21.7793 143.168 21.9668C142.852 22.1484 142.591 22.4004 142.386 22.7227C142.187 23.0391 142.037 23.4082 141.938 23.8301C141.844 24.2461 141.797 24.6914 141.797 25.166ZM154.611 30.1758C153.949 30.1758 153.349 30.0645 152.81 29.8418C152.276 29.6133 151.816 29.2939 151.43 28.8838C151.049 28.4736 150.756 27.9873 150.551 27.4248C150.346 26.8623 150.243 26.2471 150.243 25.5791V25.21C150.243 24.4365 150.357 23.748 150.586 23.1445C150.814 22.5352 151.125 22.0195 151.518 21.5977C151.91 21.1758 152.355 20.8564 152.854 20.6396C153.352 20.4229 153.867 20.3145 154.4 20.3145C155.08 20.3145 155.666 20.4316 156.158 20.666C156.656 20.9004 157.063 21.2285 157.38 21.6504C157.696 22.0664 157.931 22.5586 158.083 23.127C158.235 23.6895 158.312 24.3047 158.312 24.9727V25.7021H151.21V24.375H156.686V24.252C156.662 23.8301 156.574 23.4199 156.422 23.0215C156.275 22.623 156.041 22.2949 155.719 22.0371C155.396 21.7793 154.957 21.6504 154.4 21.6504C154.031 21.6504 153.691 21.7295 153.381 21.8877C153.07 22.04 152.804 22.2686 152.581 22.5732C152.358 22.8779 152.186 23.25 152.062 23.6895C151.939 24.1289 151.878 24.6357 151.878 25.21V25.5791C151.878 26.0303 151.939 26.4551 152.062 26.8535C152.191 27.2461 152.376 27.5918 152.616 27.8906C152.862 28.1895 153.158 28.4238 153.504 28.5938C153.855 28.7637 154.254 28.8486 154.699 28.8486C155.273 28.8486 155.76 28.7314 156.158 28.4971C156.557 28.2627 156.905 27.9492 157.204 27.5566L158.188 28.3389C157.983 28.6494 157.723 28.9453 157.406 29.2266C157.09 29.5078 156.7 29.7363 156.237 29.9121C155.78 30.0879 155.238 30.1758 154.611 30.1758Z"/>
</mask>
<path d="M56.8066 17.2031H58.4941V25.8604C58.4941 26.8213 58.2803 27.6211 57.8525 28.2598C57.4248 28.8984 56.8564 29.3789 56.1475 29.7012C55.4443 30.0176 54.6797 30.1758 53.8535 30.1758C52.9863 30.1758 52.2012 30.0176 51.498 29.7012C50.8008 29.3789 50.2471 28.8984 49.8369 28.2598C49.4326 27.6211 49.2305 26.8213 49.2305 25.8604V17.2031H50.9092V25.8604C50.9092 26.5283 51.0322 27.0791 51.2783 27.5127C51.5244 27.9463 51.8672 28.2686 52.3066 28.4795C52.752 28.6904 53.2676 28.7959 53.8535 28.7959C54.4453 28.7959 54.9609 28.6904 55.4004 28.4795C55.8457 28.2686 56.1914 27.9463 56.4375 27.5127C56.6836 27.0791 56.8066 26.5283 56.8066 25.8604V17.2031ZM62.5371 22.3184V33.6562H60.9023V20.4902H62.3965L62.5371 22.3184ZM68.9443 25.166V25.3506C68.9443 26.042 68.8623 26.6836 68.6982 27.2754C68.5342 27.8613 68.2939 28.3711 67.9775 28.8047C67.667 29.2383 67.2832 29.5752 66.8262 29.8154C66.3691 30.0557 65.8447 30.1758 65.2529 30.1758C64.6494 30.1758 64.1162 30.0762 63.6533 29.877C63.1904 29.6777 62.7979 29.3877 62.4756 29.0068C62.1533 28.626 61.8955 28.1689 61.7021 27.6357C61.5146 27.1025 61.3857 26.502 61.3154 25.834V24.8496C61.3857 24.1465 61.5176 23.5166 61.7109 22.96C61.9043 22.4033 62.1592 21.9287 62.4756 21.5361C62.7979 21.1377 63.1875 20.8359 63.6445 20.6309C64.1016 20.4199 64.6289 20.3145 65.2266 20.3145C65.8242 20.3145 66.3545 20.4316 66.8174 20.666C67.2803 20.8945 67.6699 21.2227 67.9863 21.6504C68.3027 22.0781 68.54 22.5908 68.6982 23.1885C68.8623 23.7803 68.9443 24.4395 68.9443 25.166ZM67.3096 25.3506V25.166C67.3096 24.6914 67.2598 24.2461 67.1602 23.8301C67.0605 23.4082 66.9053 23.0391 66.6943 22.7227C66.4893 22.4004 66.2256 22.1484 65.9033 21.9668C65.5811 21.7793 65.1973 21.6855 64.752 21.6855C64.3418 21.6855 63.9844 21.7559 63.6797 21.8965C63.3809 22.0371 63.126 22.2275 62.915 22.4678C62.7041 22.7021 62.5312 22.9717 62.3965 23.2764C62.2676 23.5752 62.1709 23.8857 62.1064 24.208V26.4844C62.2236 26.8945 62.3877 27.2812 62.5986 27.6445C62.8096 28.002 63.0908 28.292 63.4424 28.5146C63.7939 28.7314 64.2363 28.8398 64.7695 28.8398C65.209 28.8398 65.5869 28.749 65.9033 28.5674C66.2256 28.3799 66.4893 28.125 66.6943 27.8027C66.9053 27.4805 67.0605 27.1113 67.1602 26.6953C67.2598 26.2734 67.3096 25.8252 67.3096 25.3506ZM72.7852 16.5V30H71.1504V16.5H72.7852ZM74.9648 25.3506V25.1484C74.9648 24.4629 75.0645 23.8271 75.2637 23.2412C75.4629 22.6494 75.75 22.1367 76.125 21.7031C76.5 21.2637 76.9541 20.9238 77.4873 20.6836C78.0205 20.4375 78.6182 20.3145 79.2803 20.3145C79.9482 20.3145 80.5488 20.4375 81.082 20.6836C81.6211 20.9238 82.0781 21.2637 82.4531 21.7031C82.834 22.1367 83.124 22.6494 83.3232 23.2412C83.5225 23.8271 83.6221 24.4629 83.6221 25.1484V25.3506C83.6221 26.0361 83.5225 26.6719 83.3232 27.2578C83.124 27.8438 82.834 28.3564 82.4531 28.7959C82.0781 29.2295 81.624 29.5693 81.0908 29.8154C80.5635 30.0557 79.9658 30.1758 79.2979 30.1758C78.6299 30.1758 78.0293 30.0557 77.4961 29.8154C76.9629 29.5693 76.5059 29.2295 76.125 28.7959C75.75 28.3564 75.4629 27.8438 75.2637 27.2578C75.0645 26.6719 74.9648 26.0361 74.9648 25.3506ZM76.5908 25.1484V25.3506C76.5908 25.8252 76.6465 26.2734 76.7578 26.6953C76.8691 27.1113 77.0361 27.4805 77.2588 27.8027C77.4873 28.125 77.7715 28.3799 78.1113 28.5674C78.4512 28.749 78.8467 28.8398 79.2979 28.8398C79.7432 28.8398 80.1328 28.749 80.4668 28.5674C80.8066 28.3799 81.0879 28.125 81.3105 27.8027C81.5332 27.4805 81.7002 27.1113 81.8115 26.6953C81.9287 26.2734 81.9873 25.8252 81.9873 25.3506V25.1484C81.9873 24.6797 81.9287 24.2373 81.8115 23.8213C81.7002 23.3994 81.5303 23.0273 81.3018 22.7051C81.0791 22.377 80.7979 22.1191 80.458 21.9316C80.124 21.7441 79.7314 21.6504 79.2803 21.6504C78.835 21.6504 78.4424 21.7441 78.1025 21.9316C77.7686 22.1191 77.4873 22.377 77.2588 22.7051C77.0361 23.0273 76.8691 23.3994 76.7578 23.8213C76.6465 24.2373 76.5908 24.6797 76.5908 25.1484ZM91.2686 28.374V23.4785C91.2686 23.1035 91.1924 22.7783 91.04 22.5029C90.8936 22.2217 90.6709 22.0049 90.3721 21.8525C90.0732 21.7002 89.7041 21.624 89.2646 21.624C88.8545 21.624 88.4941 21.6943 88.1836 21.835C87.8789 21.9756 87.6387 22.1602 87.4629 22.3887C87.293 22.6172 87.208 22.8633 87.208 23.127H85.582C85.582 22.7871 85.6699 22.4502 85.8457 22.1162C86.0215 21.7822 86.2734 21.4805 86.6016 21.2109C86.9355 20.9355 87.334 20.7188 87.7969 20.5605C88.2656 20.3965 88.7871 20.3145 89.3613 20.3145C90.0527 20.3145 90.6621 20.4316 91.1895 20.666C91.7227 20.9004 92.1387 21.2549 92.4375 21.7295C92.7422 22.1982 92.8945 22.7871 92.8945 23.4961V27.9258C92.8945 28.2422 92.9209 28.5791 92.9736 28.9365C93.0322 29.2939 93.1172 29.6016 93.2285 29.8594V30H91.5322C91.4502 29.8125 91.3857 29.5635 91.3389 29.2529C91.292 28.9365 91.2686 28.6436 91.2686 28.374ZM91.5498 24.2344L91.5674 25.377H89.9238C89.4609 25.377 89.0479 25.415 88.6846 25.4912C88.3213 25.5615 88.0166 25.6699 87.7705 25.8164C87.5244 25.9629 87.3369 26.1475 87.208 26.3701C87.0791 26.5869 87.0146 26.8418 87.0146 27.1348C87.0146 27.4336 87.082 27.7061 87.2168 27.9521C87.3516 28.1982 87.5537 28.3945 87.8232 28.541C88.0986 28.6816 88.4355 28.752 88.834 28.752C89.332 28.752 89.7715 28.6465 90.1523 28.4355C90.5332 28.2246 90.835 27.9668 91.0576 27.6621C91.2861 27.3574 91.4092 27.0615 91.4268 26.7744L92.1211 27.5566C92.0801 27.8027 91.9688 28.0752 91.7871 28.374C91.6055 28.6729 91.3623 28.96 91.0576 29.2354C90.7588 29.5049 90.4014 29.7305 89.9854 29.9121C89.5752 30.0879 89.1123 30.1758 88.5967 30.1758C87.9521 30.1758 87.3867 30.0498 86.9004 29.7979C86.4199 29.5459 86.0449 29.209 85.7754 28.7871C85.5117 28.3594 85.3799 27.8818 85.3799 27.3545C85.3799 26.8447 85.4795 26.3965 85.6787 26.0098C85.8779 25.6172 86.165 25.292 86.54 25.0342C86.915 24.7705 87.3662 24.5713 87.8936 24.4365C88.4209 24.3018 89.0098 24.2344 89.6602 24.2344H91.5498ZM101.446 28.1543V16.5H103.081V30H101.587L101.446 28.1543ZM95.0479 25.3506V25.166C95.0479 24.4395 95.1357 23.7803 95.3115 23.1885C95.4932 22.5908 95.748 22.0781 96.0762 21.6504C96.4102 21.2227 96.8057 20.8945 97.2627 20.666C97.7256 20.4316 98.2412 20.3145 98.8096 20.3145C99.4072 20.3145 99.9287 20.4199 100.374 20.6309C100.825 20.8359 101.206 21.1377 101.517 21.5361C101.833 21.9287 102.082 22.4033 102.264 22.96C102.445 23.5166 102.571 24.1465 102.642 24.8496V25.6582C102.577 26.3555 102.451 26.9824 102.264 27.5391C102.082 28.0957 101.833 28.5703 101.517 28.9629C101.206 29.3555 100.825 29.6572 100.374 29.8682C99.9229 30.0732 99.3955 30.1758 98.792 30.1758C98.2354 30.1758 97.7256 30.0557 97.2627 29.8154C96.8057 29.5752 96.4102 29.2383 96.0762 28.8047C95.748 28.3711 95.4932 27.8613 95.3115 27.2754C95.1357 26.6836 95.0479 26.042 95.0479 25.3506ZM96.6826 25.166V25.3506C96.6826 25.8252 96.7295 26.2705 96.8232 26.6865C96.9229 27.1025 97.0752 27.4688 97.2803 27.7852C97.4854 28.1016 97.7461 28.3506 98.0625 28.5322C98.3789 28.708 98.7568 28.7959 99.1963 28.7959C99.7354 28.7959 100.178 28.6816 100.523 28.4531C100.875 28.2246 101.156 27.9229 101.367 27.5479C101.578 27.1729 101.742 26.7656 101.859 26.3262V24.208C101.789 23.8857 101.687 23.5752 101.552 23.2764C101.423 22.9717 101.253 22.7021 101.042 22.4678C100.837 22.2275 100.582 22.0371 100.277 21.8965C99.9785 21.7559 99.624 21.6855 99.2139 21.6855C98.7686 21.6855 98.3848 21.7793 98.0625 21.9668C97.7461 22.1484 97.4854 22.4004 97.2803 22.7227C97.0752 23.0391 96.9229 23.4082 96.8232 23.8301C96.7295 24.2461 96.6826 24.6914 96.6826 25.166ZM112.143 17.2031V30H110.446V17.2031H112.143ZM116.599 22.3799V30H114.964V20.4902H116.511L116.599 22.3799ZM116.265 24.8848L115.509 24.8584C115.515 24.208 115.6 23.6074 115.764 23.0566C115.928 22.5 116.171 22.0166 116.493 21.6064C116.815 21.1963 117.217 20.8799 117.697 20.6572C118.178 20.4287 118.734 20.3145 119.367 20.3145C119.812 20.3145 120.223 20.3789 120.598 20.5078C120.973 20.6309 121.298 20.8271 121.573 21.0967C121.849 21.3662 122.062 21.7119 122.215 22.1338C122.367 22.5557 122.443 23.0654 122.443 23.6631V30H120.817V23.7422C120.817 23.2441 120.732 22.8457 120.562 22.5469C120.398 22.248 120.164 22.0312 119.859 21.8965C119.555 21.7559 119.197 21.6855 118.787 21.6855C118.307 21.6855 117.905 21.7705 117.583 21.9404C117.261 22.1104 117.003 22.3447 116.81 22.6436C116.616 22.9424 116.476 23.2852 116.388 23.6719C116.306 24.0527 116.265 24.457 116.265 24.8848ZM122.426 23.9883L121.336 24.3223C121.342 23.8008 121.427 23.2998 121.591 22.8193C121.761 22.3389 122.004 21.9111 122.32 21.5361C122.643 21.1611 123.038 20.8652 123.507 20.6484C123.976 20.4258 124.512 20.3145 125.115 20.3145C125.625 20.3145 126.076 20.3818 126.469 20.5166C126.867 20.6514 127.201 20.8594 127.471 21.1406C127.746 21.416 127.954 21.7705 128.095 22.2041C128.235 22.6377 128.306 23.1533 128.306 23.751V30H126.671V23.7334C126.671 23.2002 126.586 22.7871 126.416 22.4941C126.252 22.1953 126.018 21.9873 125.713 21.8701C125.414 21.7471 125.057 21.6855 124.641 21.6855C124.283 21.6855 123.967 21.7471 123.691 21.8701C123.416 21.9932 123.185 22.1631 122.997 22.3799C122.81 22.5908 122.666 22.834 122.566 23.1094C122.473 23.3848 122.426 23.6777 122.426 23.9883ZM136.374 28.374V23.4785C136.374 23.1035 136.298 22.7783 136.146 22.5029C135.999 22.2217 135.776 22.0049 135.478 21.8525C135.179 21.7002 134.81 21.624 134.37 21.624C133.96 21.624 133.6 21.6943 133.289 21.835C132.984 21.9756 132.744 22.1602 132.568 22.3887C132.398 22.6172 132.313 22.8633 132.313 23.127H130.688C130.688 22.7871 130.775 22.4502 130.951 22.1162C131.127 21.7822 131.379 21.4805 131.707 21.2109C132.041 20.9355 132.439 20.7188 132.902 20.5605C133.371 20.3965 133.893 20.3145 134.467 20.3145C135.158 20.3145 135.768 20.4316 136.295 20.666C136.828 20.9004 137.244 21.2549 137.543 21.7295C137.848 22.1982 138 22.7871 138 23.4961V27.9258C138 28.2422 138.026 28.5791 138.079 28.9365C138.138 29.2939 138.223 29.6016 138.334 29.8594V30H136.638C136.556 29.8125 136.491 29.5635 136.444 29.2529C136.397 28.9365 136.374 28.6436 136.374 28.374ZM136.655 24.2344L136.673 25.377H135.029C134.566 25.377 134.153 25.415 133.79 25.4912C133.427 25.5615 133.122 25.6699 132.876 25.8164C132.63 25.9629 132.442 26.1475 132.313 26.3701C132.185 26.5869 132.12 26.8418 132.12 27.1348C132.12 27.4336 132.188 27.7061 132.322 27.9521C132.457 28.1982 132.659 28.3945 132.929 28.541C133.204 28.6816 133.541 28.752 133.939 28.752C134.438 28.752 134.877 28.6465 135.258 28.4355C135.639 28.2246 135.94 27.9668 136.163 27.6621C136.392 27.3574 136.515 27.0615 136.532 26.7744L137.227 27.5566C137.186 27.8027 137.074 28.0752 136.893 28.374C136.711 28.6729 136.468 28.96 136.163 29.2354C135.864 29.5049 135.507 29.7305 135.091 29.9121C134.681 30.0879 134.218 30.1758 133.702 30.1758C133.058 30.1758 132.492 30.0498 132.006 29.7979C131.525 29.5459 131.15 29.209 130.881 28.7871C130.617 28.3594 130.485 27.8818 130.485 27.3545C130.485 26.8447 130.585 26.3965 130.784 26.0098C130.983 25.6172 131.271 25.292 131.646 25.0342C132.021 24.7705 132.472 24.5713 132.999 24.4365C133.526 24.3018 134.115 24.2344 134.766 24.2344H136.655ZM146.719 20.4902H148.195V29.7979C148.195 30.6357 148.025 31.3506 147.686 31.9424C147.346 32.5342 146.871 32.9824 146.262 33.2871C145.658 33.5977 144.961 33.7529 144.17 33.7529C143.842 33.7529 143.455 33.7002 143.01 33.5947C142.57 33.4951 142.137 33.3223 141.709 33.0762C141.287 32.8359 140.933 32.5107 140.646 32.1006L141.498 31.1338C141.896 31.6143 142.312 31.9482 142.746 32.1357C143.186 32.3232 143.619 32.417 144.047 32.417C144.562 32.417 145.008 32.3203 145.383 32.127C145.758 31.9336 146.048 31.6465 146.253 31.2656C146.464 30.8906 146.569 30.4277 146.569 29.877V22.582L146.719 20.4902ZM140.171 25.3506V25.166C140.171 24.4395 140.256 23.7803 140.426 23.1885C140.602 22.5908 140.851 22.0781 141.173 21.6504C141.501 21.2227 141.896 20.8945 142.359 20.666C142.822 20.4316 143.344 20.3145 143.924 20.3145C144.521 20.3145 145.043 20.4199 145.488 20.6309C145.939 20.8359 146.32 21.1377 146.631 21.5361C146.947 21.9287 147.196 22.4033 147.378 22.96C147.56 23.5166 147.686 24.1465 147.756 24.8496V25.6582C147.691 26.3555 147.565 26.9824 147.378 27.5391C147.196 28.0957 146.947 28.5703 146.631 28.9629C146.32 29.3555 145.939 29.6572 145.488 29.8682C145.037 30.0732 144.51 30.1758 143.906 30.1758C143.338 30.1758 142.822 30.0557 142.359 29.8154C141.902 29.5752 141.51 29.2383 141.182 28.8047C140.854 28.3711 140.602 27.8613 140.426 27.2754C140.256 26.6836 140.171 26.042 140.171 25.3506ZM141.797 25.166V25.3506C141.797 25.8252 141.844 26.2705 141.938 26.6865C142.037 27.1025 142.187 27.4688 142.386 27.7852C142.591 28.1016 142.852 28.3506 143.168 28.5322C143.484 28.708 143.862 28.7959 144.302 28.7959C144.841 28.7959 145.286 28.6816 145.638 28.4531C145.989 28.2246 146.268 27.9229 146.473 27.5479C146.684 27.1729 146.848 26.7656 146.965 26.3262V24.208C146.9 23.8857 146.801 23.5752 146.666 23.2764C146.537 22.9717 146.367 22.7021 146.156 22.4678C145.951 22.2275 145.696 22.0371 145.392 21.8965C145.087 21.7559 144.729 21.6855 144.319 21.6855C143.874 21.6855 143.49 21.7793 143.168 21.9668C142.852 22.1484 142.591 22.4004 142.386 22.7227C142.187 23.0391 142.037 23.4082 141.938 23.8301C141.844 24.2461 141.797 24.6914 141.797 25.166ZM154.611 30.1758C153.949 30.1758 153.349 30.0645 152.81 29.8418C152.276 29.6133 151.816 29.2939 151.43 28.8838C151.049 28.4736 150.756 27.9873 150.551 27.4248C150.346 26.8623 150.243 26.2471 150.243 25.5791V25.21C150.243 24.4365 150.357 23.748 150.586 23.1445C150.814 22.5352 151.125 22.0195 151.518 21.5977C151.91 21.1758 152.355 20.8564 152.854 20.6396C153.352 20.4229 153.867 20.3145 154.4 20.3145C155.08 20.3145 155.666 20.4316 156.158 20.666C156.656 20.9004 157.063 21.2285 157.38 21.6504C157.696 22.0664 157.931 22.5586 158.083 23.127C158.235 23.6895 158.312 24.3047 158.312 24.9727V25.7021H151.21V24.375H156.686V24.252C156.662 23.8301 156.574 23.4199 156.422 23.0215C156.275 22.623 156.041 22.2949 155.719 22.0371C155.396 21.7793 154.957 21.6504 154.4 21.6504C154.031 21.6504 153.691 21.7295 153.381 21.8877C153.07 22.04 152.804 22.2686 152.581 22.5732C152.358 22.8779 152.186 23.25 152.062 23.6895C151.939 24.1289 151.878 24.6357 151.878 25.21V25.5791C151.878 26.0303 151.939 26.4551 152.062 26.8535C152.191 27.2461 152.376 27.5918 152.616 27.8906C152.862 28.1895 153.158 28.4238 153.504 28.5938C153.855 28.7637 154.254 28.8486 154.699 28.8486C155.273 28.8486 155.76 28.7314 156.158 28.4971C156.557 28.2627 156.905 27.9492 157.204 27.5566L158.188 28.3389C157.983 28.6494 157.723 28.9453 157.406 29.2266C157.09 29.5078 156.7 29.7363 156.237 29.9121C155.78 30.0879 155.238 30.1758 154.611 30.1758Z" fill="#809FB8"/>
<path d="M56.8066 17.2031V16.2031H55.8066V17.2031H56.8066ZM58.4941 17.2031H59.4941V16.2031H58.4941V17.2031ZM56.1475 29.7012L56.5578 30.6131L56.5613 30.6115L56.1475 29.7012ZM51.498 29.7012L51.0785 30.609L51.0877 30.6131L51.498 29.7012ZM49.8369 28.2598L48.992 28.7946L48.9955 28.8001L49.8369 28.2598ZM49.2305 17.2031V16.2031H48.2305V17.2031H49.2305ZM50.9092 17.2031H51.9092V16.2031H50.9092V17.2031ZM52.3066 28.4795L51.8739 29.381L51.8786 29.3832L52.3066 28.4795ZM55.4004 28.4795L54.9723 27.5757L54.9677 27.578L55.4004 28.4795ZM56.8066 18.2031H58.4941V16.2031H56.8066V18.2031ZM57.4941 17.2031V25.8604H59.4941V17.2031H57.4941ZM57.4941 25.8604C57.4941 26.6728 57.3144 27.2662 57.0217 27.7033L58.6834 28.8162C59.2461 27.976 59.4941 26.9698 59.4941 25.8604H57.4941ZM57.0217 27.7033C56.6988 28.1854 56.2758 28.5444 55.7337 28.7908L56.5613 30.6115C57.4371 30.2134 58.1508 29.6115 58.6834 28.8162L57.0217 27.7033ZM55.7371 28.7893C55.172 29.0435 54.5485 29.1758 53.8535 29.1758V31.1758C54.8109 31.1758 55.7166 30.9916 56.5578 30.6131L55.7371 28.7893ZM53.8535 29.1758C53.1101 29.1758 52.4673 29.0408 51.9084 28.7893L51.0877 30.6131C51.935 30.9944 52.8625 31.1758 53.8535 31.1758V29.1758ZM51.9176 28.7934C51.3908 28.55 50.9844 28.1959 50.6783 27.7194L48.9955 28.8001C49.5098 29.6009 50.2107 30.2078 51.0785 30.6089L51.9176 28.7934ZM50.6818 27.7249C50.403 27.2844 50.2305 26.6828 50.2305 25.8604H48.2305C48.2305 26.9598 48.4622 27.9578 48.992 28.7946L50.6818 27.7249ZM50.2305 25.8604V17.2031H48.2305V25.8604H50.2305ZM49.2305 18.2031H50.9092V16.2031H49.2305V18.2031ZM49.9092 17.2031V25.8604H51.9092V17.2031H49.9092ZM49.9092 25.8604C49.9092 26.6447 50.0529 27.3796 50.4086 28.0063L52.148 27.0191C52.0115 26.7786 51.9092 26.4119 51.9092 25.8604H49.9092ZM50.4086 28.0063C50.7529 28.6129 51.2462 29.0797 51.8739 29.381L52.7394 27.578C52.4882 27.4574 52.2959 27.2797 52.148 27.0191L50.4086 28.0063ZM51.8786 29.3832C52.4806 29.6684 53.1472 29.7959 53.8535 29.7959V27.7959C53.3879 27.7959 53.0233 27.7124 52.7347 27.5758L51.8786 29.3832ZM53.8535 29.7959C54.5636 29.7959 55.2328 29.6692 55.8331 29.381L54.9677 27.578C54.6891 27.7117 54.327 27.7959 53.8535 27.7959V29.7959ZM55.8285 29.3832C56.462 29.0831 56.9609 28.6165 57.3072 28.0063L55.5678 27.0191C55.422 27.2761 55.2294 27.454 54.9723 27.5758L55.8285 29.3832ZM57.3072 28.0063C57.6629 27.3796 57.8066 26.6447 57.8066 25.8604H55.8066C55.8066 26.4119 55.7043 26.7786 55.5678 27.0191L57.3072 28.0063ZM57.8066 25.8604V17.2031H55.8066V25.8604H57.8066ZM62.5371 22.3184H63.5371V22.28L63.5342 22.2417L62.5371 22.3184ZM62.5371 33.6562V34.6562H63.5371V33.6562H62.5371ZM60.9023 33.6562H59.9023V34.6562H60.9023V33.6562ZM60.9023 20.4902V19.4902H59.9023V20.4902H60.9023ZM62.3965 20.4902L63.3935 20.4135L63.3225 19.4902H62.3965V20.4902ZM68.6982 27.2754L69.6612 27.545L69.6619 27.5425L68.6982 27.2754ZM67.9775 28.8047L67.1697 28.2152L67.1645 28.2224L67.9775 28.8047ZM63.6533 29.877L63.258 30.7955L63.6533 29.877ZM61.7021 27.6357L60.7587 27.9675L60.7621 27.9767L61.7021 27.6357ZM61.3154 25.834H60.3154V25.8865L60.3209 25.9387L61.3154 25.834ZM61.3154 24.8496L60.3204 24.7501L60.3154 24.7997V24.8496H61.3154ZM62.4756 21.5361L61.6981 20.9073L61.697 20.9086L62.4756 21.5361ZM63.6445 20.6309L64.0539 21.5433L64.0636 21.5388L63.6445 20.6309ZM66.8174 20.666L66.3656 21.5582L66.3747 21.5627L66.8174 20.666ZM68.6982 23.1885L67.7315 23.4444L67.7346 23.4556L68.6982 23.1885ZM67.1602 23.8301L66.1869 24.0599L66.1876 24.0629L67.1602 23.8301ZM66.6943 22.7227L65.8507 23.2595L65.8564 23.2685L65.8623 23.2774L66.6943 22.7227ZM65.9033 21.9668L65.4004 22.8312L65.4123 22.8379L65.9033 21.9668ZM63.6797 21.8965L63.2606 20.9885L63.2539 20.9917L63.6797 21.8965ZM62.915 22.4678L63.6584 23.1368L63.6665 23.1276L62.915 22.4678ZM62.3965 23.2764L61.4819 22.8718L61.4783 22.8803L62.3965 23.2764ZM62.1064 24.208L61.1259 24.0119L61.1064 24.109V24.208H62.1064ZM62.1064 26.4844H61.1064V26.6244L61.1449 26.7591L62.1064 26.4844ZM62.5986 27.6445L61.7338 28.1467L61.7374 28.1528L62.5986 27.6445ZM63.4424 28.5146L62.9073 29.3595L62.9175 29.3658L63.4424 28.5146ZM65.9033 28.5674L66.4012 29.4347L66.4062 29.4317L65.9033 28.5674ZM66.6943 27.8027L65.8576 27.255L65.8507 27.2659L66.6943 27.8027ZM67.1602 26.6953L68.1327 26.9282L68.1334 26.9251L67.1602 26.6953ZM61.5371 22.3184V33.6562H63.5371V22.3184H61.5371ZM62.5371 32.6562H60.9023V34.6562H62.5371V32.6562ZM61.9023 33.6562V20.4902H59.9023V33.6562H61.9023ZM60.9023 21.4902H62.3965V19.4902H60.9023V21.4902ZM61.3994 20.5669L61.5401 22.3951L63.5342 22.2417L63.3935 20.4135L61.3994 20.5669ZM67.9443 25.166V25.3506H69.9443V25.166H67.9443ZM67.9443 25.3506C67.9443 25.9629 67.8717 26.5136 67.7346 27.0082L69.6619 27.5425C69.8529 26.8536 69.9443 26.1211 69.9443 25.3506H67.9443ZM67.7353 27.0058C67.5992 27.4919 67.407 27.8901 67.1697 28.2152L68.7853 29.3942C69.1809 28.8521 69.4692 28.2308 69.6612 27.545L67.7353 27.0058ZM67.1645 28.2224C66.9416 28.5336 66.6754 28.765 66.3609 28.9303L67.2915 30.7006C67.891 30.3854 68.3923 29.9429 68.7905 29.387L67.1645 28.2224ZM66.3609 28.9303C66.0671 29.0847 65.7065 29.1758 65.2529 29.1758V31.1758C65.983 31.1758 66.6712 31.0266 67.2915 30.7006L66.3609 28.9303ZM65.2529 29.1758C64.759 29.1758 64.3645 29.0944 64.0486 28.9584L63.258 30.7955C63.8679 31.058 64.5398 31.1758 65.2529 31.1758V29.1758ZM64.0486 28.9584C63.7264 28.8197 63.4602 28.6224 63.239 28.3609L61.7122 29.6528C62.1355 30.153 62.6545 30.5357 63.258 30.7955L64.0486 28.9584ZM63.239 28.3609C63.0029 28.0819 62.8007 27.7318 62.6422 27.2948L60.7621 27.9767C60.9903 28.6061 61.3037 29.17 61.7122 29.6528L63.239 28.3609ZM62.6455 27.304C62.4881 26.8565 62.3736 26.3339 62.3099 25.7293L60.3209 25.9387C60.3979 26.67 60.5412 27.3486 60.7588 27.9675L62.6455 27.304ZM62.3154 25.834V24.8496H60.3154V25.834H62.3154ZM62.3105 24.9491C62.3745 24.309 62.4924 23.7578 62.6556 23.2881L60.7663 22.6318C60.5428 23.2754 60.397 23.984 60.3204 24.7501L62.3105 24.9491ZM62.6556 23.2881C62.8174 22.8221 63.0209 22.453 63.2542 22.1637L61.697 20.9086C61.2974 21.4044 60.9912 21.9845 60.7663 22.6318L62.6556 23.2881ZM63.2531 22.165C63.479 21.8857 63.7435 21.6825 64.0539 21.5432L63.2351 19.7185C62.6315 19.9894 62.1167 20.3896 61.6981 20.9073L63.2531 22.165ZM64.0636 21.5388C64.3669 21.3988 64.7468 21.3145 65.2266 21.3145V19.3145C64.511 19.3145 63.8362 19.441 63.2255 19.7229L64.0636 21.5388ZM65.2266 21.3145C65.6912 21.3145 66.0627 21.4048 66.3657 21.5582L67.2691 19.7739C66.6463 19.4585 65.9573 19.3145 65.2266 19.3145V21.3145ZM66.3747 21.5627C66.6904 21.7185 66.9576 21.9413 67.1824 22.2451L68.7903 21.0557C68.3822 20.504 67.8702 20.0705 67.26 19.7693L66.3747 21.5627ZM67.1824 22.2451C67.4125 22.5561 67.6005 22.9494 67.7315 23.4444L69.6649 22.9326C69.4796 22.2322 69.193 21.6001 68.7903 21.0557L67.1824 22.2451ZM67.7346 23.4556C67.8706 23.9462 67.9443 24.5137 67.9443 25.166H69.9443C69.9443 24.3652 69.854 23.6143 69.6619 22.9213L67.7346 23.4556ZM68.3096 25.3506V25.166H66.3096V25.3506H68.3096ZM68.3096 25.166C68.3096 24.6214 68.2524 24.0973 68.1327 23.5972L66.1876 24.0629C66.2671 24.3949 66.3096 24.7614 66.3096 25.166H68.3096ZM68.1334 23.6003C68.0102 23.0786 67.8119 22.5962 67.5264 22.168L65.8623 23.2774C65.9986 23.4819 66.1109 23.7378 66.1869 24.0599L68.1334 23.6003ZM67.538 22.1858C67.2476 21.7295 66.8646 21.3607 66.3943 21.0956L65.4123 22.8379C65.5866 22.9362 65.7309 23.0713 65.8507 23.2595L67.538 22.1858ZM66.4062 21.1024C65.904 20.8102 65.3395 20.6855 64.752 20.6855V22.6855C65.055 22.6855 65.2581 22.7483 65.4004 22.8311L66.4062 21.1024ZM64.752 20.6855C64.2286 20.6855 63.7226 20.7753 63.2606 20.9885L64.0987 22.8044C64.2462 22.7364 64.455 22.6855 64.752 22.6855V20.6855ZM63.2539 20.9917C62.835 21.1888 62.4681 21.4611 62.1636 21.808L63.6665 23.1276C63.7838 22.9939 63.9267 22.8855 64.1055 22.8013L63.2539 20.9917ZM62.1717 21.7988C61.8862 22.1161 61.657 22.476 61.4819 22.8719L63.311 23.6809C63.4055 23.4673 63.522 23.2882 63.6583 23.1367L62.1717 21.7988ZM61.4783 22.8803C61.3214 23.244 61.2039 23.6216 61.1259 24.0119L63.087 24.4041C63.1379 24.1498 63.2138 23.9064 63.3147 23.6725L61.4783 22.8803ZM61.1064 24.208V26.4844H63.1064V24.208H61.1064ZM61.1449 26.7591C61.2845 27.2475 61.4807 27.7108 61.7338 28.1467L63.4634 27.1424C63.2946 26.8517 63.1628 26.5415 63.068 26.2097L61.1449 26.7591ZM61.7374 28.1528C62.0291 28.647 62.4223 29.0523 62.9073 29.3595L63.9774 27.6698C63.7593 27.5317 63.59 27.3569 63.4598 27.1363L61.7374 28.1528ZM62.9175 29.3658C63.4666 29.7044 64.104 29.8398 64.7695 29.8398V27.8398C64.3687 27.8398 64.1213 27.7585 63.9673 27.6635L62.9175 29.3658ZM64.7695 29.8398C65.348 29.8398 65.9051 29.7195 66.4012 29.4346L65.4055 27.7001C65.2688 27.7786 65.07 27.8398 64.7695 27.8398V29.8398ZM66.4062 29.4317C66.8701 29.1618 67.2493 28.7933 67.538 28.3396L65.8507 27.2659C65.7292 27.4567 65.5811 27.5979 65.4004 27.703L66.4062 29.4317ZM67.531 28.3504C67.8116 27.9217 68.0092 27.4438 68.1327 26.9282L66.1876 26.4625C66.1119 26.7788 65.9989 27.0392 65.8576 27.2551L67.531 28.3504ZM68.1334 26.9251C68.2524 26.4212 68.3096 25.8953 68.3096 25.3506H66.3096C66.3096 25.7551 66.2672 26.1257 66.1869 26.4655L68.1334 26.9251ZM72.7852 16.5H73.7852V15.5H72.7852V16.5ZM72.7852 30V31H73.7852V30H72.7852ZM71.1504 30H70.1504V31H71.1504V30ZM71.1504 16.5V15.5H70.1504V16.5H71.1504ZM71.7852 16.5V30H73.7852V16.5H71.7852ZM72.7852 29H71.1504V31H72.7852V29ZM72.1504 30V16.5H70.1504V30H72.1504ZM71.1504 17.5H72.7852V15.5H71.1504V17.5ZM75.2637 23.2412L76.2104 23.5631L76.2114 23.5603L75.2637 23.2412ZM76.125 21.7031L76.8814 22.3573L76.8857 22.3522L76.125 21.7031ZM77.4873 20.6836L77.8981 21.5954L77.9064 21.5916L77.4873 20.6836ZM81.082 20.6836L80.6629 21.5916L80.675 21.597L81.082 20.6836ZM82.4531 21.7031L81.6924 22.3522L81.6971 22.3577L81.7018 22.3631L82.4531 21.7031ZM83.3232 23.2412L82.3755 23.5603L82.3765 23.5631L83.3232 23.2412ZM82.4531 28.7959L81.6974 28.141L81.6968 28.1417L82.4531 28.7959ZM81.0908 29.8154L81.5054 30.7255L81.5099 30.7234L81.0908 29.8154ZM77.4961 29.8154L77.077 30.7234L77.0853 30.7272L77.4961 29.8154ZM76.125 28.7959L75.3643 29.445L75.369 29.4505L75.3737 29.4558L76.125 28.7959ZM76.7578 26.6953L75.7909 26.9505L75.7918 26.9538L76.7578 26.6953ZM77.2588 27.8027L76.436 28.3712L76.4431 28.3812L77.2588 27.8027ZM78.1113 28.5674L77.6282 29.443L77.64 29.4493L78.1113 28.5674ZM80.4668 28.5674L80.9446 29.4459L80.9499 29.443L80.4668 28.5674ZM81.8115 26.6953L80.848 26.4277L80.8455 26.4368L81.8115 26.6953ZM81.8115 23.8213L80.8446 24.0764L80.8467 24.0845L80.849 24.0924L81.8115 23.8213ZM81.3018 22.7051L80.4743 23.2666L80.4801 23.2751L80.486 23.2835L81.3018 22.7051ZM80.458 21.9316L79.9685 22.8036L79.9749 22.8072L80.458 21.9316ZM78.1025 21.9316L77.6194 21.056L77.613 21.0597L78.1025 21.9316ZM77.2588 22.7051L76.4382 22.1336L76.4361 22.1366L77.2588 22.7051ZM76.7578 23.8213L77.7238 24.0798L77.7247 24.0764L76.7578 23.8213ZM75.9648 25.3506V25.1484H73.9648V25.3506H75.9648ZM75.9648 25.1484C75.9648 24.5607 76.0501 24.0349 76.2104 23.5631L74.3169 22.9193C74.0789 23.6194 73.9648 24.3651 73.9648 25.1484H75.9648ZM76.2114 23.5603C76.3729 23.0805 76.5986 22.6842 76.8814 22.3573L75.3686 21.049C74.9014 21.5892 74.5529 22.2184 74.3159 22.9222L76.2114 23.5603ZM76.8857 22.3522C77.1637 22.0265 77.4978 21.7757 77.8981 21.5953L77.0765 19.7719C76.4104 20.072 75.8363 20.5008 75.3643 21.054L76.8857 22.3522ZM77.9064 21.5916C78.2924 21.4134 78.7444 21.3145 79.2803 21.3145V19.3145C78.492 19.3145 77.7487 19.4616 77.0682 19.7756L77.9064 21.5916ZM79.2803 21.3145C79.8234 21.3145 80.2781 21.4139 80.663 21.5916L81.5011 19.7756C80.8196 19.4611 80.073 19.3145 79.2803 19.3145V21.3145ZM80.675 21.597C81.081 21.7779 81.4163 22.0286 81.6924 22.3522L83.2138 21.054C82.74 20.4987 82.1612 20.0697 81.4891 19.7702L80.675 21.597ZM81.7018 22.3631C81.9883 22.6892 82.215 23.0836 82.3755 23.5603L84.271 22.9222C84.033 22.2152 83.6797 21.5842 83.2044 21.0432L81.7018 22.3631ZM82.3765 23.5631C82.5369 24.0349 82.6221 24.5607 82.6221 25.1484H84.6221C84.6221 24.3651 84.5081 23.6194 84.27 22.9193L82.3765 23.5631ZM82.6221 25.1484V25.3506H84.6221V25.1484H82.6221ZM82.6221 25.3506C82.6221 25.9384 82.5369 26.4642 82.3765 26.9359L84.27 27.5797C84.5081 26.8796 84.6221 26.1339 84.6221 25.3506H82.6221ZM82.3765 26.9359C82.2161 27.4075 81.9884 27.8053 81.6974 28.141L83.2088 29.4508C83.6796 28.9076 84.0319 28.28 84.27 27.5797L82.3765 26.9359ZM81.6968 28.1417C81.4172 28.465 81.079 28.7195 80.6718 28.9075L81.5099 30.7234C82.1691 30.4192 82.7391 29.994 83.2095 29.4501L81.6968 28.1417ZM80.6763 28.9054C80.2975 29.0779 79.8445 29.1758 79.2979 29.1758V31.1758C80.0871 31.1758 80.8294 31.0334 81.5054 30.7255L80.6763 28.9054ZM79.2979 29.1758C78.7514 29.1758 78.2938 29.078 77.9069 28.9037L77.0853 30.7272C77.7648 31.0333 78.5083 31.1758 79.2979 31.1758V29.1758ZM77.9152 28.9075C77.5065 28.7189 77.1633 28.4627 76.8763 28.136L75.3737 29.4558C75.8484 29.9963 76.4193 30.4198 77.077 30.7234L77.9152 28.9075ZM76.8857 28.1468C76.5986 27.8103 76.3718 27.4106 76.2104 26.9359L74.3169 27.5797C74.5539 28.2769 74.9014 28.9026 75.3643 29.445L76.8857 28.1468ZM76.2104 26.9359C76.0501 26.4642 75.9648 25.9384 75.9648 25.3506H73.9648C73.9648 26.1339 74.0789 26.8796 74.3169 27.5797L76.2104 26.9359ZM75.5908 25.1484V25.3506H77.5908V25.1484H75.5908ZM75.5908 25.3506C75.5908 25.9038 75.6558 26.4384 75.7909 26.9505L77.7247 26.4402C77.6372 26.1085 77.5908 25.7466 77.5908 25.3506H75.5908ZM75.7918 26.9538C75.9298 27.4696 76.1421 27.9457 76.4361 28.3712L78.0815 27.2343C77.9302 27.0153 77.8084 26.753 77.7238 26.4368L75.7918 26.9538ZM76.4431 28.3812C76.7571 28.824 77.1542 29.1814 77.6283 29.443L78.5944 27.6918C78.3888 27.5784 78.2175 27.426 78.0745 27.2243L76.4431 28.3812ZM77.64 29.4493C78.1478 29.7207 78.7104 29.8398 79.2979 29.8398V27.8398C78.983 27.8398 78.7546 27.7773 78.5827 27.6855L77.64 29.4493ZM79.2979 29.8398C79.8814 29.8398 80.4407 29.7199 80.9446 29.4459L79.989 27.6889C79.825 27.7781 79.605 27.8398 79.2979 27.8398V29.8398ZM80.9499 29.443C81.4265 29.18 81.8235 28.8195 82.1333 28.3712L80.4878 27.2343C80.3523 27.4305 80.1868 27.5797 79.9837 27.6918L80.9499 29.443ZM82.1333 28.3712C82.4273 27.9457 82.6395 27.4696 82.7775 26.9538L80.8455 26.4368C80.7609 26.753 80.6391 27.0153 80.4878 27.2343L82.1333 28.3712ZM82.775 26.963C82.9184 26.447 82.9873 25.9081 82.9873 25.3506H80.9873C80.9873 25.7423 80.939 26.0999 80.848 26.4277L82.775 26.963ZM82.9873 25.3506V25.1484H80.9873V25.3506H82.9873ZM82.9873 25.1484C82.9873 24.5957 82.9181 24.0615 82.7741 23.5502L80.849 24.0924C80.9393 24.4131 80.9873 24.7637 80.9873 25.1484H82.9873ZM82.7784 23.5661C82.6397 23.0404 82.4222 22.5564 82.1175 22.1266L80.486 23.2835C80.6383 23.4983 80.7607 23.7584 80.8446 24.0764L82.7784 23.5661ZM82.1292 22.1436C81.8201 21.688 81.4219 21.3214 80.9411 21.0561L79.9749 22.8072C80.1738 22.9169 80.3381 23.0659 80.4743 23.2666L82.1292 22.1436ZM80.9475 21.0597C80.4394 20.7744 79.8723 20.6504 79.2803 20.6504V22.6504C79.5906 22.6504 79.8086 22.7139 79.9685 22.8036L80.9475 21.0597ZM79.2803 20.6504C78.6912 20.6504 78.1278 20.7756 77.6195 21.0561L78.5856 22.8072C78.757 22.7127 78.9788 22.6504 79.2803 22.6504V20.6504ZM77.613 21.0597C77.1416 21.3243 76.7491 21.6872 76.4382 22.1336L78.0794 23.2766C78.2255 23.0667 78.3955 22.914 78.5921 22.8036L77.613 21.0597ZM76.4361 22.1366C76.1405 22.5644 75.9284 23.0449 75.7909 23.5661L77.7247 24.0764C77.8098 23.7539 77.9318 23.4903 78.0815 23.2735L76.4361 22.1366ZM75.7918 23.5628C75.656 24.0702 75.5908 24.6001 75.5908 25.1484H77.5908C77.5908 24.7593 77.637 24.4044 77.7238 24.0798L75.7918 23.5628ZM91.04 22.5029L90.1531 22.9649L90.1589 22.976L90.165 22.987L91.04 22.5029ZM88.1836 21.835L87.7711 20.924L87.7645 20.927L88.1836 21.835ZM87.4629 22.3887L86.6703 21.779L86.6653 21.7854L86.6604 21.792L87.4629 22.3887ZM87.208 23.127V24.127H88.208V23.127H87.208ZM85.582 23.127H84.582V24.127H85.582V23.127ZM86.6016 21.2109L87.2363 21.9837L87.2377 21.9825L86.6016 21.2109ZM87.7969 20.5605L88.1203 21.5068L88.1272 21.5044L87.7969 20.5605ZM91.1895 20.666L90.7833 21.5798L90.7871 21.5815L91.1895 20.666ZM92.4375 21.7295L91.5913 22.2623L91.5951 22.2684L91.5991 22.2745L92.4375 21.7295ZM92.9736 28.9365L91.9843 29.0825L91.9855 29.0904L91.9868 29.0983L92.9736 28.9365ZM93.2285 29.8594H94.2285V29.6527L94.1466 29.4629L93.2285 29.8594ZM93.2285 30V31H94.2285V30H93.2285ZM91.5322 30L90.6161 30.4008L90.8782 31H91.5322V30ZM91.3389 29.2529L90.3497 29.3995L90.3501 29.4022L91.3389 29.2529ZM91.5498 24.2344L92.5497 24.219L92.5345 23.2344H91.5498V24.2344ZM91.5674 25.377V26.377H92.5829L92.5673 25.3616L91.5674 25.377ZM88.6846 25.4912L88.8746 26.473L88.8822 26.4715L88.8898 26.4699L88.6846 25.4912ZM87.208 26.3701L88.0676 26.8812L88.0734 26.8712L87.208 26.3701ZM87.8232 28.541L87.3457 29.4196L87.357 29.4258L87.3685 29.4316L87.8232 28.541ZM91.0576 27.6621L90.2576 27.0621L90.2502 27.0721L91.0576 27.6621ZM91.4268 26.7744L92.1746 26.1106L90.5758 24.3094L90.4286 26.7133L91.4268 26.7744ZM92.1211 27.5566L93.1075 27.721L93.186 27.25L92.869 26.8928L92.1211 27.5566ZM91.0576 29.2354L91.7274 29.9779L91.7282 29.9772L91.0576 29.2354ZM89.9854 29.9121L90.3793 30.8313L90.3855 30.8286L89.9854 29.9121ZM86.9004 29.7979L86.436 30.6835L86.4404 30.6858L86.9004 29.7979ZM85.7754 28.7871L84.9241 29.3119L84.9284 29.3187L84.9327 29.3255L85.7754 28.7871ZM85.6787 26.0098L86.5677 26.4677L86.5705 26.4623L85.6787 26.0098ZM86.54 25.0342L87.1066 25.8583L87.1152 25.8522L86.54 25.0342ZM92.2686 28.374V23.4785H90.2686V28.374H92.2686ZM92.2686 23.4785C92.2686 22.9666 92.1638 22.4684 91.9151 22.0189L90.165 22.987C90.221 23.0882 90.2686 23.2404 90.2686 23.4785H92.2686ZM91.927 22.041C91.6786 21.5642 91.2991 21.2027 90.8263 20.9616L89.9179 22.7434C90.0427 22.8071 90.1085 22.8791 90.1531 22.9649L91.927 22.041ZM90.8263 20.9616C90.35 20.7189 89.8148 20.624 89.2646 20.624V22.624C89.5934 22.624 89.7964 22.6815 89.9179 22.7434L90.8263 20.9616ZM89.2646 20.624C88.7406 20.624 88.2348 20.714 87.7711 20.924L88.5961 22.7459C88.7535 22.6747 88.9684 22.624 89.2646 22.624V20.624ZM87.7645 20.927C87.3372 21.1242 86.9596 21.4028 86.6703 21.779L88.2555 22.9984C88.3177 22.9175 88.4206 22.8269 88.6027 22.7429L87.7645 20.927ZM86.6604 21.792C86.3731 22.1784 86.208 22.6308 86.208 23.127H88.208C88.208 23.0958 88.2128 23.056 88.2654 22.9854L86.6604 21.792ZM87.208 22.127H85.582V24.127H87.208V22.127ZM86.582 23.127C86.582 22.9667 86.6219 22.7885 86.7306 22.582L84.9608 21.6505C84.7179 22.1119 84.582 22.6075 84.582 23.127H86.582ZM86.7306 22.582C86.837 22.3798 86.9983 22.1791 87.2363 21.9837L85.9668 20.4382C85.5485 20.7818 85.206 21.1846 84.9608 21.6505L86.7306 22.582ZM87.2377 21.9825C87.4676 21.793 87.7566 21.6311 88.1203 21.5068L87.4735 19.6143C86.9113 19.8064 86.4035 20.0781 85.9654 20.4394L87.2377 21.9825ZM88.1272 21.5044C88.4747 21.3828 88.8823 21.3145 89.3613 21.3145V19.3145C88.6919 19.3145 88.0566 19.4102 87.4665 19.6167L88.1272 21.5044ZM89.3613 21.3145C89.9401 21.3145 90.4066 21.4124 90.7833 21.5798L91.5956 19.7522C90.9176 19.4509 90.1654 19.3145 89.3613 19.3145V21.3145ZM90.7871 21.5815C91.1449 21.7388 91.4031 21.9635 91.5913 22.2623L93.2837 21.1967C92.8742 20.5463 92.3004 20.062 91.5919 19.7506L90.7871 21.5815ZM91.5991 22.2745C91.7733 22.5426 91.8945 22.929 91.8945 23.4961H93.8945C93.8945 22.6452 93.711 21.8539 93.2759 21.1845L91.5991 22.2745ZM91.8945 23.4961V27.9258H93.8945V23.4961H91.8945ZM91.8945 27.9258C91.8945 28.2973 91.9255 28.6834 91.9843 29.0825L93.9629 28.7906C93.9163 28.4748 93.8945 28.1871 93.8945 27.9258H91.8945ZM91.9868 29.0983C92.055 29.5145 92.1589 29.9049 92.3105 30.2558L94.1466 29.4629C94.0755 29.2982 94.0094 29.0734 93.9605 28.7747L91.9868 29.0983ZM92.2285 29.8594V30H94.2285V29.8594H92.2285ZM93.2285 29H91.5322V31H93.2285V29ZM92.4484 29.5992C92.4149 29.5227 92.3676 29.3685 92.3277 29.1037L90.3501 29.4022C90.4038 29.7585 90.4855 30.1023 90.6161 30.4008L92.4484 29.5992ZM92.3281 29.1064C92.2871 28.8298 92.2686 28.5865 92.2686 28.374H90.2686C90.2686 28.7007 90.2969 29.0432 90.3497 29.3995L92.3281 29.1064ZM90.5499 24.2498L90.5675 25.3923L92.5673 25.3616L92.5497 24.219L90.5499 24.2498ZM91.5674 24.377H89.9238V26.377H91.5674V24.377ZM89.9238 24.377C89.4081 24.377 88.9243 24.4192 88.4794 24.5125L88.8898 26.4699C89.1714 26.4109 89.5138 26.377 89.9238 26.377V24.377ZM88.4945 24.5094C88.0493 24.5956 87.6286 24.7371 87.259 24.9571L88.282 26.6757C88.4046 26.6027 88.5933 26.5274 88.8746 26.473L88.4945 24.5094ZM87.259 24.9571C86.8833 25.1808 86.5663 25.4826 86.3426 25.8691L88.0734 26.8712C88.1075 26.8123 88.1656 26.745 88.282 26.6757L87.259 24.9571ZM86.3485 25.859C86.1137 26.254 86.0146 26.6914 86.0146 27.1348H88.0146C88.0146 26.9922 88.0445 26.9199 88.0675 26.8812L86.3485 25.859ZM86.0146 27.1348C86.0146 27.5902 86.1191 28.0295 86.3397 28.4325L88.0939 27.4718C88.045 27.3826 88.0146 27.277 88.0146 27.1348H86.0146ZM86.3397 28.4325C86.5752 28.8626 86.9239 29.1904 87.3457 29.4196L88.3008 27.6624C88.1835 27.5987 88.1279 27.5339 88.0939 27.4718L86.3397 28.4325ZM87.3685 29.4316C87.8194 29.6619 88.3216 29.752 88.834 29.752V27.752C88.5495 27.752 88.3779 27.7014 88.278 27.6504L87.3685 29.4316ZM88.834 29.752C89.4768 29.752 90.0875 29.6146 90.6368 29.3103L89.6678 27.5608C89.4555 27.6784 89.1872 27.752 88.834 27.752V29.752ZM90.6368 29.3103C91.1253 29.0398 91.5445 28.6908 91.865 28.2521L90.2502 27.0721C90.1255 27.2428 89.9411 27.4094 89.6678 27.5608L90.6368 29.3103ZM91.8576 28.2621C92.1661 27.8508 92.3921 27.3717 92.4249 26.8355L90.4286 26.7133C90.4263 26.7513 90.4061 26.8641 90.2576 27.0621L91.8576 28.2621ZM90.6789 27.4383L91.3732 28.2205L92.869 26.8928L92.1746 26.1106L90.6789 27.4383ZM91.1347 27.3922C91.1212 27.4731 91.0727 27.6241 90.9326 27.8546L92.6416 28.8934C92.8648 28.5263 93.0389 28.1324 93.1075 27.721L91.1347 27.3922ZM90.9326 27.8546C90.8091 28.0578 90.6322 28.272 90.3871 28.4935L91.7282 29.9772C92.0924 29.648 92.4019 29.2879 92.6416 28.8934L90.9326 27.8546ZM90.3878 28.4928C90.1785 28.6816 89.915 28.8516 89.5852 28.9957L90.3855 30.8286C90.8877 30.6093 91.3391 30.3281 91.7274 29.9779L90.3878 28.4928ZM89.5914 28.993C89.3236 29.1077 88.9978 29.1758 88.5967 29.1758V31.1758C89.2269 31.1758 89.8268 31.068 90.3793 30.8313L89.5914 28.993ZM88.5967 29.1758C88.084 29.1758 87.6814 29.0763 87.3604 28.9099L86.4404 30.6858C87.092 31.0233 87.8203 31.1758 88.5967 31.1758V29.1758ZM87.3648 28.9122C87.0252 28.7341 86.7861 28.5117 86.6181 28.2487L84.9327 29.3255C85.3037 29.9062 85.8146 30.3576 86.436 30.6835L87.3648 28.9122ZM86.6266 28.2624C86.4651 28.0004 86.3799 27.7061 86.3799 27.3545H84.3799C84.3799 28.0576 84.5583 28.7184 84.9241 29.3119L86.6266 28.2624ZM86.3799 27.3545C86.3799 26.9767 86.453 26.6903 86.5677 26.4677L84.7897 25.5518C84.506 26.1026 84.3799 26.7128 84.3799 27.3545H86.3799ZM86.5705 26.4623C86.6914 26.2239 86.8645 26.0246 87.1066 25.8582L85.9735 24.2101C85.4656 24.5593 85.0644 25.0104 84.787 25.5572L86.5705 26.4623ZM87.1152 25.8522C87.3744 25.67 87.7097 25.5156 88.1412 25.4054L87.646 23.4677C87.0227 23.6269 86.4557 23.871 85.9649 24.2162L87.1152 25.8522ZM88.1412 25.4054C88.5737 25.2948 89.0776 25.2344 89.6602 25.2344V23.2344C88.9419 23.2344 88.2681 23.3087 87.646 23.4677L88.1412 25.4054ZM89.6602 25.2344H91.5498V23.2344H89.6602V25.2344ZM101.446 28.1543H100.446V28.1923L100.449 28.2303L101.446 28.1543ZM101.446 16.5V15.5H100.446V16.5H101.446ZM103.081 16.5H104.081V15.5H103.081V16.5ZM103.081 30V31H104.081V30H103.081ZM101.587 30L100.59 30.076L100.66 31H101.587V30ZM95.3115 23.1885L94.3547 22.8977L94.3529 22.9037L95.3115 23.1885ZM96.0762 21.6504L95.288 21.0349L95.2827 21.0417L96.0762 21.6504ZM97.2627 20.666L97.7099 21.5605L97.7144 21.5582L97.2627 20.666ZM100.374 20.6309L99.9459 21.5346L99.9531 21.538L99.9602 21.5412L100.374 20.6309ZM101.517 21.5361L100.728 22.1509L100.733 22.1573L100.738 22.1637L101.517 21.5361ZM102.642 24.8496H103.642V24.7997L103.637 24.7501L102.642 24.8496ZM102.642 25.6582L103.637 25.7502L103.642 25.7043V25.6582H102.642ZM102.264 27.5391L101.316 27.2198L101.313 27.2288L102.264 27.5391ZM101.517 28.9629L100.738 28.3353L100.732 28.3425L101.517 28.9629ZM100.374 29.8682L100.788 30.7786L100.798 30.774L100.374 29.8682ZM97.2627 29.8154L96.7974 30.7006L96.8021 30.703L97.2627 29.8154ZM96.0762 28.8047L95.2787 29.4082L95.2839 29.4149L96.0762 28.8047ZM95.3115 27.2754L94.3528 27.5601L94.3564 27.5715L95.3115 27.2754ZM96.8232 26.6865L95.8476 26.9064L95.8507 26.9194L96.8232 26.6865ZM98.0625 28.5322L97.5646 29.3996L97.5769 29.4064L98.0625 28.5322ZM100.523 28.4531L99.9784 27.6147L99.972 27.6189L100.523 28.4531ZM101.859 26.3262L102.826 26.5838L102.859 26.4572V26.3262H101.859ZM101.859 24.208H102.859V24.1002L102.836 23.9948L101.859 24.208ZM101.552 23.2764L100.631 23.666L100.635 23.6768L100.64 23.6875L101.552 23.2764ZM101.042 22.4678L100.281 23.117L100.29 23.127L100.299 23.1367L101.042 22.4678ZM100.277 21.8965L99.8515 22.8013L99.8583 22.8044L100.277 21.8965ZM98.0625 21.9668L98.5604 22.8341L98.5654 22.8311L98.0625 21.9668ZM97.2803 22.7227L98.1195 23.2666L98.1239 23.2595L97.2803 22.7227ZM96.8232 23.8301L95.85 23.6003L95.8477 23.6102L96.8232 23.8301ZM102.446 28.1543V16.5H100.446V28.1543H102.446ZM101.446 17.5H103.081V15.5H101.446V17.5ZM102.081 16.5V30H104.081V16.5H102.081ZM103.081 29H101.587V31H103.081V29ZM102.584 29.924L102.443 28.0783L100.449 28.2303L100.59 30.076L102.584 29.924ZM96.0479 25.3506V25.166H94.0479V25.3506H96.0479ZM96.0479 25.166C96.0479 24.5193 96.1261 23.958 96.2701 23.4732L94.3529 22.9037C94.1453 23.6026 94.0479 24.3596 94.0479 25.166H96.0479ZM96.2683 23.4793C96.4205 22.9786 96.6252 22.5777 96.8696 22.2591L95.2827 21.0417C94.8709 21.5786 94.5658 22.2031 94.3547 22.8977L96.2683 23.4793ZM96.8644 22.2658C97.1126 21.9478 97.394 21.7184 97.7099 21.5604L96.8155 19.7716C96.2173 20.0707 95.7077 20.4975 95.288 21.035L96.8644 22.2658ZM97.7144 21.5582C98.0243 21.4013 98.3829 21.3145 98.8096 21.3145V19.3145C98.0995 19.3145 97.4269 19.462 96.811 19.7739L97.7144 21.5582ZM98.8096 21.3145C99.2901 21.3145 99.6599 21.3991 99.9459 21.5346L100.802 19.7271C100.198 19.4408 99.5243 19.3145 98.8096 19.3145V21.3145ZM99.9602 21.5412C100.261 21.6782 100.515 21.8772 100.728 22.1509L102.305 20.9214C101.898 20.3981 101.389 19.9937 100.788 19.7205L99.9602 21.5412ZM100.738 22.1637C100.967 22.4479 101.163 22.8106 101.313 23.2702L103.214 22.6497C103.001 21.9961 102.699 21.4096 102.295 20.9086L100.738 22.1637ZM101.313 23.2702C101.468 23.746 101.582 24.3034 101.647 24.9491L103.637 24.7501C103.561 23.9895 103.422 23.2872 103.214 22.6497L101.313 23.2702ZM101.642 24.8496V25.6582H103.642V24.8496H101.642ZM101.646 25.5662C101.587 26.2004 101.475 26.7493 101.316 27.2198L103.211 27.8583C103.428 27.2156 103.567 26.5106 103.637 25.7502L101.646 25.5662ZM101.313 27.2288C101.163 27.6885 100.967 28.0512 100.738 28.3354L102.295 29.5904C102.699 29.0895 103.001 28.5029 103.214 27.8493L101.313 27.2288ZM100.732 28.3425C100.518 28.6138 100.26 28.8175 99.9505 28.9623L100.798 30.774C101.39 30.4969 101.894 30.0971 102.301 29.5833L100.732 28.3425ZM99.9602 28.9578C99.6641 29.0924 99.2832 29.1758 98.792 29.1758V31.1758C99.5078 31.1758 100.182 31.0541 100.788 30.7785L99.9602 28.9578ZM98.792 29.1758C98.3846 29.1758 98.0344 29.0893 97.7233 28.9278L96.8021 30.703C97.4168 31.0221 98.0861 31.1758 98.792 31.1758V29.1758ZM97.728 28.9303C97.406 28.761 97.1199 28.5209 96.8684 28.1945L95.2839 29.4149C95.7005 29.9556 96.2053 30.3893 96.7974 30.7006L97.728 28.9303ZM96.8736 28.2012C96.6238 27.8712 96.4183 27.4685 96.2667 26.9793L94.3564 27.5715C94.568 28.2542 94.8723 28.871 95.2788 29.4081L96.8736 28.2012ZM96.2701 26.9907C96.1249 26.5016 96.0479 25.957 96.0479 25.3506H94.0479C94.0479 26.127 94.1466 26.8656 94.3529 27.5601L96.2701 26.9907ZM95.6826 25.166V25.3506H97.6826V25.166H95.6826ZM95.6826 25.3506C95.6826 25.891 95.736 26.4106 95.8477 26.9064L97.7988 26.4667C97.723 26.1304 97.6826 25.7594 97.6826 25.3506H95.6826ZM95.8507 26.9194C95.9733 27.4312 96.1665 27.9054 96.4411 28.3291L98.1194 27.2413C97.9839 27.0321 97.8724 26.7739 97.7958 26.4537L95.8507 26.9194ZM96.4411 28.3291C96.7296 28.7742 97.1057 29.136 97.5646 29.3995L98.5604 27.665C98.3865 27.5652 98.2411 27.4289 98.1194 27.2413L96.4411 28.3291ZM97.5769 29.4064C98.0705 29.6806 98.6231 29.7959 99.1963 29.7959V27.7959C98.8906 27.7959 98.6873 27.7354 98.5481 27.6581L97.5769 29.4064ZM99.1963 29.7959C99.8732 29.7959 100.523 29.6522 101.075 29.2873L99.972 27.6189C99.8325 27.7111 99.5975 27.7959 99.1963 27.7959V29.7959ZM101.068 29.2916C101.559 28.9727 101.951 28.55 102.239 28.0381L100.496 27.0576C100.362 27.2957 100.191 27.4765 99.9785 27.6147L101.068 29.2916ZM102.239 28.0381C102.493 27.5858 102.688 27.0999 102.826 26.5838L100.893 26.0685C100.796 26.4314 100.663 26.7599 100.496 27.0576L102.239 28.0381ZM102.859 26.3262V24.208H100.859V26.3262H102.859ZM102.836 23.9948C102.751 23.6049 102.627 23.228 102.463 22.8653L100.64 23.6875C100.746 23.9224 100.827 24.1666 100.882 24.4212L102.836 23.9948ZM102.473 22.8867C102.303 22.4848 102.074 22.1198 101.785 21.7988L100.299 23.1367C100.432 23.2845 100.543 23.4586 100.631 23.666L102.473 22.8867ZM101.803 21.8185C101.498 21.4616 101.124 21.1858 100.696 20.9885L99.8583 22.8044C100.04 22.8884 100.176 22.9935 100.281 23.117L101.803 21.8185ZM100.703 20.9917C100.243 20.7751 99.7365 20.6855 99.2139 20.6855V22.6855C99.5115 22.6855 99.7141 22.7366 99.8515 22.8013L100.703 20.9917ZM99.2139 20.6855C98.6263 20.6855 98.0618 20.8102 97.5596 21.1024L98.5654 22.8311C98.7077 22.7483 98.9108 22.6855 99.2139 22.6855V20.6855ZM97.5646 21.0995C97.1013 21.3655 96.7243 21.7337 96.4366 22.1858L98.1239 23.2595C98.2464 23.0671 98.3909 22.9313 98.5604 22.8341L97.5646 21.0995ZM96.4411 22.1788C96.1651 22.6046 95.9721 23.0832 95.85 23.6003L97.7965 24.0599C97.8736 23.7332 97.9853 23.4735 98.1194 23.2666L96.4411 22.1788ZM95.8477 23.6102C95.736 24.106 95.6826 24.6256 95.6826 25.166H97.6826C97.6826 24.7572 97.723 24.3862 97.7988 24.0499L95.8477 23.6102ZM112.143 17.2031H113.143V16.2031H112.143V17.2031ZM112.143 30V31H113.143V30H112.143ZM110.446 30H109.446V31H110.446V30ZM110.446 17.2031V16.2031H109.446V17.2031H110.446ZM111.143 17.2031V30H113.143V17.2031H111.143ZM112.143 29H110.446V31H112.143V29ZM111.446 30V17.2031H109.446V30H111.446ZM110.446 18.2031H112.143V16.2031H110.446V18.2031ZM116.599 22.3799H117.599V22.3566L117.598 22.3334L116.599 22.3799ZM116.599 30V31H117.599V30H116.599ZM114.964 30H113.964V31H114.964V30ZM114.964 20.4902V19.4902H113.964V20.4902H114.964ZM116.511 20.4902L117.51 20.4438L117.465 19.4902H116.511V20.4902ZM116.265 24.8848L116.23 25.8842L117.265 25.9203V24.8848H116.265ZM115.509 24.8584L114.509 24.8494L114.5 25.8238L115.474 25.8578L115.509 24.8584ZM115.764 23.0566L116.722 23.3421L116.723 23.3394L115.764 23.0566ZM117.697 20.6572L118.118 21.5646L118.127 21.5603L117.697 20.6572ZM120.598 20.5078L120.273 21.4536L120.286 21.458L120.598 20.5078ZM122.443 30V31H123.443V30H122.443ZM120.817 30H119.817V31H120.817V30ZM120.562 22.5469L119.686 23.0281L119.69 23.0347L119.693 23.0412L120.562 22.5469ZM119.859 21.8965L119.44 22.8044L119.448 22.8078L119.455 22.811L119.859 21.8965ZM116.388 23.6719L115.412 23.4502L115.41 23.4613L116.388 23.6719ZM122.426 23.9883L122.719 24.9444L123.426 24.7277V23.9883H122.426ZM121.336 24.3223L120.336 24.311L120.321 25.6793L121.629 25.2784L121.336 24.3223ZM121.591 22.8193L120.648 22.4859L120.644 22.4962L121.591 22.8193ZM122.32 21.5361L121.562 20.8843L121.556 20.8913L122.32 21.5361ZM123.507 20.6484L123.927 21.5561L123.936 21.5517L123.507 20.6484ZM126.469 20.5166L126.144 21.4624L126.148 21.4639L126.469 20.5166ZM127.471 21.1406L126.749 21.8325L126.756 21.8402L126.764 21.8477L127.471 21.1406ZM128.306 30V31H129.306V30H128.306ZM126.671 30H125.671V31H126.671V30ZM126.416 22.4941L125.539 22.9754L125.545 22.9857L125.551 22.9959L126.416 22.4941ZM125.713 21.8701L125.332 22.7948L125.343 22.7993L125.354 22.8035L125.713 21.8701ZM122.997 22.3799L123.745 23.0443L123.753 23.034L122.997 22.3799ZM122.566 23.1094L121.626 22.7692L121.623 22.7781L121.62 22.7871L122.566 23.1094ZM115.599 22.3799V30H117.599V22.3799H115.599ZM116.599 29H114.964V31H116.599V29ZM115.964 30V20.4902H113.964V30H115.964ZM114.964 21.4902H116.511V19.4902H114.964V21.4902ZM115.512 20.5367L115.6 22.4263L117.598 22.3334L117.51 20.4438L115.512 20.5367ZM116.3 23.8854L115.544 23.859L115.474 25.8578L116.23 25.8842L116.3 23.8854ZM116.509 24.8674C116.514 24.2986 116.588 23.7922 116.722 23.3421L114.805 22.7712C114.611 23.4226 114.515 24.1175 114.509 24.8494L116.509 24.8674ZM116.723 23.3394C116.855 22.8907 117.044 22.5241 117.279 22.2243L115.707 20.9886C115.298 21.5091 115 22.1093 114.804 22.7739L116.723 23.3394ZM117.279 22.2243C117.503 21.94 117.778 21.7219 118.118 21.5645L117.277 19.7499C116.656 20.0378 116.128 20.4525 115.707 20.9886L117.279 22.2243ZM118.127 21.5603C118.45 21.4066 118.855 21.3145 119.367 21.3145V19.3145C118.614 19.3145 117.905 19.4509 117.268 19.7542L118.127 21.5603ZM119.367 21.3145C119.715 21.3145 120.014 21.3647 120.273 21.4535L120.923 19.5621C120.431 19.3931 119.91 19.3145 119.367 19.3145V21.3145ZM120.286 21.458C120.519 21.5345 120.711 21.6516 120.874 21.8113L122.273 20.382C121.885 20.0027 121.426 19.7273 120.909 19.5577L120.286 21.458ZM120.874 21.8113C121.025 21.9597 121.165 22.17 121.274 22.4734L123.155 21.7941C122.96 21.2538 122.672 20.7728 122.273 20.382L120.874 21.8113ZM121.274 22.4734C121.377 22.7569 121.443 23.1451 121.443 23.6631H123.443C123.443 22.9858 123.358 22.3544 123.155 21.7941L121.274 22.4734ZM121.443 23.6631V30H123.443V23.6631H121.443ZM122.443 29H120.817V31H122.443V29ZM121.817 30V23.7422H119.817V30H121.817ZM121.817 23.7422C121.817 23.1437 121.717 22.5548 121.432 22.0526L119.693 23.0412C119.747 23.1366 119.817 23.3446 119.817 23.7422H121.817ZM121.439 22.0656C121.172 21.5793 120.774 21.2077 120.264 20.9819L119.455 22.811C119.554 22.8548 119.625 22.9168 119.686 23.0281L121.439 22.0656ZM120.278 20.9885C119.817 20.7753 119.31 20.6855 118.787 20.6855V22.6855C119.084 22.6855 119.293 22.7364 119.44 22.8044L120.278 20.9885ZM118.787 20.6855C118.194 20.6855 117.621 20.7898 117.117 21.0559L118.049 22.825C118.189 22.7512 118.419 22.6855 118.787 22.6855V20.6855ZM117.117 21.0559C116.646 21.3037 116.259 21.6541 115.97 22.1003L117.649 23.1868C117.747 23.0353 117.875 22.917 118.049 22.825L117.117 21.0559ZM115.97 22.1003C115.706 22.5082 115.523 22.9622 115.413 23.4503L117.363 23.8935C117.428 23.6081 117.526 23.3766 117.649 23.1868L115.97 22.1003ZM115.41 23.4613C115.312 23.9177 115.265 24.3931 115.265 24.8848H117.265C117.265 24.521 117.3 24.1877 117.365 23.8824L115.41 23.4613ZM122.133 23.0322L121.043 23.3662L121.629 25.2784L122.719 24.9444L122.133 23.0322ZM122.336 24.3335C122.341 23.9152 122.408 23.5198 122.537 23.1425L120.644 22.4962C120.445 23.0799 120.343 23.6863 120.336 24.311L122.336 24.3335ZM122.534 23.1528C122.665 22.7816 122.849 22.4603 123.085 22.181L121.556 20.8913C121.159 21.362 120.857 21.8962 120.648 22.4859L122.534 23.1528ZM123.079 22.1879C123.304 21.9263 123.582 21.7155 123.927 21.5561L123.087 19.7408C122.494 20.0149 121.982 20.396 121.562 20.8844L123.079 22.1879ZM123.936 21.5517C124.25 21.4023 124.636 21.3145 125.115 21.3145V19.3145C124.387 19.3145 123.701 19.4492 123.078 19.7452L123.936 21.5517ZM125.115 21.3145C125.539 21.3145 125.877 21.3706 126.144 21.4624L126.793 19.5708C126.276 19.393 125.711 19.3145 125.115 19.3145V21.3145ZM126.148 21.4639C126.407 21.5513 126.599 21.6766 126.749 21.8325L128.193 20.4487C127.803 20.0421 127.328 19.7514 126.789 19.5693L126.148 21.4639ZM126.764 21.8477C126.91 21.9938 127.043 22.2037 127.144 22.5126L129.046 21.8956C128.865 21.3373 128.582 20.8382 128.178 20.4335L126.764 21.8477ZM127.144 22.5126C127.244 22.8211 127.306 23.2274 127.306 23.751H129.306C129.306 23.0792 129.227 22.4543 129.046 21.8956L127.144 22.5126ZM127.306 23.751V30H129.306V23.751H127.306ZM128.306 29H126.671V31H128.306V29ZM127.671 30V23.7334H125.671V30H127.671ZM127.671 23.7334C127.671 23.1159 127.576 22.5014 127.281 21.9924L125.551 22.9959C125.596 23.0728 125.671 23.2845 125.671 23.7334H127.671ZM127.293 22.0129C127.02 21.5169 126.607 21.1428 126.072 20.9368L125.354 22.8035C125.428 22.8318 125.484 22.8737 125.539 22.9754L127.293 22.0129ZM126.094 20.9454C125.645 20.7606 125.151 20.6855 124.641 20.6855V22.6855C124.962 22.6855 125.183 22.7335 125.332 22.7948L126.094 20.9454ZM124.641 20.6855C124.168 20.6855 123.709 20.7671 123.283 20.9571L124.099 22.7831C124.225 22.727 124.398 22.6855 124.641 22.6855V20.6855ZM123.283 20.9571C122.882 21.1367 122.529 21.3924 122.241 21.7257L123.753 23.034C123.84 22.9338 123.95 22.8496 124.099 22.7831L123.283 20.9571ZM122.25 21.7155C121.975 22.0249 121.767 22.3791 121.626 22.7692L123.507 23.4495C123.565 23.2889 123.644 23.1568 123.744 23.0442L122.25 21.7155ZM121.62 22.7871C121.488 23.1731 121.426 23.5755 121.426 23.9883H123.426C123.426 23.7799 123.457 23.5965 123.513 23.4316L121.62 22.7871ZM136.146 22.5029L135.259 22.9649L135.264 22.976L135.27 22.987L136.146 22.5029ZM133.289 21.835L132.877 20.924L132.87 20.927L133.289 21.835ZM132.568 22.3887L131.776 21.779L131.771 21.7854L131.766 21.792L132.568 22.3887ZM132.313 23.127V24.127H133.313V23.127H132.313ZM130.688 23.127H129.688V24.127H130.688V23.127ZM131.707 21.2109L132.342 21.9837L132.343 21.9825L131.707 21.2109ZM132.902 20.5605L133.226 21.5068L133.233 21.5044L132.902 20.5605ZM136.295 20.666L135.889 21.5798L135.893 21.5815L136.295 20.666ZM137.543 21.7295L136.697 22.2623L136.701 22.2684L136.705 22.2745L137.543 21.7295ZM138.079 28.9365L137.09 29.0825L137.091 29.0904L137.092 29.0983L138.079 28.9365ZM138.334 29.8594H139.334V29.6527L139.252 29.4629L138.334 29.8594ZM138.334 30V31H139.334V30H138.334ZM136.638 30L135.722 30.4008L135.984 31H136.638V30ZM136.444 29.2529L135.455 29.3995L135.456 29.4022L136.444 29.2529ZM136.655 24.2344L137.655 24.219L137.64 23.2344H136.655V24.2344ZM136.673 25.377V26.377H137.688L137.673 25.3616L136.673 25.377ZM133.79 25.4912L133.98 26.473L133.988 26.4715L133.995 26.4699L133.79 25.4912ZM132.313 26.3701L133.173 26.8812L133.179 26.8712L132.313 26.3701ZM132.929 28.541L132.451 29.4196L132.462 29.4258L132.474 29.4316L132.929 28.541ZM136.163 27.6621L135.363 27.0621L135.356 27.0721L136.163 27.6621ZM136.532 26.7744L137.28 26.1106L135.681 24.3094L135.534 26.7133L136.532 26.7744ZM137.227 27.5566L138.213 27.721L138.291 27.25L137.974 26.8928L137.227 27.5566ZM136.163 29.2354L136.833 29.9779L136.834 29.9772L136.163 29.2354ZM135.091 29.9121L135.485 30.8313L135.491 30.8286L135.091 29.9121ZM132.006 29.7979L131.541 30.6835L131.546 30.6858L132.006 29.7979ZM130.881 28.7871L130.03 29.3119L130.034 29.3187L130.038 29.3255L130.881 28.7871ZM130.784 26.0098L131.673 26.4677L131.676 26.4623L130.784 26.0098ZM131.646 25.0342L132.212 25.8583L132.221 25.8522L131.646 25.0342ZM137.374 28.374V23.4785H135.374V28.374H137.374ZM137.374 23.4785C137.374 22.9666 137.269 22.4684 137.021 22.0189L135.27 22.987C135.326 23.0882 135.374 23.2404 135.374 23.4785H137.374ZM137.032 22.041C136.784 21.5642 136.405 21.2027 135.932 20.9616L135.023 22.7434C135.148 22.8071 135.214 22.8791 135.259 22.9649L137.032 22.041ZM135.932 20.9616C135.456 20.7189 134.92 20.624 134.37 20.624V22.624C134.699 22.624 134.902 22.6815 135.023 22.7434L135.932 20.9616ZM134.37 20.624C133.846 20.624 133.34 20.714 132.877 20.924L133.702 22.7459C133.859 22.6747 134.074 22.624 134.37 22.624V20.624ZM132.87 20.927C132.443 21.1242 132.065 21.4028 131.776 21.779L133.361 22.9984C133.423 22.9175 133.526 22.8269 133.708 22.7429L132.87 20.927ZM131.766 21.792C131.479 22.1784 131.313 22.6308 131.313 23.127H133.313C133.313 23.0958 133.318 23.056 133.371 22.9854L131.766 21.792ZM132.313 22.127H130.688V24.127H132.313V22.127ZM131.688 23.127C131.688 22.9667 131.727 22.7885 131.836 22.582L130.066 21.6505C129.823 22.1119 129.688 22.6075 129.688 23.127H131.688ZM131.836 22.582C131.942 22.3798 132.104 22.1791 132.342 21.9837L131.072 20.4382C130.654 20.7818 130.311 21.1846 130.066 21.6505L131.836 22.582ZM132.343 21.9825C132.573 21.793 132.862 21.6311 133.226 21.5068L132.579 19.6143C132.017 19.8064 131.509 20.0781 131.071 20.4394L132.343 21.9825ZM133.233 21.5044C133.58 21.3828 133.988 21.3145 134.467 21.3145V19.3145C133.797 19.3145 133.162 19.4102 132.572 19.6167L133.233 21.5044ZM134.467 21.3145C135.046 21.3145 135.512 21.4124 135.889 21.5798L136.701 19.7522C136.023 19.4509 135.271 19.3145 134.467 19.3145V21.3145ZM135.893 21.5815C136.25 21.7388 136.509 21.9635 136.697 22.2623L138.389 21.1967C137.98 20.5463 137.406 20.062 136.697 19.7506L135.893 21.5815ZM136.705 22.2745C136.879 22.5426 137 22.929 137 23.4961H139C139 22.6452 138.817 21.8539 138.381 21.1845L136.705 22.2745ZM137 23.4961V27.9258H139V23.4961H137ZM137 27.9258C137 28.2973 137.031 28.6834 137.09 29.0825L139.068 28.7906C139.022 28.4748 139 28.1871 139 27.9258H137ZM137.092 29.0983C137.16 29.5145 137.264 29.9049 137.416 30.2558L139.252 29.4629C139.181 29.2982 139.115 29.0734 139.066 28.7747L137.092 29.0983ZM137.334 29.8594V30H139.334V29.8594H137.334ZM138.334 29H136.638V31H138.334V29ZM137.554 29.5992C137.52 29.5227 137.473 29.3685 137.433 29.1037L135.456 29.4022C135.509 29.7585 135.591 30.1023 135.722 30.4008L137.554 29.5992ZM137.434 29.1064C137.393 28.8298 137.374 28.5865 137.374 28.374H135.374C135.374 28.7007 135.402 29.0432 135.455 29.3995L137.434 29.1064ZM135.655 24.2498L135.673 25.3923L137.673 25.3616L137.655 24.219L135.655 24.2498ZM136.673 24.377H135.029V26.377H136.673V24.377ZM135.029 24.377C134.514 24.377 134.03 24.4192 133.585 24.5125L133.995 26.4699C134.277 26.4109 134.619 26.377 135.029 26.377V24.377ZM133.6 24.5094C133.155 24.5956 132.734 24.7371 132.364 24.9571L133.387 26.6757C133.51 26.6027 133.699 26.5274 133.98 26.473L133.6 24.5094ZM132.364 24.9571C131.989 25.1808 131.672 25.4826 131.448 25.8691L133.179 26.8712C133.213 26.8123 133.271 26.745 133.387 26.6757L132.364 24.9571ZM131.454 25.859C131.219 26.254 131.12 26.6914 131.12 27.1348H133.12C133.12 26.9922 133.15 26.9199 133.173 26.8812L131.454 25.859ZM131.12 27.1348C131.12 27.5902 131.225 28.0295 131.445 28.4325L133.199 27.4718C133.15 27.3826 133.12 27.277 133.12 27.1348H131.12ZM131.445 28.4325C131.681 28.8626 132.029 29.1904 132.451 29.4196L133.406 27.6624C133.289 27.5987 133.233 27.5339 133.199 27.4718L131.445 28.4325ZM132.474 29.4316C132.925 29.6619 133.427 29.752 133.939 29.752V27.752C133.655 27.752 133.483 27.7014 133.383 27.6504L132.474 29.4316ZM133.939 29.752C134.582 29.752 135.193 29.6146 135.742 29.3103L134.773 27.5608C134.561 27.6784 134.293 27.752 133.939 27.752V29.752ZM135.742 29.3103C136.231 29.0398 136.65 28.6908 136.97 28.2521L135.356 27.0721C135.231 27.2428 135.047 27.4094 134.773 27.5608L135.742 29.3103ZM136.963 28.2621C137.272 27.8508 137.498 27.3717 137.53 26.8355L135.534 26.7133C135.532 26.7513 135.512 26.8641 135.363 27.0621L136.963 28.2621ZM135.784 27.4383L136.479 28.2205L137.974 26.8928L137.28 26.1106L135.784 27.4383ZM136.24 27.3922C136.227 27.4731 136.178 27.6241 136.038 27.8546L137.747 28.8934C137.97 28.5263 138.144 28.1324 138.213 27.721L136.24 27.3922ZM136.038 27.8546C135.915 28.0578 135.738 28.272 135.493 28.4935L136.834 29.9772C137.198 29.648 137.507 29.2879 137.747 28.8934L136.038 27.8546ZM135.493 28.4928C135.284 28.6816 135.021 28.8516 134.691 28.9957L135.491 30.8286C135.993 30.6093 136.445 30.3281 136.833 29.9779L135.493 28.4928ZM134.697 28.993C134.429 29.1077 134.103 29.1758 133.702 29.1758V31.1758C134.332 31.1758 134.932 31.068 135.485 30.8313L134.697 28.993ZM133.702 29.1758C133.189 29.1758 132.787 29.0763 132.466 28.9099L131.546 30.6858C132.197 31.0233 132.926 31.1758 133.702 31.1758V29.1758ZM132.47 28.9122C132.131 28.7341 131.892 28.5117 131.724 28.2487L130.038 29.3255C130.409 29.9062 130.92 30.3576 131.541 30.6835L132.47 28.9122ZM131.732 28.2624C131.571 28.0004 131.485 27.7061 131.485 27.3545H129.485C129.485 28.0576 129.664 28.7184 130.03 29.3119L131.732 28.2624ZM131.485 27.3545C131.485 26.9767 131.558 26.6903 131.673 26.4677L129.895 25.5518C129.611 26.1026 129.485 26.7128 129.485 27.3545H131.485ZM131.676 26.4623C131.797 26.2239 131.97 26.0246 132.212 25.8582L131.079 24.2101C130.571 24.5593 130.17 25.0104 129.892 25.5572L131.676 26.4623ZM132.221 25.8522C132.48 25.67 132.815 25.5156 133.247 25.4054L132.751 23.4677C132.128 23.6269 131.561 23.871 131.07 24.2162L132.221 25.8522ZM133.247 25.4054C133.679 25.2948 134.183 25.2344 134.766 25.2344V23.2344C134.047 23.2344 133.374 23.3087 132.751 23.4677L133.247 25.4054ZM134.766 25.2344H136.655V23.2344H134.766V25.2344ZM146.719 20.4902V19.4902H145.788L145.721 20.419L146.719 20.4902ZM148.195 20.4902H149.195V19.4902H148.195V20.4902ZM146.262 33.2871L145.814 32.3926L145.804 32.3979L146.262 33.2871ZM143.01 33.5947L143.24 32.6216L143.231 32.6195L143.01 33.5947ZM141.709 33.0762L142.208 32.2094L142.204 32.2072L141.709 33.0762ZM140.646 32.1006L139.895 31.4392L139.375 32.0294L139.826 32.674L140.646 32.1006ZM141.498 31.1338L142.268 30.4955L141.521 29.5954L140.748 30.4724L141.498 31.1338ZM142.746 32.1357L142.349 33.0536L142.354 33.0555L142.746 32.1357ZM146.253 31.2656L145.381 30.7754L145.377 30.7834L145.372 30.7915L146.253 31.2656ZM146.569 22.582L145.572 22.5108L145.569 22.5464V22.582H146.569ZM140.426 23.1885L139.466 22.9063L139.465 22.9125L140.426 23.1885ZM141.173 21.6504L140.379 21.0417L140.374 21.0486L141.173 21.6504ZM142.359 20.666L142.802 21.5627L142.811 21.5582L142.359 20.666ZM145.488 20.6309L145.06 21.5346L145.067 21.538L145.074 21.5412L145.488 20.6309ZM146.631 21.5361L145.842 22.1509L145.847 22.1573L145.852 22.1637L146.631 21.5361ZM147.756 24.8496H148.756V24.7997L148.751 24.7501L147.756 24.8496ZM147.756 25.6582L148.752 25.7502L148.756 25.7043V25.6582H147.756ZM147.378 27.5391L146.43 27.2198L146.427 27.2288L147.378 27.5391ZM146.631 28.9629L145.852 28.3353L145.847 28.3425L146.631 28.9629ZM145.488 29.8682L145.902 30.7786L145.912 30.774L145.488 29.8682ZM142.359 29.8154L141.894 30.7006L141.899 30.703L142.359 29.8154ZM140.426 27.2754L139.465 27.5514L139.468 27.5627L140.426 27.2754ZM141.938 26.6865L140.962 26.9064L140.965 26.9194L141.938 26.6865ZM142.386 27.7852L141.539 28.318L141.547 28.3291L142.386 27.7852ZM143.168 28.5322L142.67 29.3996L142.682 29.4064L143.168 28.5322ZM146.473 27.5479L145.601 27.0576L145.595 27.068L146.473 27.5479ZM146.965 26.3262L147.931 26.5838L147.965 26.4572V26.3262H146.965ZM146.965 24.208H147.965V24.109L147.945 24.0119L146.965 24.208ZM146.666 23.2764L145.745 23.666L145.75 23.6768L145.754 23.6875L146.666 23.2764ZM146.156 22.4678L145.396 23.117L145.404 23.127L145.413 23.1367L146.156 22.4678ZM143.168 21.9668L143.666 22.8341L143.671 22.8311L143.168 21.9668ZM142.386 22.7227L141.542 22.1858L141.54 22.1898L142.386 22.7227ZM141.938 23.8301L140.964 23.6003L140.962 23.6102L141.938 23.8301ZM146.719 21.4902H148.195V19.4902H146.719V21.4902ZM147.195 20.4902V29.7979H149.195V20.4902H147.195ZM147.195 29.7979C147.195 30.5005 147.053 31.0351 146.818 31.4444L148.553 32.4404C148.997 31.6661 149.195 30.771 149.195 29.7979H147.195ZM146.818 31.4444C146.576 31.8659 146.248 32.1761 145.815 32.3927L146.709 34.1815C147.495 33.7887 148.115 33.2024 148.553 32.4404L146.818 31.4444ZM145.804 32.3979C145.364 32.6245 144.828 32.7529 144.17 32.7529V34.7529C145.094 34.7529 145.953 34.5708 146.719 34.1763L145.804 32.3979ZM144.17 32.7529C143.943 32.7529 143.637 32.7157 143.24 32.6216L142.779 34.5678C143.273 34.6847 143.74 34.7529 144.17 34.7529V32.7529ZM143.231 32.6195C142.898 32.5439 142.557 32.4104 142.208 32.2094L141.21 33.9429C141.716 34.2342 142.243 34.4463 142.789 34.57L143.231 32.6195ZM142.204 32.2072C141.915 32.0426 141.67 31.8199 141.465 31.5271L139.826 32.674C140.196 33.2016 140.66 33.6293 141.214 33.9452L142.204 32.2072ZM141.396 32.762L142.248 31.7952L140.748 30.4724L139.895 31.4392L141.396 32.762ZM140.728 31.7721C141.196 32.3364 141.732 32.7868 142.349 33.0536L143.143 31.2179C142.893 31.1097 142.597 30.8921 142.268 30.4955L140.728 31.7721ZM142.354 33.0555C142.903 33.2898 143.469 33.417 144.047 33.417V31.417C143.769 31.417 143.468 31.3567 143.139 31.216L142.354 33.0555ZM144.047 33.417C144.687 33.417 145.296 33.2967 145.841 33.0158L144.925 31.2381C144.719 31.344 144.438 31.417 144.047 31.417V33.417ZM145.841 33.0158C146.4 32.7275 146.835 32.2935 147.133 31.7397L145.372 30.7915C145.26 30.9995 145.115 31.1397 144.925 31.2381L145.841 33.0158ZM147.125 31.7559C147.44 31.1949 147.569 30.5524 147.569 29.877H145.569C145.569 30.3031 145.488 30.5863 145.381 30.7754L147.125 31.7559ZM147.569 29.877V22.582H145.569V29.877H147.569ZM147.567 22.6533L147.716 20.5615L145.721 20.419L145.572 22.5108L147.567 22.6533ZM141.171 25.3506V25.166H139.171V25.3506H141.171ZM141.171 25.166C141.171 24.5165 141.247 23.9521 141.387 23.4645L139.465 22.9125C139.265 23.6084 139.171 24.3624 139.171 25.166H141.171ZM141.385 23.4706C141.532 22.9698 141.732 22.5696 141.972 22.2521L140.374 21.0486C139.969 21.5867 139.671 22.2118 139.466 22.9063L141.385 23.4706ZM141.966 22.2591C142.205 21.9474 142.483 21.7203 142.802 21.5627L141.917 19.7693C141.31 20.0687 140.797 20.4979 140.379 21.0417L141.966 22.2591ZM142.811 21.5582C143.118 21.4027 143.482 21.3145 143.924 21.3145V19.3145C143.206 19.3145 142.526 19.4606 141.908 19.7739L142.811 21.5582ZM143.924 21.3145C144.404 21.3145 144.774 21.3991 145.06 21.5346L145.916 19.7271C145.312 19.4408 144.639 19.3145 143.924 19.3145V21.3145ZM145.074 21.5412C145.376 21.6782 145.629 21.8772 145.842 22.1509L147.42 20.9214C147.012 20.3981 146.503 19.9937 145.902 19.7205L145.074 21.5412ZM145.852 22.1637C146.081 22.4479 146.277 22.8106 146.427 23.2702L148.329 22.6497C148.115 21.9961 147.813 21.4096 147.409 20.9086L145.852 22.1637ZM146.427 23.2702C146.583 23.746 146.696 24.3034 146.761 24.9491L148.751 24.7501C148.675 23.9895 148.537 23.2872 148.329 22.6497L146.427 23.2702ZM146.756 24.8496V25.6582H148.756V24.8496H146.756ZM146.76 25.5662C146.701 26.2004 146.589 26.7493 146.43 27.2198L148.326 27.8583C148.542 27.2156 148.681 26.5106 148.752 25.7502L146.76 25.5662ZM146.427 27.2288C146.277 27.6885 146.081 28.0512 145.852 28.3354L147.409 29.5904C147.813 29.0895 148.115 28.5029 148.329 27.8493L146.427 27.2288ZM145.847 28.3425C145.632 28.6138 145.374 28.8175 145.065 28.9623L145.912 30.774C146.505 30.4969 147.009 30.0971 147.415 29.5833L145.847 28.3425ZM145.074 28.9578C144.778 29.0924 144.397 29.1758 143.906 29.1758V31.1758C144.622 31.1758 145.296 31.0541 145.902 30.7785L145.074 28.9578ZM143.906 29.1758C143.484 29.1758 143.128 29.0877 142.82 28.9278L141.899 30.703C142.516 31.0236 143.192 31.1758 143.906 31.1758V29.1758ZM142.825 28.9303C142.505 28.762 142.223 28.524 141.979 28.2012L140.384 29.4081C140.796 29.9525 141.3 30.3884 141.894 30.7006L142.825 28.9303ZM141.979 28.2012C141.731 27.8737 141.529 27.4741 141.384 26.988L139.468 27.5627C139.674 28.2486 139.976 28.8685 140.384 29.4081L141.979 28.2012ZM141.387 26.9994C141.246 26.5076 141.171 25.9599 141.171 25.3506H139.171C139.171 26.1241 139.266 26.8596 139.465 27.5514L141.387 26.9994ZM140.797 25.166V25.3506H142.797V25.166H140.797ZM140.797 25.3506C140.797 25.891 140.85 26.4106 140.962 26.9064L142.913 26.4667C142.837 26.1304 142.797 25.7594 142.797 25.3506H140.797ZM140.965 26.9194C141.086 27.4266 141.274 27.8969 141.54 28.318L143.232 27.2523C143.099 27.0406 142.988 26.7785 142.91 26.4537L140.965 26.9194ZM141.547 28.3291C141.835 28.7742 142.211 29.136 142.67 29.3995L143.666 27.665C143.492 27.5652 143.347 27.4289 143.225 27.2413L141.547 28.3291ZM142.682 29.4064C143.176 29.6806 143.729 29.7959 144.302 29.7959V27.7959C143.996 27.7959 143.793 27.7354 143.654 27.6581L142.682 29.4064ZM144.302 29.7959C144.98 29.7959 145.628 29.6518 146.183 29.2916L145.093 27.6147C144.944 27.7115 144.702 27.7959 144.302 27.7959V29.7959ZM146.183 29.2916C146.676 28.9711 147.067 28.5449 147.35 28.0277L145.595 27.068C145.468 27.3008 145.303 27.4782 145.093 27.6147L146.183 29.2916ZM147.344 28.0381C147.599 27.5858 147.793 27.0999 147.931 26.5838L145.999 26.0685C145.902 26.4314 145.769 26.7599 145.601 27.0576L147.344 28.0381ZM147.965 26.3262V24.208H145.965V26.3262H147.965ZM147.945 24.0119C147.866 23.6158 147.743 23.2331 147.578 22.8653L145.754 23.6875C145.858 23.9173 145.935 24.1557 145.984 24.4041L147.945 24.0119ZM147.587 22.8867C147.417 22.4848 147.188 22.1198 146.9 21.7988L145.413 23.1367C145.546 23.2845 145.657 23.4586 145.745 23.666L147.587 22.8867ZM146.917 21.8185C146.612 21.4616 146.238 21.1858 145.811 20.9885L144.973 22.8044C145.154 22.8884 145.29 22.9935 145.396 23.117L146.917 21.8185ZM145.811 20.9885C145.349 20.7753 144.843 20.6855 144.319 20.6855V22.6855C144.616 22.6855 144.825 22.7364 144.973 22.8044L145.811 20.9885ZM144.319 20.6855C143.732 20.6855 143.167 20.8102 142.665 21.1024L143.671 22.8311C143.813 22.7483 144.016 22.6855 144.319 22.6855V20.6855ZM142.67 21.0995C142.207 21.3655 141.83 21.7337 141.542 22.1858L143.229 23.2595C143.352 23.0671 143.496 22.9313 143.666 22.8341L142.67 21.0995ZM141.54 22.1898C141.273 22.6131 141.085 23.0879 140.964 23.6003L142.911 24.0599C142.989 23.7286 143.1 23.465 143.232 23.2555L141.54 22.1898ZM140.962 23.6102C140.85 24.106 140.797 24.6256 140.797 25.166H142.797C142.797 24.7572 142.837 24.3862 142.913 24.0499L140.962 23.6102ZM152.81 29.8418L152.416 30.761L152.428 30.7661L152.81 29.8418ZM151.43 28.8838L150.697 29.5643L150.702 29.5698L151.43 28.8838ZM150.586 23.1445L151.521 23.4986L151.522 23.4957L150.586 23.1445ZM156.158 20.666L155.728 21.5689L155.732 21.5708L156.158 20.666ZM157.38 21.6504L156.58 22.2504L156.584 22.2558L157.38 21.6504ZM158.083 23.127L157.117 23.3859L157.118 23.3884L158.083 23.127ZM158.312 25.7021V26.7021H159.312V25.7021H158.312ZM151.21 25.7021H150.21V26.7021H151.21V25.7021ZM151.21 24.375V23.375H150.21V24.375H151.21ZM156.686 24.375V25.375H157.686V24.375H156.686ZM156.686 24.252H157.686V24.2242L157.684 24.1965L156.686 24.252ZM156.422 23.0215L155.483 23.3666L155.488 23.3786L156.422 23.0215ZM153.381 21.8877L153.821 22.7855L153.828 22.7822L153.835 22.7787L153.381 21.8877ZM152.062 26.8535L151.107 27.1486L151.11 27.1571L151.112 27.1655L152.062 26.8535ZM152.616 27.8906L151.837 28.5172L151.844 28.5263L152.616 27.8906ZM153.504 28.5938L153.063 29.4912L153.069 29.4941L153.504 28.5938ZM157.204 27.5566L157.826 26.7737L157.027 26.1385L156.408 26.951L157.204 27.5566ZM158.188 28.3389L159.023 28.8899L159.528 28.1257L158.811 27.556L158.188 28.3389ZM156.237 29.9121L155.882 28.9772L155.878 28.9788L156.237 29.9121ZM154.611 29.1758C154.063 29.1758 153.594 29.0839 153.191 28.9175L152.428 30.7661C153.103 31.045 153.836 31.1758 154.611 31.1758V29.1758ZM153.203 28.9227C152.793 28.7465 152.447 28.5052 152.157 28.1978L150.702 29.5698C151.186 30.0827 151.76 30.48 152.416 30.7609L153.203 28.9227ZM152.162 28.2033C151.879 27.8976 151.653 27.5283 151.49 27.0823L149.611 27.7673C149.859 28.4463 150.219 29.0497 150.697 29.5642L152.162 28.2033ZM151.49 27.0823C151.33 26.6415 151.243 26.1437 151.243 25.5791H149.243C149.243 26.3505 149.362 27.0831 149.611 27.7673L151.49 27.0823ZM151.243 25.5791V25.21H149.243V25.5791H151.243ZM151.243 25.21C151.243 24.5341 151.343 23.969 151.521 23.4986L149.651 22.7904C149.372 23.5271 149.243 24.3389 149.243 25.21H151.243ZM151.522 23.4957C151.711 22.9928 151.957 22.5935 152.25 22.2789L150.786 20.9164C150.293 21.4455 149.918 22.0775 149.65 22.7934L151.522 23.4957ZM152.25 22.2789C152.554 21.9514 152.888 21.7152 153.253 21.5565L152.454 19.7228C151.823 19.9977 151.266 20.4002 150.786 20.9164L152.25 22.2789ZM153.253 21.5565C153.627 21.3935 154.007 21.3145 154.4 21.3145V19.3145C153.727 19.3145 153.076 19.4522 152.454 19.7228L153.253 21.5565ZM154.4 21.3145C154.967 21.3145 155.399 21.4122 155.728 21.5689L156.588 19.7632C155.933 19.451 155.193 19.3145 154.4 19.3145V21.3145ZM155.732 21.5708C156.089 21.7388 156.366 21.9649 156.58 22.2504L158.18 21.0504C157.761 20.4921 157.223 20.062 156.584 19.7612L155.732 21.5708ZM156.584 22.2558C156.812 22.5562 156.994 22.9272 157.117 23.3859L159.049 22.8681C158.867 22.19 158.58 21.5766 158.176 21.045L156.584 22.2558ZM157.118 23.3884C157.244 23.8543 157.312 24.3804 157.312 24.9727H159.312C159.312 24.229 159.227 23.5246 159.048 22.8655L157.118 23.3884ZM157.312 24.9727V25.7021H159.312V24.9727H157.312ZM158.312 24.7021H151.21V26.7021H158.312V24.7021ZM152.21 25.7021V24.375H150.21V25.7021H152.21ZM151.21 25.375H156.686V23.375H151.21V25.375ZM157.686 24.375V24.252H155.686V24.375H157.686ZM157.684 24.1965C157.655 23.6703 157.545 23.1585 157.356 22.6643L155.488 23.3786C155.604 23.6814 155.669 23.9898 155.687 24.3074L157.684 24.1965ZM157.36 22.6764C157.153 22.112 156.812 21.6314 156.343 21.2562L155.094 22.818C155.27 22.9585 155.398 23.1341 155.483 23.3666L157.36 22.6764ZM156.343 21.2562C155.791 20.8141 155.105 20.6504 154.4 20.6504V22.6504C154.809 22.6504 155.002 22.7445 155.094 22.818L156.343 21.2562ZM154.4 20.6504C153.883 20.6504 153.386 20.7626 152.927 20.9967L153.835 22.7787C153.996 22.6964 154.179 22.6504 154.4 22.6504V20.6504ZM152.94 20.9899C152.471 21.22 152.083 21.5599 151.774 21.9832L153.388 23.1633C153.524 22.9772 153.669 22.8601 153.821 22.7855L152.94 20.9899ZM151.774 21.9832C151.467 22.4024 151.248 22.8886 151.1 23.4198L153.025 23.9591C153.123 23.6114 153.249 23.3535 153.388 23.1633L151.774 21.9832ZM151.1 23.4198C150.947 23.9662 150.878 24.5669 150.878 25.21H152.878C152.878 24.7045 152.932 24.2916 153.025 23.9591L151.1 23.4198ZM150.878 25.21V25.5791H152.878V25.21H150.878ZM150.878 25.5791C150.878 26.1221 150.952 26.6471 151.107 27.1486L153.018 26.5584C152.927 26.2631 152.878 25.9384 152.878 25.5791H150.878ZM151.112 27.1655C151.276 27.6634 151.516 28.1176 151.837 28.5172L153.396 27.2641C153.236 27.066 153.107 26.8288 153.013 26.5415L151.112 27.1655ZM151.844 28.5263C152.18 28.9344 152.589 29.2582 153.063 29.4912L153.945 27.6963C153.728 27.5894 153.544 27.4445 153.388 27.2549L151.844 28.5263ZM153.069 29.4941C153.574 29.7383 154.124 29.8486 154.699 29.8486V27.8486C154.383 27.8486 154.137 27.7891 153.939 27.6934L153.069 29.4941ZM154.699 29.8486C155.409 29.8486 156.08 29.7033 156.665 29.359L155.651 27.6351C155.44 27.7596 155.138 27.8486 154.699 27.8486V29.8486ZM156.665 29.359C157.183 29.0544 157.628 28.6512 158 28.1623L156.408 26.951C156.183 27.2472 155.93 27.471 155.651 27.6351L156.665 29.359ZM156.582 28.3396L157.566 29.1218L158.811 27.556L157.826 26.7737L156.582 28.3396ZM157.354 27.7878C157.203 28.0166 157.002 28.2479 156.742 28.4792L158.071 29.974C158.443 29.6427 158.764 29.2822 159.023 28.8899L157.354 27.7878ZM156.742 28.4792C156.53 28.6672 156.25 28.8374 155.882 28.9772L156.592 30.847C157.15 30.6352 157.649 30.3484 158.071 29.974L156.742 28.4792ZM155.878 28.9788C155.563 29.1001 155.148 29.1758 154.611 29.1758V31.1758C155.328 31.1758 155.998 31.0757 156.596 30.8455L155.878 28.9788Z" fill="#809FB8" mask="url(#path-3-inside-1_4_6797)"/>
<rect x="0.5" y="0.5" width="174" height="46" rx="14.5" stroke="#809FB8" stroke-dasharray="2 2"/>
</svg>
