<?xml version="1.0" encoding="UTF-8" standalone="no"?> <svg width="64" height="64" viewBox="0 0 64 64" fill="none" xmlns="http://www.w3.org/2000/svg">
<path d="M56 35V33C56.2652 33 56.5196 32.8946 56.7071 32.7071C56.8946 32.5196 57 32.2652 57 32V26C57 25.7348 56.8946 25.4804 56.7071 25.2929C56.5196 25.1054 56.2652 25 56 25H50.6L50.406 24.249C49.9641 22.5308 49.2771 20.8853 48.366 19.363L47.966 18.694L51.8 14.853C51.9854 14.6672 52.0895 14.4155 52.0895 14.153C52.0895 13.8905 51.9854 13.6388 51.8 13.453L47.553 9.2C47.3644 9.02003 47.1137 8.91962 46.853 8.91962C46.5923 8.91962 46.3416 9.02003 46.153 9.2L42.312 13.041L41.643 12.641C40.1186 11.7297 38.4711 11.0423 36.751 10.6L36 10.405V5C36 4.73478 35.8946 4.48043 35.7071 4.29289C35.5196 4.10536 35.2652 4 35 4H29C28.7348 4 28.4804 4.10536 28.2929 4.29289C28.1054 4.48043 28 4.73478 28 5V10.4L27.249 10.594C25.5308 11.0361 23.885 11.7228 22.362 12.633L21.693 13.033L17.853 9.2C17.664 9.01879 17.4123 8.91761 17.1505 8.91761C16.8887 8.91761 16.637 9.01879 16.448 9.2L12.2 13.447C12.1074 13.5392 12.034 13.6487 11.9838 13.7694C11.9337 13.89 11.9079 14.0194 11.9079 14.15C11.9079 14.2806 11.9337 14.41 11.9838 14.5306C12.034 14.6513 12.1074 14.7608 12.2 14.853L16.041 18.694L15.641 19.363C14.7299 20.8853 14.0429 22.5308 13.601 24.249L13.405 25H8C7.73478 25 7.48043 25.1054 7.29289 25.2929C7.10536 25.4804 7 25.7348 7 26V32C7 32.2652 7.10536 32.5196 7.29289 32.7071C7.48043 32.8946 7.73478 33 8 33V35C7.20435 35 6.44129 34.6839 5.87868 34.1213C5.31607 33.5587 5 32.7956 5 32V26C5 25.2044 5.31607 24.4413 5.87868 23.8787C6.44129 23.3161 7.20435 23 8 23H11.869C12.2817 21.6174 12.8394 20.2823 13.533 19.017L10.783 16.267C10.5046 15.9892 10.2838 15.6592 10.1331 15.2959C9.98247 14.9327 9.90491 14.5433 9.90491 14.15C9.90491 13.7567 9.98247 13.3673 10.1331 13.0041C10.2838 12.6408 10.5046 12.3108 10.783 12.033L15.033 7.783C15.603 7.2376 16.3616 6.93318 17.1505 6.93318C17.9394 6.93318 18.698 7.2376 19.268 7.783L22.017 10.532C23.2823 9.83909 24.6174 9.28199 26 8.87V5C26 4.20435 26.3161 3.44129 26.8787 2.87868C27.4413 2.31607 28.2044 2 29 2H35C35.7956 2 36.5587 2.31607 37.1213 2.87868C37.6839 3.44129 38 4.20435 38 5V8.87C39.3826 9.28231 40.7177 9.83974 41.983 10.533L44.733 7.783C45.3031 7.2376 46.0616 6.93318 46.8505 6.93318C47.6394 6.93318 48.3979 7.2376 48.968 7.783L53.217 12.032C53.4954 12.3098 53.7162 12.6398 53.8669 13.0031C54.0175 13.3663 54.0951 13.7557 54.0951 14.149C54.0951 14.5423 54.0175 14.9317 53.8669 15.2949C53.7162 15.6582 53.4954 15.9882 53.217 16.266L50.467 19.016C51.1606 20.2816 51.7184 21.617 52.131 23H56C56.7956 23 57.5587 23.3161 58.1213 23.8787C58.6839 24.4413 59 25.2044 59 26V32C59 32.7956 58.6839 33.5587 58.1213 34.1213C57.5587 34.6839 56.7956 35 56 35V35Z" fill="black"/>
<path d="M46 29H44C44 25.8174 42.7357 22.7652 40.4853 20.5147C38.2348 18.2643 35.1826 17 32 17C28.8174 17 25.7652 18.2643 23.5147 20.5147C21.2643 22.7652 20 25.8174 20 29H18C18 25.287 19.475 21.726 22.1005 19.1005C24.726 16.475 28.287 15 32 15C35.713 15 39.274 16.475 41.8995 19.1005C44.525 21.726 46 25.287 46 29V29Z" fill="black"/>
<path d="M32 37C30.8133 37 29.6533 36.6481 28.6666 35.9888C27.6799 35.3295 26.9109 34.3925 26.4567 33.2961C26.0026 32.1997 25.8838 30.9933 26.1153 29.8295C26.3468 28.6656 26.9182 27.5965 27.7574 26.7574C28.5965 25.9182 29.6656 25.3468 30.8295 25.1153C31.9933 24.8838 33.1997 25.0026 34.2961 25.4567C35.3925 25.9109 36.3295 26.6799 36.9888 27.6666C37.6481 28.6533 38 29.8133 38 31C37.9984 32.5908 37.3658 34.116 36.2409 35.2409C35.116 36.3658 33.5908 36.9984 32 37V37ZM32 27C31.2089 27 30.4355 27.2346 29.7777 27.6741C29.1199 28.1137 28.6072 28.7384 28.3045 29.4693C28.0017 30.2002 27.9225 31.0044 28.0769 31.7804C28.2312 32.5563 28.6122 33.269 29.1716 33.8284C29.731 34.3878 30.4437 34.7688 31.2196 34.9231C31.9956 35.0775 32.7998 34.9983 33.5307 34.6955C34.2616 34.3928 34.8864 33.8801 35.3259 33.2223C35.7654 32.5645 36 31.7911 36 31C36 29.9391 35.5786 28.9217 34.8284 28.1716C34.0783 27.4214 33.0609 27 32 27V27Z" fill="black"/>
<path d="M49 41C47.8133 41 46.6533 40.6481 45.6666 39.9888C44.6799 39.3295 43.9109 38.3925 43.4567 37.2961C43.0026 36.1997 42.8838 34.9933 43.1153 33.8295C43.3468 32.6656 43.9182 31.5965 44.7574 30.7574C45.5965 29.9182 46.6656 29.3468 47.8295 29.1153C48.9933 28.8838 50.1997 29.0026 51.2961 29.4567C52.3925 29.9109 53.3295 30.6799 53.9888 31.6666C54.6481 32.6533 55 33.8133 55 35C54.9984 36.5908 54.3658 38.116 53.2409 39.2409C52.116 40.3658 50.5908 40.9984 49 41V41ZM49 31C48.2089 31 47.4355 31.2346 46.7777 31.6741C46.1199 32.1137 45.6072 32.7384 45.3045 33.4693C45.0017 34.2002 44.9225 35.0044 45.0769 35.7804C45.2312 36.5563 45.6122 37.269 46.1716 37.8284C46.731 38.3878 47.4437 38.7688 48.2196 38.9231C48.9956 39.0775 49.7998 38.9983 50.5307 38.6955C51.2616 38.3928 51.8864 37.8801 52.3259 37.2223C52.7654 36.5645 53 35.7911 53 35C53 33.9391 52.5786 32.9217 51.8284 32.1716C51.0783 31.4214 50.0609 31 49 31Z" fill="black"/>
<path d="M15 41C13.8133 41 12.6533 40.6481 11.6666 39.9888C10.6799 39.3295 9.91085 38.3925 9.45673 37.2961C9.0026 36.1997 8.88378 34.9933 9.11529 33.8295C9.3468 32.6656 9.91825 31.5965 10.7574 30.7574C11.5965 29.9182 12.6656 29.3468 13.8295 29.1153C14.9933 28.8838 16.1997 29.0026 17.2961 29.4567C18.3925 29.9109 19.3295 30.6799 19.9888 31.6666C20.6481 32.6533 21 33.8133 21 35C20.9984 36.5908 20.3658 38.116 19.2409 39.2409C18.116 40.3658 16.5908 40.9984 15 41V41ZM15 31C14.2089 31 13.4355 31.2346 12.7777 31.6741C12.1199 32.1137 11.6072 32.7384 11.3045 33.4693C11.0017 34.2002 10.9225 35.0044 11.0769 35.7804C11.2312 36.5563 11.6122 37.269 12.1716 37.8284C12.731 38.3878 13.4437 38.7688 14.2196 38.9231C14.9956 39.0775 15.7998 38.9983 16.5307 38.6955C17.2616 38.3928 17.8864 37.8801 18.3259 37.2223C18.7654 36.5645 19 35.7911 19 35C19 33.9391 18.5786 32.9217 17.8284 32.1716C17.0783 31.4214 16.0609 31 15 31Z" fill="black"/>
<path d="M58.066 43.5661C56.5757 42.5415 54.8086 41.9952 53 42.0001H45C44.5135 42.0044 44.0282 42.0485 43.549 42.1321C42.9091 41.1311 42.0766 40.2674 41.1 39.5911C40.9538 39.4801 40.7997 39.3798 40.639 39.2911C39.24 38.4441 37.6354 37.9975 36 38.0001H28C26.4955 37.9948 25.0142 38.3711 23.6946 39.0937C22.3749 39.8163 21.26 40.8616 20.454 42.1321C19.9737 42.0485 19.4875 42.0044 19 42.0001H11C9.19268 41.9952 7.42672 42.5407 5.937 43.5641C4.72463 44.389 3.73219 45.4977 3.04604 46.7937C2.35988 48.0896 2.00079 49.5336 2 51.0001V55.0001C2.00154 56.3373 2.38578 57.6463 3.10734 58.7722C3.82889 59.8981 4.85762 60.794 6.072 61.3541C6.98755 61.7852 7.98802 62.006 9 62.0001H19V60.0001H10V49.0001H8V59.9001C7.62364 59.8241 7.25794 59.7025 6.911 59.5381C6.0435 59.138 5.3085 58.4983 4.79271 57.6942C4.27693 56.8901 4.00187 55.9553 4 55.0001V51.0001C4.00125 49.8589 4.28121 48.7352 4.81554 47.7269C5.34988 46.7185 6.12242 45.8559 7.066 45.2141C8.22369 44.4194 9.59583 43.996 11 44.0001H19C19.176 44.0001 19.346 44.0191 19.518 44.0311C19.1797 44.9846 19.0046 45.9883 19 47.0001V57.0001C19.0016 58.3256 19.5289 59.5965 20.4662 60.5338C21.4036 61.4712 22.6744 61.9985 24 62.0001H27V46.0001H25V60.0001H24C23.2044 60.0001 22.4413 59.684 21.8787 59.1214C21.3161 58.5588 21 57.7957 21 57.0001V47.0001C21 45.1435 21.7375 43.3631 23.0503 42.0503C24.363 40.7376 26.1435 40.0001 28 40.0001H36C37.2866 40.0009 38.5479 40.357 39.645 41.0291C39.7465 41.0846 39.8441 41.147 39.937 41.2161C40.8741 41.8574 41.6431 42.7149 42.179 43.7161C42.7179 44.7268 42.9999 45.8546 43 47.0001V57.0001C43 57.7957 42.6839 58.5588 42.1213 59.1214C41.5587 59.684 40.7956 60.0001 40 60.0001H39V46.0001H37V62.0001H40C41.3256 61.9985 42.5964 61.4712 43.5338 60.5338C44.4711 59.5965 44.9984 58.3256 45 57.0001V47.0001C44.9955 45.9884 44.8207 44.9847 44.483 44.0311C44.655 44.0191 44.825 44.0001 45 44.0001H53C54.4054 43.9961 55.7786 44.4203 56.937 45.2161C57.8798 45.858 58.6516 46.7204 59.1854 47.7284C59.7192 48.7364 59.9988 49.8595 60 51.0001V55.0001C59.9983 55.9586 59.7215 56.8965 59.2024 57.7023C58.6834 58.5081 57.944 59.1481 57.072 59.5461C56.7305 59.7075 56.3705 59.8264 56 59.9001V49.0001H54V60.0001H45V62.0001H55C56.0057 62.0066 57.0002 61.7886 57.911 61.3621C59.1296 60.8036 60.1624 59.9075 60.8872 58.7799C61.6119 57.6523 61.9981 56.3405 62 55.0001V51.0001C61.9992 49.5342 61.6404 48.0908 60.9548 46.7952C60.2692 45.4997 59.2775 44.3911 58.066 43.5661V43.5661Z" fill="black"/>
<path d="M36 60H28V62H36V60Z" fill="black"/>
</svg>
